<mxfile host="65bd71144e">
    <diagram id="CwuN-bCCmu2v1joEgwJ8" name="Page-1">
        <mxGraphModel dx="1171" dy="640" grid="1" gridSize="10" guides="1" tooltips="1" connect="1" arrows="1" fold="1" page="1" pageScale="1" pageWidth="850" pageHeight="1100" math="0" shadow="0">
            <root>
                <mxCell id="0"/>
                <mxCell id="1" parent="0"/>
                <mxCell id="6" value="" style="edgeStyle=none;html=1;" parent="1" source="2" target="5" edge="1">
                    <mxGeometry relative="1" as="geometry"/>
                </mxCell>
                <mxCell id="2" value="&amp;nbsp;API" style="rounded=1;whiteSpace=wrap;html=1;" parent="1" vertex="1">
                    <mxGeometry x="70" y="10" width="120" height="60" as="geometry"/>
                </mxCell>
                <mxCell id="8" value="" style="edgeStyle=none;html=1;" parent="1" source="5" target="7" edge="1">
                    <mxGeometry relative="1" as="geometry"/>
                </mxCell>
                <mxCell id="5" value="CLOUD STORAGE" style="shape=process;whiteSpace=wrap;html=1;backgroundOutline=1;rounded=1;" parent="1" vertex="1">
                    <mxGeometry x="70" y="150" width="120" height="60" as="geometry"/>
                </mxCell>
                <mxCell id="10" value="" style="edgeStyle=none;html=1;" parent="1" source="7" target="9" edge="1">
                    <mxGeometry relative="1" as="geometry">
                        <Array as="points"/>
                    </mxGeometry>
                </mxCell>
                <mxCell id="14" value="" style="edgeStyle=none;html=1;" parent="1" source="7" target="13" edge="1">
                    <mxGeometry relative="1" as="geometry"/>
                </mxCell>
                <mxCell id="7" value="HADOOP SPARK (for data cleaning)" style="shape=hexagon;perimeter=hexagonPerimeter2;whiteSpace=wrap;html=1;fixedSize=1;rounded=1;" parent="1" vertex="1">
                    <mxGeometry x="270" y="140" width="120" height="80" as="geometry"/>
                </mxCell>
                <mxCell id="20" value="" style="edgeStyle=none;html=1;" parent="1" source="9" target="19" edge="1">
                    <mxGeometry relative="1" as="geometry"/>
                </mxCell>
                <mxCell id="9" value="SAMPLE TO LOCAL FILE STORAGE FOR REVIEW" style="whiteSpace=wrap;html=1;rounded=1;" parent="1" vertex="1">
                    <mxGeometry x="470" y="150" width="120" height="60" as="geometry"/>
                </mxCell>
                <mxCell id="16" value="" style="edgeStyle=none;html=1;" parent="1" source="13" target="15" edge="1">
                    <mxGeometry relative="1" as="geometry"/>
                </mxCell>
                <mxCell id="13" value="CLOUD STORAGE" style="shape=process;whiteSpace=wrap;html=1;backgroundOutline=1;rounded=1;" parent="1" vertex="1">
                    <mxGeometry x="270" y="270" width="120" height="60" as="geometry"/>
                </mxCell>
                <mxCell id="26" value="" style="edgeStyle=none;html=1;" edge="1" parent="1" source="15" target="25">
                    <mxGeometry relative="1" as="geometry"/>
                </mxCell>
                <mxCell id="30" value="" style="edgeStyle=none;html=1;" edge="1" parent="1" source="15" target="29">
                    <mxGeometry relative="1" as="geometry"/>
                </mxCell>
                <mxCell id="15" value="BIG QUERY" style="ellipse;whiteSpace=wrap;html=1;rounded=1;" parent="1" vertex="1">
                    <mxGeometry x="290" y="424.78" width="80" height="80" as="geometry"/>
                </mxCell>
                <mxCell id="21" value="" style="edgeStyle=none;html=1;" parent="1" source="19" target="13" edge="1">
                    <mxGeometry relative="1" as="geometry"/>
                </mxCell>
                <mxCell id="19" value="SAMPLE TO LOCAL FILE STORAGE FOR REVIEW" style="whiteSpace=wrap;html=1;rounded=1;" parent="1" vertex="1">
                    <mxGeometry x="470" y="270" width="120" height="60" as="geometry"/>
                </mxCell>
                <mxCell id="24" value="" style="shape=image;verticalLabelPosition=bottom;labelBackgroundColor=default;verticalAlign=top;aspect=fixed;imageAspect=0;image=data:image/png,iVBORw0KGgoAAAANSUhEUgAAAoAAAAIuCAYAAAAv27m9AAAAAXNSR0IArs4c6QAAAARnQU1BAACxjwv8YQUAAAAJcEhZcwAAFxEAABcRAcom8z8AAP+lSURBVHhe7P13nFxHtt8J8p/dz4zMzGgkjaTZmc9odzWr/ezMrD4aI400KzMy7+k9ve7Xjt20TTa72d57sumbZJPNZntDNr03AL0BPTwIgPAeKF+F8lVAeV91Nr6RdQoXt07cm5VZicwqxI+fYKJu3BPmnBMnfhn3RuQF4+PjMjY2tihNTEz4ZOUhMzk56T+t/DxZ8ixZzQvJal5Itpw2nU+ymmfJci2UR8oqt5w2rTZZzQvJarlZslYeaTlkrbxalOValizXs2TJy5IlZclaeSSVtfLON1nNs2Sr1aaVKkueJat5IVnNC8lGG5xJebLkWbJZeaS8cmtRFxf09vbKqVOnFqXW1lY5efKkmdfV1SXNzc1iyfb390tLS4u0t7cvyiN1dnZ62b6+vkV5XCOvo6NjUR6JMik7S5by03kk+oIs7Uvn0Y+mpibfr3Qeqa2tzevDku3p6fGy3d3di/JIyCFv5SFDmykjnad6rIQN0G+5NgjpMc8GeXoM2QC5kCx6DNlAdRGyAfUhG7IB/QnZQH3ZsoHqMWQDrpNv2UD9MWQD9WVLNk+PWb6cpUdSlg3y9JhlA/QYklU9hmygvnyubUBfQuPgXPhyqTYoxZeRzdJjLceTkC+jw5A/qg0sPZKoM6RHbJClR/oa0qPaoBw9Zslm6THPBqXEkzwbIJdlA+otxZerbYMsPVbKl5G18vJ82a8AWqBBCFkYGBjwHYV1pjE3N+cbg7IsUCn5U1NT81fOYGZmxivp9OnT81fOBkqks9PT0/NXzgCWi+zg4OD8lbOBIjDQ7Ozs/JUzQAcoaXh4eP7K2cBoGJ2+pTEyMuLrHR0dnb9yNqiTui0MDQ152ZAN6Ct9tqA2oN9p0Ed1RAtcD9kA3WbZAJ/AN7BVGnk2YGCiD0uPfBtpbGz0OrGAXMgGyGA/bGEBPVK3BfSIrGUD1WNoHKBH+muNA9VjyAbYNWQD9EibQjagL6FxoL4csgE6DI0D9Jc1DrA7Y8GyAfUhix3T0JgQGgf0MzQO1AahcUCcCY0DdEubiDkWsGvIBtgUWfzDAjYIjQN0gGyeL1s2QPfIZvlyOTYI+TI2KDWeYIO8eBLSY1Y8wQbIhvSo8cTSIzpANqRH9I8eLWADZEMxPWtuxAbIVmJuxAYhX6bMUEygvCwbMC7pk6VHxmSWDbLmRvSXZQNsV425ER1XYm5UflLO3Jjly6G4rL5s2QDdIxvy5QssIYCApUCAcijYkuUaspYCAWWSH5Kl3JAsgwplWLIoDllrAAAcKeRMGAxZy3CAOkOy1IesZTiArBUMgOrRklU9ZtmgVD1m2UD1WEkbqCyf+m9kcHA+uUZZyUS5tDl9nXvpDwED2XQ+CVnanL6OLP0JyeIPtIk2p/OQ5Tr53JfO5xrlUn46D1naY8mSR1uQpV/JPM1HD/TJysNuyPLJ3+l7kAvJJvUYkg3ZIEuPpCw9FmODkB6zbKB6zLJBSBdZNiCVa4Nq+TL3cG8yAeqlTfp3Elyj3lBMyJKlbmRpkwXaE4ontBlZPi1ge5IFlaV+C9QZkqWtebK02wI6CsnSR/RUih7zbJClxzwboAdkLeTZoBp6BOgJfVlQ2ZAeS7WB6rFSNsjz5UrY4IL5z4iIcwYGSDLhnDpo9O90St5rpby8smSN6z6PVEFZ6zrJl7sSZY3rmkqVLU+P5ciuTBskx1iyrIiIiPMPkQBGnDMkJ5zkpMS3lFH3LWbYfVMZGh6OKaZVmYaHR6qaRkZYtSykifGJRaRax2dERMT5gUgAI84JdHIhMdmwnE0aGhqWptY2qWtslLqmZqlvnk/8O6aYVknCt4801Mnh+hNVT7Sjsa1Venp7ZWpyyo/DJAmMiIg4PxAJYMQ5QZIAzkxPy6ybdPpPn3YTY5P09PUH3+eIiFgNgFb1jp+S9tEe6RztrW4a65WTQ91S394ire3tJgmMRDAiYvUjSAA1GFjwk7gLGKEgkScbygPkhcotR5a8LNly+lOuLsqpN4SscrXeECohy3Ue9fICLQSQF23rm1v8Y9+IiNWOmblZ6Rnrl/aRbukY6al+gog6ItjU2SZdPT1+XPIlTGNZegxXIiaAcmTJC8kiU82YHkK5sqE2lSNLXiVkkanVuTGv3hDIC7WpHFnyQrLan0rIXmDt/qEw3aJtCeo2a2vnCZWxjTq0RVu3ulu7fwhCxWx1t3bhUB6yeccNWLtw0AFbpdlBZ0G3ultOxQ4bZPlMA92hR7Z4WwaiPtoMGUqD++kr7V6qDegjOg4dN6Bb3a1VtzwbZOkxZAPar7rQNnc7/2g52T5/R0TE6kbNEUCXWA1sOdUhTW2t0u1iVENDw0Ic0zEL8uIJ10PxhGulxhPihBVPFHp0hhWXialZR2cQ00lWXEYmK6bT3tDcyDEftNmaV2ln1vEleXMjeVlH8YTmRrVB3tFeobkR2dDxJcXMjSEbVHNuzLNBKXOjHgOzlLlRUYwvh/gJ+ict1ZfBBVZHUSrKpbGWgimUBlvORgcYHDhMaICQbykJWcoNOQwOjJItJdEWZC2HARiNQWIpCePgyNagBcgx8CxZZKjXGrT0n/bSbksXGAVZywbUhZ5CNsAZyA/ZgHK5Z6k2UD0ulw2on6T9UT23OWfvCUwoERGrDbVIAFkFPDnYJS3tJx0BaJeTbvJibOqY1diRF0+IUaF4wjVkQxNQVjwhpiIbisvE5KyYjqxFAugDdTInWP3Ji+nMjaXEdPqInioxNw4NDsjAKUjNYj3K3JSc7uuS6Ql7bhwdOiVDA8TixXqUmQkvOzNl22B4sF9GXLJkZ6fHvezctH3Uy+DpXhkdhpQu1sX05KiXldnFeuT+gVM9Mj4CmVosOzU+LKf7u13WYj2inwGXNzFmk6mJ0UFftqlHmZZTrk1T47Yvj7n20KdMG7h+WRhxNhgO2GBu3gazU/ZRL8ghb9rA2c23edK2QfARsOWgSWTl16IseeXIZiHKnkE6j79JBDAIIkGVANvSdlL6T9nfSCMiVhtqkgC61D7c7QggvyxyypMlyAeEipQcy1ljHmTlV0qWvHJks7DSZGdn56T91Kw09sxJQ/fsQuJvUn3XzKJrDd2Fe+u7zlxv8Nfn5efvq/d/L77OvykX+XSZyaT3Jv8mqay/viBf+Js6fbmOT+m1QlLZwj16Xcsk3+e5shsdj/PXEuUu/Dt5bb7MgrzKJq+duZc609fS+rCuL+SlrhVSqrz55O+bv7fOlzv/9yJ5TcnrZ+5r65uRGYPbg7gJJKKiIGgxmTCxKAH0jwZa3aQTCWDEeYJaJYAdjgA2OwLIShoEkJUrvqylCWBE7aL91Jw8tHFSbntxXG5aMyI/fmFcbn1xQm5+blRuXDPsrg37a7e5a7c8P+avkW5x+Vy79YUJL+fvXTviZW9193MN2Zu55u5JXufeQpmT/jpyNz7rynTl+/tcuuW5Ql20Y+Ea9bv7uJ+6SZSjbdK2k25eW2h/skx/bb6e214q1K19oq2FPrnriTKR8fLzbadu38/5Pvm2z8trnyhnocz5+n/sPr2sK4M+pdtOPV6fqevJPmldP37e7qfKa5+07bRJy6T+s+wx3yarHsq54+VJuX/9pLT2LWaBkQBGVBRJAsjkwuofj5Iam1ukL/AuRUTEakPtEsAeaT5Z+Ik4Xt3gC1okgCsHPYNzcrsjQi/tmpSeU8MyNT7onE0fFc7I9MSwTI4OyMwkjy0hAC4eT43IhLtGHveAuekxf83Ly/xrRXMTMjk26JPMJh4hun9zbW6ax5nqI1NOdkhmfJlKNFzcd39zncenBVC/8zNXl8wlHu+6NvtrC20Hk76eQtu1nmlfXqFMfdQ66+85u09ziT5xb1afCmWiJ2QKcGWauiu0fXoiUf98273uiumTuzZbZJ98OxO6o31nt93hLHsosMegr2d0YkbW7Zv2pJNV4iQiAYyoGJhAkgSQyYVJhnddIIBxBTDifEEtE8AmRwB594yVeVYBlQBGEljbmHGmeXzLlKzdMU8GZqdkyMXWwcGBhfcmOW5rZHjYv6eJfbEpKMThAf9Oob5ziO2JzZQxNVUgMlPuSzvXSMn3KScnJ/w1ylEfoRy+3FOm1sMnf3Nv8n115GjTZOI9y4mJcX8t+c4nMsgm245/Ug9J286h5qOjI16e+rgHWH1iIYJrJH3Pk5Mphl15g9Tv2gb4paAs3SXrp+1aZvL9zwlXP/Lj44k+zddPmYt1N7TQdvrEPYW2q+4KP2FJmdSpwB5cS9pDdTc+ViDlr+2dlgc3TMqUckyHSAAjKgYckYRD44wknBenjAQw4nxCzRPAnh4/NpkQmYyY7Eg6mUTUHgYdp+Cx5MkeR7imCkSGGAuRgAwskEBnR0hRkshgVyVh3J8kTFwjRivpSBKmJAnEV9KkA9/hvmSZfCoJXCBsifqThEnrp+1aphIZytBrlEkdXNd6yKN/yCdJoBIm7rX6pCRQSViyT+hKy1TCRkrqTvukZJOU1yfyk2UC7VNSd1p/su3cr33StoOQPQYGCiRweHzGP2Jm1VhxgRaaBMIUhBIt0CF2UGnHk0CWHVI02gINR1Y7mATXyKMDFiiTsrNkKd+CDgAUmgb9YEdZUplJqKOpUpPAkMgmDa7gfuSQt2SpjzYvtw3oY5YN0G+eDUJ6VBuE9IgsbVPQD+6lj7xnxHb10+6eSABXDxZ7dkQaNf0IuL1Nmpqb/REWxBvGMXFAxzifjOtKxZOsuJyOJ0loTLdiK/EmK6brRG3J5sX0rLisMd2Ky8gu59zY55rwo2dGZXiIOeYMkaHvzDm0U/WOflVf1M/ftEf1nyQdSli4pjrgU3WWtIdeT5MOrlGflqn1c13nO+5HjrqSduLf2nYtE5lk2wFl08Zk24vpk9Zv9Ym2cw/3qq6pT8ukD6o7bTv3q7217ZSZ7JPWnxwH1M81ytZ+Wn3S+tO6oyzkLd0l7eH9AdmJYblxrfvCcOqMz1+gnUyCCjkLh23nWkgSOGJTU9NZnVHQaM6dCZ3RAwkgP9loBQ2lXAafBR5TcJaOOmUSKLixsdEPMAscPxI6owcdcAYWCrbA+TyhM3owFPVaAQE9UmfovCkMhSzGTYO66Ct9tvSIjtBVcjAq6CM65qgDS5brIRug2ywb4BP4hjpiEpYNqJ++q21PnDjhfSASwMoDvWPrShy2TZl3/fyXcvUXviyHjx6dv1oZ4E99ff2LfHnK+fkp50OWL9YaapkAtnSclKPOhocPH/a6JvaQNGYRTxi7oXhCrA/FE64RE5gzLGTFE+YXZImTFvgyGYrpxFRkic9p0AfOvQudncY8gGwopmfNjegPWWte1ZheztzIPYq+oTm5YS0bdyZcP89ezeJ+/kZ3Ok9TP33impIOkhIZ8rgHEMuRJ+l8axEmYBEZbKJERnXMJ3UgrzZL1p/sN//mWlKP2ifK0Hpor9ajbace2pLVJ/U3q0/aduRVd9p27af2SdvO/don2q5lqu4A5SfLBFp/SHfpPnFvcqxQFmUm7ZHU3Zkyp2R8ZFCue2bYbxpSBB8BU2CyoiRoIBVr4UlwDVlVRhqUmWxsEshSbkgWZYVkURCyqrA0kE06WBIqq0ZNA7mkIZOgvixZ2huSLUaPWTYoVY9ZNlBdLIcNaAeJ69SJ8zIR4JwNTc3LRgDHp+aktd+2ey0AnW17f7u0uIljOXDg4EHZf+Dg/F9hQNK+/PVvyrNrn5+/shiQqO07d0qDm7SWgueef1H+/MMfcWU/J6edPSuJn9x5l3z7ez9c5JOHDh+Rq67+ouzdu2/+Su1iuQig/pxbl/6sm3HPktL8I+C2tpOe4OnYZwxrTCsnnqhsVlzOiyfajjSQLTWmU2coLlc6ppejx6QsBPDG5wr36zt5SdJBeXlEhnJJSpiSpIO2cC1JOihb60m2levcezbpWLwSyCd/c137wv0WCdT6k/rU+pOEiTJDhAn5NAkspk+0TXWnfUqWySd/J9vO/don+qFlhvqkUN0V26dk2wFlIZ9nj7mZKbnh2ZHiCGBERLnA8XTg4LAMBBySb8n1jU3LQgA3n5iUy+4/Lf+/O3rll2+PyOlRO2hXCjo4gfY3Cfre3t4hH/7oJ+TBhx/xf4eQLCuJ5HXkv/nd78s3vvO9zLLIG3TB4wtf+Zo89cya+auUdfZ7Xbz7deHFl8qvf/uHs8oLtQVw349v+4l88zvfl5mMNgDqs5Bue1Zffnz7Hb4uglqy7awKvvPue9LTc+ZU/7T+k8iqw8JS789CuQSQ3xHunxhwn6d9OaTescK1vvEBTwYtudzkCGBjW4t0dHX6yYVJhEkM+9P/LH1GVBc8Ar7u2VFnrwIZsEhHmgRiT+yaXs3iepLI6PhPEibGH7AIE9DrSdJhkUCtn+tKZJL1JwkT/062HSDDNcrQMUrZtJsyLWKZ7JMSpmT9Vp9CJFB1p/Wn60mSQK1HdQdUpyESmO5TWnfFkkCtn7a5RvprN7svDCf7z8S1SAAjKgYGhg4anBXnxHmXgwDWdc/Id54dlH9wTbf89a90yn/+1U75m9/olD/9eb+8sHfcrwpWEicdqbvh5h/LlZ+9Wn547XXS0lr4aaJvfvt78uZbb/v+3vzjW+V3f7jXfd4u/+rf/ol88pLLZNPmrfLMs2vlW47EfdGRszfffkdOHK+Ta350g3zuC1+WH/7oejlRV+fr6Ozqklsc0briqqvl+9f8SI4eOy5PP7tG/t1/+HP5N//+P8ijjz/h9ZsEOv7lr38rn77ys3LjzbfKha7Ol199zQeM3/7+Hvn8l74iX/jy1+QtVy+B5fY7fyr/8t/8e/nohRfJe+s3+EeqP//Vr+ULX/qqfOmrX5e333lvISAp3njzLfmPf/kx147/6NvX2NQsd/7s575P9J/HWKxQfvUb35bPXP0F+dkvfunrx/bo7Nrrb5QfXHOdz2MFER1d+unPyI233Cq9iUdcCsr+1KWflutuvFkuv/IqeeDBh32b6uob5Efu2vHjJ5y+p305l11xldxw0y3y/R9c6+0A3n7nXbnyc5/3ur3muhsc2f29X7W8+dbbHTl+1t/zwa7dvv30ZdoF24cefVyucu37wpe/Kutcf9M6WCpKJYAQu9MTg9JwulVeOfGe3LH1Xvnaulvki6/dIDes/5U8cfBl2d99TE45Itg92m+WkZmUAHZ2en9gIokEcGVA3wHk8S+7WAGTPmONpERKSViSdGBbJTKMS43VSmSSpIOYomUqkbEIE1Aio4QJEAu5DzKj44iyqYPrFmHTtoOziMw8tEzKSJZJHaQ0YUr3CT1o+5VIWX1KksCk7rRMPrV+bTv3J0mglqm6A5SfLBNon5Jlav1Wn7hX2w4oizIte+jO5lsiAYw4V9CggsPiqDgmjlsOAWw/PSO/eGtY/tFNPZ70/S1H+v7r73T59He+1SV/42ud8ne/3SWfefC0bG84MziWEww0JRPbd+yUH91wkyM0P/L9u++BB+Uzn/uC/PI3v5WLLvu0f7dq5we75CMf/5Tcdfcv/arVz3/5a08IWdnas2+fPP/iy07uIf9o95vf+Z5874fXyJALVjc6snS1I2wQme/+4Ie+3H3798tXv/4tT+Qam5rmW3QGTz79rPzFX35c1j73giOIT8qf/scPy2vr3vCPS3/281/Kjp0fyCOPPS4f/cSn5PCRo7Jn7z658OLL5BZHhk45u+zcucu17zeya/ceufe+B+TCiy71RCuJru5u307ac+DQIenp7fX//suPf1J+f88fZcvWbf7vn979c080L//M5/xjXO67+LIr5Oovftmv3NEn9HC/I3TPPf+Ca+uH5Jk1a+drOYOf3v0L+Q+uH8+/8JJv+1848rll6/uyd/8BT0R37d4tL778ivzHD39UHn/qKa+DP/3zD8matc/7R9sf/8RFctsdP3V1rpdPXXK5fOPb35W+/j5PCiHL4F1Hfj/00U84kn3Ml3X5FZ+V9Rs2yhNPPe3bfKCIR+5ZKIUAevI3OSSv122Qv3zqi/J/+9n/IX/7zn8qf+OO/0X+q5/+U/mvf/bP5e/d9c/ln/zxY3LPrqf8r3p0jfaZZQVTJIArFgsE0BEBjjCxSEeSBKaJDDbG5lwjLmu8DpFAriWJjEWYgJKOJAmkfu5Llol/8TfXlcgk67dIIG3XMrX+JGGibCVMqg/yyulTUneUA7TtWqaOFSVhyfotewCtX+0BVHfLSQIL9Q/4n6G7KRLAiHMFBgQJZ8VJcUQGUCkEcHRyTu7ZMCr/xx298p99BeLXJX9vnvil099xBJB7/u8/6JZvPzMox7oKA3G50NrW5ojHR+Xr3/qO3P3LX8nXvvltufjyK/wL2uMT4+76d+Wf/PN/KWsdqQGsqrHCtfb5wrt4rIixmqWAUD3y6OPy05/9XC678ir58te+6QjbYb/y98576/09lLF561Y/sG/68W1y/U23+Otvv/uuX1W73REcZFhdu92RLUDg+NLXviFrnivUy0oYGzd+8KPr5E8cQfrAkbwJF3BYeXzokUf9PQSg1x1hvOvnv5Dv/OAa+dDHLpTNW7b5lcdrrr9BfvP7e3yAufsXv5LvfP8aLwNZvfqLX/EEDax94UW/EkdwAqxAQqJ27toln//yV+XxJ570199wxPaKz169sEmFMv7wx/tk2/YdcvOtt3lSus+RPFYAv/29H/h7wHddu371m9/5vE86Qrd12zavj5tuuXX+DvGrefQbMnfRpZc7Xytsavrpz+728hBAHo+zagg2bNrsySErl9ded6N8/JMXe6LOCifvOq57401/X6lYKgHsHOmVgclhefrQq/I//O7P5K/f/o/k79z1v8v/9Ls/lz97/LPy//ntf/AE8L+5+1/I37rzn3hS+Judj0r/Uh8HzxNAVpuZUJhA8BsmGp3UImoTvAN4/ZpxGXc2W3wu3WLSQQzmHq4p6cDGSmQsEpgkHcQeLVNJh0WYgF7XMgFt4xplKrnR+rmubU/WnyRM/JtrScJEO7TtWqZFApNlJkmgEibqt/qk9WuZWj/lJXWXJIFJ3SXtofVQvkJJYEh32ifK0T5p25P1a9uB9impO94R5beKr0u/A6jGSYNKtKI0qJgGhWTJy5MNgTztdBrlyNKekCz9yJMN9UdlS9Fjnix5IVnVRZZsnh7LkbWg/VFZ/ibxNw6KQ+OYJRHAiTn51tOD8ne/3Sl/7cudfrXPIn+a/ouvdcp/9tVO+bc/65OdTWcGx3KA3XisQj38yGOehEAa2OChtoas/M//5J/5R6Wgu7vHE6DnHDECEEBIHBh1g5VHyN/9wbV+JYvHlzw6ZTUQArhl2/v+PqC6hOTdcHOBAO7Zu1cefvQxefLpZ/xq1w9cWTziBDzK/Kojp9T7wksvexLKI10I2oc/9glfH+SN1bpHHnvCyzzsiCiPtd957z1P+j7+qYtl6/vbZdPmLX6lDkLFu4V33nW3I1k/4Gz6wruGX/6aPP9igQDSFkilBrX1Gzd5crX1/fc96VKy+aojmp/9wpe8PMHqs5//ktzjCOCRo8flscefdETxKecnjfKTn/7M60fByisEtEAAL3ME8H1Pgu+6+xfzd4h8+/s/8ATwWZcuv/KzPlCCu+7+uSeAvX29noyyygnYCMNjZlZkv+uILfL8e9eePXKivt4H3nKwVAI4MDkk6+o3yf/0+7+Qv+bI3z++5y/l97uekAM9x+VQzwn5k0c/44nff/vzfyl/847/Vf7VQ5fK241b5fTEkPSNnzbLNNM8ATzZ3u7HJZMXYxg/xtc0RhQTE/TeJLhWjKyFPFnaWI4syYLKWv0BWbJZugDk5cmGkO6P7gJ2LXZjzSYdSmQYi9ov/uZebM012pNFZLhfy1TCQoKocJ8SFq4pOQJc5xpxX/us9SfbmaxfyVGyfm070Pq17YC5hTIpQ+vhkzq4ruQoWabWzzUlTMn6rT5xP3JcU2JLPfybsaP1J+tJ1k/btUxsw316nWvF9omkZWIr7knWA7RPlK2YmZqQ69MEkErToFC212dtdec9HypJg0bqVncLHC9CfpKdKugA5YaOIKFMtuCrkZKgPCZm2maBvoSODKAfbN1HiRY4LiB0DAzKp14+00CPHDcQOgaG+pC1bEBd9DV0DIzaIGlgBX1Ex+zqs8BKVcgG6DbLBrQn6xiYtA1oO31X2x4/ftzXv5RdwP0jZ3S3pW5SPv3AKf+Yl0fAf899Jonf3/5ml/y1r3TKP7u9V+7dOLrwLiCbQybDsXVJYGB9xpEkNkKwerffkbXNW7Z6wvXCS6/IpZdf6d/Z44gUdj1j54sdufjFr3/r3z27yxFAXcHrd/lswvj5r37j/KRLvufICcSko6NTvv7N73hi0+xs9dgTT/r68DMeDX/xK1/3fpXGb373B0c2r5RjTs88Jv3wxy70beK9votduyj3BUfU/uTP/sI/5sX3r/zs5+W2n9zpAsuwXH/jzX5nLW3h8eeff/ijfqUwDdryjW9/b4EAsnqnK568T8cK2osvv+zbji6+7chia2ubJ5tshgGvvPa6fww74PSDL5LHe4ppQAA/8olP+sewkNaPf/IiefnV1z3x/pj7925H0h5xJPjCiy6Tvfv3u/buloucviGkkMQPfYRH4oXHwV/5+rc8wUOP7JC+1pFJ2ojePvzxT/r3LO/54/1yidMVj4PbTrbLW++8K31uPDQ3t/hH/tgT0okc72vyWN2KDUkshQBC4E6capYPP/l5+au3/n/9I943GjbL0NSIDE4N+9XBP3vsc/I37/xf5b905O9PHr1Strfvl6HJEWkZ6pAD3ceLXwV0BLClvc2/qnDk8GHvr/SFpDGLeMLYDcUTrmfFE2JC6BgY4glxOSueMN4s4P/EVyumE1ORZbK0QDwPHQODDLJM7Glwf9bcSFuRrdTcaB0DU8DZjx9Vn5SFv+LvSXtyL0l1R9v0ms6v3I8NuJZsE//mGnlaJjIqnxwLXMcWSftSJ9fIUx1Sjpap1/jU+rUeoGUm7U75WqZC+0R7k/Xk9Unvtfpk6U7bTtL6KSNZpkLL5FqyT9wb6lNad8in+6SLK8l7uY9ryX4u2gSSFFBQMI6G42glSVAZTmzJ0hgCgkWIANfJT3ZUgZIp1xp4gPYwSJIOpqAtyNJpCyiCIJRUugKjIJs0VBLIQWosWWSQTTqeAt3RXuq29Ihx8/TIYA7ZIE+PIRtQJrKWHikP2TwbWLpI24B2k7iXPCXh6HMpK4CPbBuVLz42IPvazvT1tf0T8me/7PcbP/7LrxfeBWTV77+/tltuenlI2k4V+jY4Piu3vTok1zzvvnWOL9ZjqdizZ59fWfrkxZfJpVd8xr/Dxiogjz4hTsPDI54U/eZ3v/f951Hjn/z5h/2mh1/99nd+BVB189TTz/r353ivD/nPfv6L3mcOHjrsV8UgiBCSdW8UVhQhJDzC/cmdPz1rcIOurm7/SJp3/CCQf/HRj8vrb7wpxx1RufKqq105V8iXvvoNvyuZTR+04Q/33if/5k/+zK+YQaro12WuT5DMj7h2bdy0eb70M+CRM0ezKAHk3udeKBBA+kQ/eX+Qx69fcUSrrq7e+w4kb2EF8PV1fgVQCSCrhrQlDd4BvOiSy+Vb3/m+f/R+zY+u9/6578ABRwAvdgRwr9cX72VCFCF5kD7eJ6QtvF/55x/6iN908yGnj+//sLCa+Mabb3s9QXjR8yc+dYlvJ+25/sZbnE0u9Hq/2dkKAki7P/+lrzpyfcI/uobwQhbZMBOKO4piCSDE7dTEoDx24EX5W3f+b/4R7xMHX5HhqVGf1+3KaBnskD997Cr5T275H+TfO/K3o+OAJ4etjvx9fd0t8q03bvMbRyCKVh1nJUcA+S3g+voGTzCIDcQAYgO6821fhngS0k9WPMmLy8TkUEzHn5BNjw8FdSJvxda8mJ41NxYT05drbtR3AHUXMO2hfsaC2hHQn5AeIlYH8C18A9ur3+IPaRIYdwFHnDPggCSck4BIIFInXQoB/O27I35V7x9e1yM3vzwsXYMFB9b3Av/Jrb3y93/QJVc9dFr2tRaC4ayLzWt2jcm/+Vmf/F+/0CEX3nPK37+cYAI5fuKEf3wGGGSQQA3+/f2n/CoDYFA2Nblv8Ew8rv9MQAp0BDEmnxVBiLIGbzZmUAfHtSgK95+U9sAKBu/U1dXX+9UVjkjRd+woG4LDTlvymCQA7eaXIHp7C6sL5CNPG2kLZDYN+samDkAbeMydntjQy4kTdQv1MIlBUJk8Ab7ACiry9Il/4xtp0G70wKpkfUPjAiGg3e0dnf5vfu6IDS1Hjh7zm1B4dA0JBZTf0tLqV+xu+vGt/tE1q7WAFVFWBukP78Fp8OSzwfko9ek12oYdJp196S/tpy/8m/ZnoVgCqJs4vr7ux/Jf3P4/y58//jlpGmx3ss6X3PVulw8B/BcPXiT//IFPyvb2ff5dweHpUbl39zPy1277R/LvHvm03zWsMpkptQkEXSYJYF6/IqoHCOC1T4+48TUo0wnCqZM+vqlxJNpx9YPxqjEp+QWELwW8IzozPREJYMS5A0GHhGMmCSDEaSkEkEe5PPJlhY/0v9/eKw9sGZWx+ce7jb0zsv7omW+4PCa+5I+n5b/6Zpf8ja93yl/9cqdc8cDpZSeAEbWDg4cOyVe/8S2/CnjFVZ/zj5whNWnw7iSreJPGKkslUSwBhOC1DXXKJ579mvxnt/9jue69X/hrSgy7x/qk/lSLfPONW/07f5A/rg9OjciDe9f6jSL/9L5PeGLIGYHJss2UIoCQh0gAVwYggNevGXMxdbjwU1/zkz42UxLIl68kGYhYfcDeuvrOmGUcY/ukP7BRiE0gi94BnP+MiFh24Hikcgkgq3y868fGDz4hdTz2/dCv++XlfWceDx3tnJZvPDUg/90PuvwGkL87v1GEf386EsBVjxN19fLSy6/6sxUHB+13vzgOh0fGs84vzyWKJoDunlZHADn2BQJ466bfezklgDzW5T2/E6ea/L36mHfQEcE1R96Qv/+Lfy3/6A8fkg0tO/yj5GTZZooEcMWi8EsgE95Oo44EJld+sFuSBOpKYMTqA2MVGysJxPa6EqhPL9xVmZoYK/6n4CIiykUlCKBu9mBF8D/9Yof8D9d3y675Xb6fuueU/JUvdcjf+uaZswEjAYyoBSxlBfDkcJdc/vx35T93BPAb626VztHCdb0H0sfj3eQ7fqPT4/4R8N+843+Tf3b/hfJBx0F/JIzmB1MkgCsWyU0gc86/sF/68Z+SwPgO4OoF4xQCmCaBi/1hTm5aOxYfAUecG6QJIEGIgLQcBJDExo//5zXd/ufgwJ/9ot+vDCbvIUUCGFFtLOUdQO67ecNvHAH8n/27fsf7G/3PvVn3k7i/b2JAvvTajfJ/ufn/LR956ku+niRpDKZ5Asj7j7wrFAngygEE8Lpn2aFaWN3DXulJH/th10gAVzd0FTC52os/sOCSfBxc9C5gdlfhSBYIEuxWsmSplJfHaYgFGsQuKmtJmk6Qxz0WcG7KVpabBOXRJpzdAn1BlvalQT+QpV8WUCCkxZJlYCFrDTD0iBzyViBlRQzZM8u0Z8D9tLccG6AvC+XYALuG9Kg2SOqRfnAv7dQjH5BfyjEwWQTwH/6oW7bWFfTHI2F2BSfvIdUCAUQP/G6u4QYR5wGKJYAkfv3jzYbN8t/9/F/J377zn/jHwAMTQ/73gNP38hiYDSDPHFkn/+BX/07+1h3/m9yx5V5/XEz6XjM5Ath0stVvhGlpbvbxhhhA0jHOJzEhFE+4HoonGhOWK54kQVuzTnZAlhhrgbhMsuJyXkyv5tyYtIFuAhkeHpLZ+TmROriH9mkbuGbpKGJ1AR/Bt0j8G+Cv6g9zM1Nyy/MTZxNAizDhLEzUTNjWAGHgcGSANbioWM+gs2Rx4ryzjhhgFtgGHzoHkLZknRnFbsZSz4xiJydJlZoEys06M4o6qdsagBgFWcsG1EVf6bOlR3QUsgF91DOjsmxg6ZFrWTZY6rld1E/f1bYnTpzw9S+FAP7qnRG/slcqAfwrX+70u4BHzjEBpN99/ad83+nrU2tfll43ASwHTrZ3yuGjJ0wdovOm5jY5dqJBxicW2zji3GMpBBBSx+dXX7tZ/vpt/0j+/i/+lfz8/Qed/ClP9ni3jzTk/g1ZfO7om/K/3PsR+au3/k/y7x65Qo71N/p70+WayRFAzgE8wjmAR4742E7sIWnMyosnxPqseEJMoFwLWfEEMoVsiGxlnQNIPEY2SZgU9KHccwBDcyOxD1mLtC7H3AiBVEAAWQFkF/CI66fOT7SRtidJYMTqBb6kfowPpEkgeaPOH8ZHB+WGNaPFvQOIE1oDC1Cw5aSAxpCnladBmeXIWkEGqKw1oAEDITQYkMmSpc48WWtAA2TL0WOWbJ4uqm0D/ibxN/rDKZkICJJLeQT87pEJ+cc39/jdvP9VggTmEUA9LPpvfqNL7lg3LJMzto0qhcnJKXng8Weks6tXTg8Myr0PPiF9RfY5C9s/2Cv3PvSEPPrkc3L/w09Je0fXfI7zR0c0Nmx+X+554HFf37PPv+q+YNgrKBHnDkshgKRTEwP+QOe/eOLz/pdA+B3gq1++zpO9zW27ZHPrLnmtfoNc++7d8g9//e/lrzjy94/v+bC81biluM0fmuZXANsckYKAQFwY44z/5DguN56EYmtWPNHYGpItJqZTv4VqxvTlisu6CYRHwMOOBBJfZ2cL+bwTyMaQ9BEx1cbY+HjtJqdfPjnmaSUBm4+O8sskhXGCjygJVD8lb3J8OG4CiTh3IGiRCKgEWwIYq52QwKUQQHC4fVq++XRhhy+kDiIYIoAQP3YKk8+11/e7gb2Mq38DQ8Pyyrp3ZM0Lr8l9jzwlO3ft8315452NMuLI1tTUtP/302tfke/fcLs84ohaXUOT3OfI2jPPvepknpaNW3f4skacPl567W1P6N5ev8WfT3f8RIO8/Prb8owjb48+uVZOdnR6MvnG2xuksblV1r2zwU3YhfMF1774mqxz1xU9vf3yu/sedaSzcG7gg489I/sOHPb/jqgelkoASazu7e06Ile88AP5uz/9Z/Kf3vo/yn/7838h/+u9H/XpH/zq38p/+uP/0f8iyJ8+9hl/LAzkL/4W8PmB5CaQWUcCBwaH3BfMIRmZcCTUzftjk7PSd3pYevoHZXjMxV93jV9GqkaadLx01LXngZfelRv+8ITcct/TNZduuvcp+fH9z0pDe69MOy5l9aPWEjYddcrFxv0DIzIxtZgELnxpcDHoxrgJJOJcIU0AeUTMJFMKAQQc7rzh+IRcfG/hp+D+ky92yP8rRQD/2lc6/Dt///z2XvnjxlEZnlj+Cayru1duves3smP3Pjl45Lj8+p6H5cChI55sHT52wpOzP9z/uBw9Xi+/++Mjsv/gUU/M7v71H+Xdjdv8o1tkmltPyouvvinPOiIJsXv0qec8MYQI/vSX90i9I40vvPKGPP3cK54AnqhrFA48hiT29Z+WHbv2yqNPPy8NTS3zLRNP/CCA5IOnn3tZ3tmwxf87onoohQCSIHRtQ13y4N7n5C+euFr+4W/+RP7eXf/cn/cHAfw/H7pM7tp2v5zobyr+1z+SaZ4Axl3AKw8QQM4B1JWfMccGDjUNyf7GETnWMSV1XbNyvHNaDjQNy+G2canvmfPXqpEaeufkeMeMfO93r8iHvvc7+dgP76259JHv/0E+ce19sulgjzT3i9mPmkvds1LfPSdHT07KvoYh6T51ZiWQcawkUN8RjQdBR5wzLDcBVPDt7JmdY/Kv7+qT/+Z7XbLpeIEA/p/u7//HD7vltleHpbX/zKOS5UZHZ7c8+PizMjr/ng8kbdO2nbLJkbfX31rvH8G++e4mT9oefmKtdHb2+EfA9z/ytPSfLrwf+eSal9z9O+X+R5+WlrbCL4kccsSQ1cLX3nzPlwOOOBL5yJNrFz0aYkXxoSfW+FVF3gdUMHGzOsnjXz5/cvfvZMu2D+ZzI6qFUgkgCTmIIMfDvNGwSR7Yu0b+uPsZeen4O1J3qsURvyHpLfadv3SKBHDFQjeB8PjPGUqmXMg77ojf7vph2dMwLEdOTjsCOOc/D5+c8v8+1jFblXSii3bMyLV/fEM+ed2DcsmNj9Rcuuj6h+Wymx+TDQd7HVkWsx81mToLn4daJ6Wjd8D7A2MXMI55F5SNQnNzM4s3gcx/RkQsO9IEsJxHwBY6B2bkgc2jcsAFOF7vu2f9qOycPxOwkoAAQtyUAD77wquybeceaXfX733oSfn9fY9JU3Or6++kv48VQ35fFgLY01d4iRsCuHX7Lv84WFfweFT70ONr5LW3NngSCFhhfOzp52ViskAAZ2dmZffeg26iLjz6efWN9/yj4iQmJic9mdy2Y7f8/v7H5Hhd43xORLVQDgHUxBExfvPH1IhPPCKmTOveolN8BLxiAQHkt4D5ma/xsVGZmJqThp45OXRyUvY6Akg62g4JZCWwuqmOVap2JYAPOML1cM2li65/yBHAR2WjI4ANvY5MG/2o1XS0Y8Z/nhqe9L8Kw1jWsct4Hh4akomxIbkxvQkkNMCZsBG0QHDgRdjlluUaedxjgeuUXYos7cmTVdachspaQCZLNksXKmu1CZQqyzVks/SYJUtelh7Jt5CW5W8SbaU9rDBA/paLACp4NGxrsDLgcS6PaN/duFU2bN4uv7rnIU8KASTvzl/8wemh8II6BOw9d19be6d/NNvVU/i9XYjfgUPH5K33NvlVwl17D8gDjz4j2x2RfOvdzfLcy+v8fXsPHvHXIZB79h+S7p5eWfvi6/L02pdln8t7+Ik1sn3XXuG3bHc5YojuZxxJbGk96Vcmn3v5DRlPrR5GnHssBwGsSJongGwCOdXf77+gMcbxI8atjuGsmMD1cuIJ48TCcsiG4nKWrMbWkCxyyFtQWUsXIEt2qXrUdwCnpibdBD8gpwdHpa5rxq8IHTk5JXvqh2Rf44j/d5ownOsUCWDlEiT/QPOY//fIxJzf9MNGS0ig+jAbhcZHhxZvArGOIEGII0jYZm85I0eEZG11Z7t6aJs8O83It44vYXBQLvdY4EiU0HEDrC41NjYGjy+hL/TJGnzooKGh4azjS5LgyACOG7ACEaSGeq3jBtAjRwaEjhtgaRZZDJUGddFXjpBZqg3oIzoOHTfAdfLTjxUBuqXc5HEDSdAe2mUFT2xKfyB4Cuqn72rb48ePe/su5RiYWgMrehC7F197y++yPXqifj5HZN1b6/0GDsX+Q0f949yT7V2ya99Bv+kD7Hb/7u075d/n27hluzy55kXZuXu/z2tsapUjx+r8vztdXXsPHJah4RHZvO0DTwDHxyfkzXc2+mNldu054O9j9XHbjl3eb9j1q4+iWYWMqD5qmQD6Y2COHJHDhw75uIIPkTRmEU8Yu6XGE2JCVjwhLlvxhNiWjidJEFeJr1ZMJ6Yiax0hQx+I58R1Ky7zzhSyoZieNTfSVmSteRWdLufcmNwEMj09Kb39g3KoecQTLR65Hm6rnZXASAArl7Dt7rohTwIhgAB/URKovjY3O734GBhr8CBAIGAAWI6KczOgLVkGCHkWqQFc1yCTBtdwcIvUAAYmA8watLQFWWvwAAIBCrFkCVLIWgEMIIe8pQtkkLUCGPfTXtptydLWkKzqMc8Glh6RpdxSbKB6XA4b0G4S99JHAh9Bl7qXcwXwXIN37u556AlPxBT0s6OrWx576vn4yDViEWqZADZzEHRDoyc2xBvGMbFBx7jGolA8QSYvnoTiclY8IWYgG4rLxcR0a7EAUGepMZ2+hmI6cRNZ+p1Gnh7z5kZkk8TyDAEstGNkbFIONLLqN7pA+Fj9gwAebBn3pDBJHM5lUgL4w3vXycevuU8+dd2DNZcuvPYBudgRwZX4CPhA87hf8e0bZN4u+AO+j4/jV3PzYyRuAok4ZyBAkgh8BFMmAZyR4LuSCSCHO7/65rsynAjkkEF26769frM5MUSc36j1R8C6CYQxmiSA0ZdrF4V3AEeczQpf1tkEcqx90q8G8ej32Px7YawEkmqBAP7ovjfl8psflStvfaLm0qd//LhcdftTK5IAsgkEks8mEPUHwLyrK4EQw7gJJOKcYbUSwIiIpWKlEEBWsCIBXBlIbgKZnBiXyWnxm0AOtk741aD9TaOeBCoRrG5yBNC1Y92uk/LqjhZ5bWdrzaVXd/DZJvuaxqSuimS5lHSss2DjvsFxvwkk+QSPlcAh5yNTEyNyUzwHMOJcIRLAiIgCIgGMWG7oI2DiKptABofHpb67sBrEit/uukFPAmtlJzCpqU+k2SU+ay1pu1Ya+cO+B1sm/L95B3DC+QOrfviFjl82Co2NDMRfAok4d4gEMCKigEgAI5YbyU0gkxNjfhPIkdYxTwAhA4dSK4FKGGJaXQkCiJ2xt24CYa6FBCZXAmenJ+X6Z0ciAYw4N0gTQF6u5iVmHDMSwIjzCTVNAE+eOQeQiSMSwJWBJAEErADubxj0GwL00a+SQD6r+Q5gTJVLfhdw/bDsdXbmHECFRQIXbQKxdkkx6NnJxEqNBQIFOzotWYIGx7VQsQW+ZZIPIUiDoEO57LCywI4WZAlQaXANWdpmgfZwXAF1pEE/OI7A2roP2JnFDiz6lgZKRpbPNNAjcshbgRTD0GZrlxt10d6QHtUGIT2iJ/RlAf2G9Kg2wE4WsvRIW9I2SBJAPfKB88Yam1siAYw4b1DLBLC5vU3qGxoWjk1JEkDf9jLiicbl5YonSTA/MU9ZcZmYSrxJTn5JEJdJVlzOi+lZcyNzCG2uxNxIXnJu1HcAJ+cPiecdwKNt4wtHguiqH+QvEsDVndgAAgHs7B1c8AegJFA3hiwigNYAwVE5JwmHswYIzs9ZcNYAwVGZ5BkkliyDjrObLNKD41MuhMkCgYJ2WQOE8pANDS4GJedGWUEKHXD+Uoh4cuYTyQpSDFrqtYIU/efYE+q2ghQBFVnLBtSFnuhzyAbo2dIjfSQvFOCwDWVbQYprtCkU4PAJbGDpEX9ANjlRUD99V9vW19dLv6u/wf27x31GrFzwSyj8AP2s4WMRZ6MmCeBoj7QPdUujixWcz3n06FEfP4k9JI1ZyxFPQnGZeEKMDMVlZENxGZIWiukQMWRDcRk55K24TH1ZsllzI/1ENiumlzo3+i/Pibmx8FNwhU0g01OTngDyDuB+R/5Y9YMUQA7i49/zI2FvCODQkCOBCR/CF/GRmanx4o+BweEswgMYNNZgVyBrDSxAmRaBU1BuKbIMKPKsgQUIElagAOXI0tYsWfKy9BjqDyhHthw9LpcN+CSpDAGVAOkDrAt0ja1t/r6IlQWse+R4nWzYst3/BvKW7R/IqfnfOI6wUYsEsHO0V1pPd8rx+gbp6+3z5IIvccQ6xj9Jx3Kl4nI5ssXE9BDIq1ZML0WPIG0DHgFfv2bckd0RGXaT/vDopN8FzG5byACbQPiMBHB1Jx4BH26bkhPu3/3zu4BZhMFfFGwMYRNIfAcw4pyBAEoiaBFscUi+jUAAe9036MPHj8upwMpARO2CXymB9PFLJoNDw3KivlHWb37f/1pJhA1HpWqKAHaO9XoCeKKtSZpbW/2EwRc0CCBEhDFLCpGgiOoDAnjjc4WdnuNjI34TyLGTE47wFYgBj4FZCdSfCVstiUfZ7Nht7j871fesrLP7lisVNoEM+0O/3XcAv/rHeCYlV5OnJ8cjAYw4twgRwIHTp+Vke7sjgSeku69PJlyeEsaYajMBbMjvFw8MnP0+2NYdu+Z/vs6WPd/TzOyM9E+clu6xPk8Eq5m6RvsLK39tjVLf1OgfSbIyDwFkwlACSLsjahdnbwKZ9b8FzCaQQ62Tnhiw8qckcLW8A0gfDjui896BHnl3X/dZaWfdsCmz2lNhE8iQ/8WXgdHCqjbjWEngmZXAufhLIBHnFkwiSgB5vMEKA+9NMuHwyAkSeOTECTl2os5NRk3S0NjkP9klHFNtpYbmZjl45Kise2f9okdVBw4f87+Cwj2W7Pme6hob5URjg9Q1NciJKqU6R/ZIJ1w6Vl8nDfO/78v7vkwUfDljsogEcGWAdwCve3bU2Wt+0p9y5Khl1G8CgfDpo19I4GohgA09ItuPD8pnb39KLr7h4UK68WG59MZH5MF1B6W+W87LzS77m0dlb92gdPUNLfgDc22aBEYCGHFOsbAC4iYVfceFF7RZBWTi6e/v85tkWlvbpBHi1+AmqnqX6up9OjGfuO7zEtc01dUX8vlclOeSyqbzfH4xsq496Tyf764HZRfKXX5Z2uPzjbwzsovzSOSVJ9sor7/1nn/sq2AzyDsbtsgHu/dKoyM7ablatcGCHjNlF+eRfJvIN/IsWe7TlJRdlFyb+F1e2mblo/+QLDLIUsaifNcWbENqamqW9vYO6XPkj40HTBCs/jFJ6DtqkQDWPgqbQEb8S/+zbtLnp+Dqu2b8bwHrqh/kACK4Wt4DhABuOzYgl970iPzm+Z2y/kCnrNlYJ1+48xm579W95yUBpL+62stPwQ0PDy2836orgbwXyDmAiwggA90CgmeWDs8GEznsMks29DIrDUPWCi5cy5LlOvkhWcrVjqeRJUs/kKVfFtBDSBflyGbpMU8XKhvSRbk2KEePSVnuI5GnxI97dEMIq4BMQj2eBLYu7M4j6e5rEjvrSJ2dHWddJ7WfPCnNjjyymzCd1+nKQ46yF+W5xI4+doBbsrSlxeWFZNmxh2xHQJa8trYcWXdfOu+MbNuiPBLtoU+WLP1AF/QrnUdqbS3osRRZ5GjT4aPH5OXX35Y9+w/JsboGeXfjVnln/SZHLJrMcrFZtg0KugjZgLzybGDrsc2V6WWNNlMeeSezbBCQLUaPJCsvU9bV5fUYkPW+7GTTeuzqKnwiRx7v3/LYl3HHlzBW5BmXulLAWNVxq2OYMVtqPEnHhCSy4kmxshYqFZcBdZYju1x6LKwAjvkJf8Sl0fFpvwnkSPu0P/wZEsgvgqwW8kdSAnj5LY/JS9uaZdCpkl/B+OavXpQ/vnJ+EkDsy2Ng/t172s2xg4WNluor+A0EcHx0aPE7gEzEaeC8GqAsZ2TS5syo0FZ3JgJWdSxZAg/5NCoNBhXlco8FyiQoW4OP8pBNbpNPwgdAF7StYAIx4XgSCIkFgibB1QomKLrBfSPnMw30SJ1MElZAoD7abNmAuugrRMjSI8E7ZAP6iI5DRxXw2Id8K3jm2YD24BtWEFMbpI+QoQ0kdEE++uZe+o3eSOh3165dC3XTRtpPwu779u2T/fv3ezsm87gX/e/cudP3KZnHv2nvnj175NChQ/7fmqeydXV18sEHH/g+pWWx2+7du+Xw4cO+DWlZjs5Aln6lZfEZ+sPRGmlZ8o8cOeLLpt9pWa5RLuUn5TSfvuzdu9e3Ly1LP9AF/UrmaUKH6DItS3/QH7LoMy1LH6jzwIEDnqy3uTa++e4GeXLNi3LoyDEvQ3/x2XSbsFmWDU6cOJFpA8pFX5Ye0S96tGygejx27NhZcpqPXWmXJ0UpWcpDlrYl5TT/4MGDQRugA/RITEnmacryZfwfWT7TsuiOOqnb0iP1IWvZQMcB+uJvfewL+WMsogP6yt/JMQvy4gnXQ/GEa/SFeGWBdoXiCbEN2XQ8UaB7yL0V04kt+CR9TIM+4Bv02YrLyCCrukgib26krbSZGJeGxnT82JLVMRiaGzW+KQqbQCZcm2ZkdGRI+k4NyfGOKZcKK0L7GkfOWglcDekMAXxUHnnzkBxsHZX1+3vkG7984bwlgGz+2NswIsccCeSXQMbduIFbJEngxERgF7BFanBOCsCJLUdlYOLoliwDhDyLmADKpGxr4HFNjyKwoKtGliwdRdYKQkC/5Vr9IfggG/pWhxzyliwyyFoBjPsJJrTbkqWtyFoBjPvR47m2AeXl2YA+LdUG9IE6aRc64x7qoC2USfAjODKZ6H0kyiMRdAn2+rcm7mESIegSWNP5TDyUS8BP5yHLJKKBNZ2vAZmJIp2HLNfJ5750vspSfjoPWdpDuyxZ2kJ/mGTSeST0gD7oW/I65aI/ZNEJfyfzSRAbkiWL/lSPlmzSBtjs6LET8t7GLWfJUn9arpo2oE15NsjSYyk2UF2EbIBcyAbqyyE9Zo0D2mrJkqc24B7GLzENGxIjGIuMOfRPHGOsJmPOcsSTUFzOiid5cbmYmG7FZUCdpcZ0+kq7LVliGrKhuIxsqXMjNkjG5eQmkLm5Gek/PSwHGln1cyTQEQNWhZIrgauBGEEA3z82KFf8+DG5+o6n5Wu/eEG+cvdaufzmR+X+1/aflwTQbwKpG/KEf2i84Dv4GL6UJIGcAxh3AUdUBQRLTQRHgqsSQZyVRFAlEZiTSQl48u9kysrLyy82Ly8/Ky8vfyl5eflZeXn5WXnpfOx1jLMAN23zE1PSbllyeflZeXn5S8nLy8/Ky8vPysvLz8rLy0/nJf/WhJ0gGiTGHolxyJiEZJB0nEbUNgrnAI45mxXI5vjkjBxsGnaEb9gTPsiBrgRyHuBqIEb0YX/zuDz+zlF5aN0BeeD1A/Kg+3z4jYPyxq6OhXvScqs5Laz21g1K9ym+mBRIoH6hIBbMzJPAuAkkoipIEkAmGSYcvpkkiSDfbjUpKYypNhN2q6tvlE1bt3tiEW1W+0nHlhI/bEhiHCbJX8TKgG4CGRlhJXPWbwKp65yWPQ3D/kgQHg1Chlgh0nfEVkOiT019sijV95yf5wCqjSGBbALBH3QsM+4hgcOOBM7NTsstz09EAhhRHSQJoCYlgkoGNUEKY6rdhO0am1pk6/YPfJCJNqv9lBxfjDfGXlz5W7nQY2DYBTw2OiLjkzwiLZyTBxlQEmiRhphWV2IVkNTdP+w3gYy4L+WMacBKID8FNzE2LDesGY2PgCOqizQRTE5ESUK4lJQll1fm+SablYqVBc0tbfL+zt1+NQm5ctp0vslmpUq2KZl0/JGU+EUCuHKgm0Cmp6fchD8opwZG/Arg8c7CihAEkKSPg2NanQmSz7uexx0BHBpjQ1BhrwSvezC2wdjYaPwpuIjaghLBZEpOSjHVbgItbe2y/YM9fkUp2m5lpPR40xSx8pDcBDIzM+V/Cu5Q84gcPTnjHwsWdoee/TjYIhAxreykm0AggewCnnPjHPLnH/0urATOydTEqFz3zPDZBJBv72kQENjJxs4xCxTKzjpLlsp095sFdl+xE41JIw2+peouNQuUSdnclwbl0SZeeLTAziz6xDffNOgHuwlRmgV2E7JDrqDIs8HjL+rlMw30yI485K0gy9IssryXkwZ10V7abUFtwKOdNOgjesIBLHC9VBvQHsq29EhbaBNts4A/oY+kHlUv6AAbqCzXkwm5pKxeB9iNHZ3oEyTz1B+xgSVLfdSrNkjm0Ud0Qbv1ejIfHdFfHQfJPPRIHj6blNN89Ji0QTIPPdImtUFalvYkx0EyL0+P+HFyHOh1gP7Qo46DpBwJuaQN2k52yM7d+/zfyFKvjgOVAWkbJMsEjNmQDdQf0VdSTvPx5eQ4SOZpTNBYlJbNsoHGhJAN6EuWDbL0qL6cZYMsX07GomS++rJlgzxfxgZJPSahsqXEE7VBVjwJxeVS4okCGyCrekwDHZK0/0kgg2woptNe6raAzZGt1NyYtEFhEwhjptCH0fEpvwuYI0H0nT8lgatlE0hMixO25r1PNoH0DhR8Fl9j3OAv+CSkENy0duzsdwA16CaBMIEkNEAolKMILCdnIBPANNCkwYAn3wo0OD7lhgINQZd2WQOEtiAbIoAECgaQFWgY6BzLEAo0DFqSJYtykbUCDf0nGISCFG2lzVag4X70FCKPBBHyLRsQLPSoiCwbWHrELlk2wCfok058SeTZgMBZrA1ot7adT+SSNkjmU1/SBsk89eWkDZL5BF1krUmTPqZtkMxHj/RXbZDMU19O2iCZT5lJGyTzKI82YQO9nsxHj9jAklU9qg2SsiR0mLSBXgfqy2niov+mzuRkfYYAzjmZ4aAeuZ++hogLvoyuQgSQvGQ8SeZznbItAsg12hQi4bQnGU+SebQFWfwjKaf56ss6DpJ5IV/WlOXLyCAb8mWNJ5Zsli8nbaDXktB4YsXlvHiiNsiKJyECmBVPsAGyobhcTDxRX06CPiCHvPpjEmkbJIEs7Q3pkX4mfTkJtUE5c2OSPOomEB7vuZb5TSCcA8jvwvIOIMRAVwLjCuDqTdiVo3/2ORLIJhD8Af/Ct/F/JYGOBRa/CYQBaQ0OwHVrwCrIsxwclCtrDXZFlixyIVlkstpUrmxIj3my5J1rG2ibsmRDugBZsuXqsRzZlWQDkCVbTT0mZdvaOz0B1Gt5/ak1PSIb0gXIkk3rIoli9BjSRSVlyQvJlqvHkKy2KUu2HD1WS7YcG2TpYimyEMAfPTP/gv/4mP8tYDaBHGqb9Kt+SgIt0lCtVN8j/iy/Wk4rlShD8vktYDaBjLkvL/gKPsUXGnxkcnxEblw7Ft8BjIiIKB9pAhgREXHuoLuAOeJjeGhABobGpL57Ro7NkwEOgK41Eri7YdSlkZpO/JTeCaPttZqwr3/E7/49MDItI84fWPXTJwGQQJ7QxE0gERERy4ZIACMiqoczu4Cn/U/B9fYPyOGWMUcICsSA3b+1QgLrunkUPS03Pvi2fPGnz8pX7n6u5tKXfrZWvvbz52Xz4T6/Emj1oxYTtsXOkMDRSfGHPvMKECRQX2OABHIMzKJNIPOfEREREUtCJIAREdVDchfw7MyU9J0ekv0N7AYd82fCQQ6UBFZ7EwgE8Gj7jPzw3nXy8Wv+KJ+67sGaSxde+4BcfMPDsvFgrzT0rjQCyC/ADEn/UOF9dL4UKAn0K4G8OjA3KzeuGY0HQUdERJSPSAAjIqoHfQeQH/oHoxPTcqBxeOFIkCQJJNUCAbz2j2/IJ697QC658eGaSxdd/5BcdvOjK44Akg61TsheRwA7ewcX/OEsEjhaeBy8aBNI6GVWWKO1wxSwI4mlRUuWFw/LkSXP2gUFuE6+9RIt5ZFn7UQDtId2hWTZJRN6AZcdXSRLlsmvGFkLfunetdmaQMvVI7J5esyyQUiPlbJBOXpU2RARydKj2iBLFyvNl5E9F768QABdnTMzYV8G5frySrNBnh6RtZBnA+SSNkhCfdmywbnQoyWresySzdIjsqXYYKm+nITKluLLaoMsPS6XDZQA8ksgU5MTfhfwiY6pwpEgjgwcaC6sBCoRrGaKBLDyCRLY2Tfo/WFi3rfxR0ggm0CmJ8fkpvRvAePoaeCALS0tfqu8NbjYrt7Y2OgHQhoMmqamJr/F3pJl+zz51uDDuSmXIzIsUGZzc7MZTCivoaHBt80CW/fZ2m8FBAZWfX29Z8oW2JrPFnwrIKBc6uUzDfRIndRtDWrqQ9ayAXXRV46LsPTIUQIhGxBI0DHHRViyXCffCkR5NqA9+IYVlPNswJEbIRugA2xgHRdBH9A/8pYekaFe67iIPF/mWAVk8YE01JdDNkBH6MryZfRDXui4iCxfxi60CRtbwJ9CNqAfyJbiy+gPWcuX6QO2S9pACSDd03Gw3PEEX8nyZY0npfhyJeMJsqGjT9A/dqhUPAn5cjHxJMuXS4kneb6cFU/wB2STR58kkRdPQjagD9WMJ+XMjdyjSBJAfglkaGRCGhO7gJMk0CIM5zJFAli5xCPgQ62TfhPIqaEJGXb+MOhigY5Hxsfw8JCMjQwu3gRiDQCckwBkBWRAwQySkCx5lhMDrlO2Jcs1ZK1AAmgPg9IaPAwuZK1gDhiQBAVLFgURPK0gBJALySJDvVYQArSXui1Z2oqsNRFwf5YNitFjng2y9BiyAX0p1QZZesyzQZYe82yQpcdibJClR2RL9eU8G2T5csgG6ADZc+HLyRVAlS3Fl5cjnlj9yfPlSsYTZCvhy1my5cQTdER+KfGkFn1ZZUvRY54NsvRYbjzJs0HSl/UdwMnJCU8A+04NytG28YVdwEoCk4+Dq5UiAaxc0ncAeczPJpCpeR8kqa/hy+Ojg3Jd3AUcERGxHIjvAEZEVA/JTSDTUxOeAPJLIAdbJjwxgBAoCeTxYC28A3jNvevkE9feLxfd8FDNpU9e96BcctMjK5IAcvg37wCeHil8WdIvIiyq6JeGudlpuWHNaCSAERER5SMSwIiI6kEfAU9PFyb94dEJTwAhfLrrV0lgrRDAH933pnzq+gflUke0ai2xA/jyWx5bke8A8qjfbwLpG1rwB32yklw5viX9DuD8Z0RERMSSEAlgRET1kHwHkLPf2ARy7OSEXw3SVT/IASSQVE0CqGln3ZBsPXpKth09XYOp0C7eoTzRZbe/FhN2PdZRIIGdvQPeH3gMDHQlcMilmekJuTkSwIiIiOVAJIAREdXDAgF0k/vI8JCMjE35TSAHWsY9AdSVv1rYBKKJA5Ybe2s71QJRXkrCvhyyzb/7Bsa8P5D03VlIIKSQdwDjL4FEREQsCyIBjIioHvQdwPHxMUcAB6Tv1JAcb5/0m0Agfvr+H4+Dk4QhptWVdMPPUfc5Min+CJgBSODQ0Fkk0NwFbO1IYrcS2/NDR1hQMMcYJHckKditxDEFoW3/vJTI9nsalAY7VcgLbfvnSAbKtnaFUR5tYrnTAkdBsHXfmqzoB8cCsDPMAsccsHXf2p3FTjJk+UwjT4/sYKPN1o4y6qK9tHupNqCP6Cl0hAX6zbMBdrKAXSnb2iGnNqBtFtAD+rBsgB+iR3RiAf2HjqFABllLj9yfpUdsTputcZDny/haJXyZa8X4smUD/AHZUnwZ/YV8GWC7pA2UAM66v5Gh3lJsUI4vVyue4Mt58STLlysZT0K+nGUD+omspUf6iB5LiSfqy1nxJM+Xz5d4slRf1p+CA5MTY/6n4DgI+nDblCcGkEAIIKlWHgHHtPzJbwKpK6z4Do0VxgL+hz8xrjW+8Qh4EQG0gq4GCxw1FCxwxlDAVke1ZLkeCro4OYMnFHSzgoUG7NDER7Bg0IeCBbKhYEGgIFkBW4NuKFgQoAgWlmyxwcLSY7HBYqk20IAdsgF9oU/LbQP0F7IBfUAO+VJskBWwiyUfpdqAeyxZyszz5byJz5ItxpezyAeyeeRDZS0CGPLlasSTPF+uVjwpx5eLiSehmF6peJJFpNUGIV/Oiid5esyygcaTYn05iUrHk1J8WW2AnRQQwOueHXN9KPR/cHjM/xScHgkC4WP1T98HjARwdSYeAe9rGpU9dYPS1T+84A/4L7EPn5ye96mi3wHEWS0nBVy3Bp2CQVWqbFa9lGsNWEVemyohWy1dcD2vP9WqN4QsPYJSZfP6g1y1dBGSRS6v3hCydAFKlc3TRVo2/Qg4rz9Zesyrt1TZrHqzdAHy2lQJ2Wrpgut5/Smn3hCKqTeELD2CUmXz+oNcObpYLlneAbz26RFH/Idkzk36bAI50jq+sAmER4MQBEhgJICrN2FXdlhz3mNH74D3B/UjvkTxpQESODcztfin4OY/IyIiIpaE+A5gRET1oJtA+JmvsdFhGZuYkYbuWdnfPOYJII8EWQlkhaiWNoLEVJmEjXtOjciQ84dhR/g0LrMSyLWJ0aF4DmBERMTyIBLAiIjqAQJ4/ZoxGR0dcRP+gPSfHpa6zmk56ogAR4IkSWCtr/5Zu4O5Zt0b09kJ4nf45JS38dD4rPsyMOpX/Xgl5MxK4JiMjQzEXcARERHLg0gAIyKqB90EwmPh8bERvwnkYNPIwpEgSgL1cXAtkkD/+NIRmDd2tcvL77fIS9uafeLfb+7u8Hm1Tl6rnfwu4Pph/8lPweEPvPuqj341Pk9Pjsl1zwxHAhgREVE+IgGMiKgeIICsABbeC5yVU4MjfhPI3gZIYOH9P0jg7rrBmn0HsL5b5GDrpHzjly/Klbc+Ll+8a418+Wdr3b+fkLue2uKPtKmLBDAzsQLISi9pcLSwmQqfYDOTrgTOzsfom9aOnf0OYCh4I2ztggLsFEsyyySomAqt3YCA3VG+QcYLuFwjz9pBBSgzS5Y2WbvYAH2hT4XBcjboB7LW7iuALIzakmV3VpYsctZONIAMstYOODVgrdogS4+l2KAcPaqspUeQpUe1QZYes2xAfpbsSvTlkB7TNlgggK695dig2r5syZbjy3k2QIfIWlA9hmSRC40D9WXLBrSzWjag3Cwb5OmxFBvk6THty0mU48tqg3Phy7oJhEfArnCZmJqVQ82jnvBBBjgeBHIACax1Avi5nzwttz+2QTYc6PSrgT/4w+ty26Mb/D2RAGYn7OpXAZ3Nu/rxvYLf4jP4uJJAmZtZvAkEZ04DwZaWFr/d3RpcbPtvbGw0BwGO39TU5LfnW7JsvSffGgQMdMpli70FymxubjYDAuU1NDQEz6pie31ra6s5qFFSfX29V5QFtvWTrEHNYKdePtNAj9RJ3dagpj5kLRtQF33luAJLjxznELIBQQgdh8654jr5VlDOswHtwTeswJpnA44xCNkAHWAD68gO+sC5XMhbekSGer2Tp5Dnyxy9gKw1GagNQr6MjtCV5cvohzz83ZLN8mXsQpuwsQX8KWQD+oFsli+jS8uX0R+yli/TB2yXtIESQLqn4yArnoR8OSue4CtZvqzxpBRfrmQ8QTZ0/Az6r2Q8yfLlvHiS5culxJM8X86KJ/gDsoxRC3nxJGQD+lCL8aSYuZF7FMlNIONjo44Azkl914zsbRzxJHCf+1QSyKdFHqqdlABedftT8uC6/TLsTNnkhuuND74jt0YCuKSEjbv6hpzfnvnygp8xFvCRyfFhuTG9CcRyRICQNaABzsjgsAYP5ZFnBVVAmZRt1auyVjAADIyQLG3JkiWYMCgtWQYmslYgAcghb8kig6wVzAHttQY0oK3IhvSYZ4M8PZZigzw90peQHs+FDSxU0wbIWv3hGnkhG1TTl0OyxegxaYP0CiCylh5BMXoM2YC8SvlytWyAfKk2OF/iSZ4ei7FBsb6cRKVtUIoeuUa5SVkIIOcAjrjrbAI5PTjqCeARRwQ4EoR3/yCBtfr+H0kJ4NV3PCN3P7NVdjeclg0He/0K4O2PbfT3RAKYnSD42BwbD4xOe3/gS4z6L77IKnHcBBIREbFsiO8ARkRUD7oJhPE3OjLkN4HwCJiNE5ACSGDycbBFHqqdlAB+/s5n5RM/ul8uu/lRudylj197n9zx+CZ/TySA2QmCD9HH5mwC4X0/niCQ9MvT3NysTI6PxE0gERERy4NIACMiqgcIIL8FDGZnp6V/YNhvAtnXOOrJAAliUMubQGgThHXdB+3ywtamsxIrgf6elExMZyfIva72Do0VVp6JyUoCF+KzI4E3pjeBzH9GRERELAmRAEZEVA+FdwB5HF14lD0+OeOPgeF3YVn9U3IAMaj1XwLhvb+W/rNTQ288B7CYhF0PtU56Eth9ilcICgSP1b80CSz6p+AiIiIishAJYERE9ZDcBDI5MS6T0+IPgt7TMOxX/SCBrAJCAmv5PcCYliF1zPoDvzt7B/37fvoOanIlkJ8LLPqn4Hjp1HoZVZGXF8ovptyVJmu98KvIk83Lq4RsMeVWSzaEPNlogzMotVywFD2mCWA59ZYqW0y51ZAtxx+r4cvFlLvSZFe7DZQA8rNfw0ODMjg87n8Kjl+FYNWPFSFIIAQwkr/VnXiMzufpYY5zGjxrI5Lf1OR8ZGLM+Ck4aycUghw1ENr2zw4Ttt9bO6GYDDjiIHT0Atvk2YJv7YRiBxV5oaMXKJOyrR1llEebQsdfsH2ePlk7yugHW/thyRbYts+2f2ulg11oyLJ7Kw10hxzyVkDBSLQ5ZAOOKQgdI0I/kbV29dFH9BQ6egH95tkgdPQC7aFdlh5pC20KHX+BP2EDS4/oAD2iEwscF0Gy9IjukcUWaaC7LF/G5nm+nDx6IQn15ZANsnwZ25TjyyEb0A9kl9uXQdqXlQDOOr0iQ71ZvlyJeFKML5cST9SXQzbI8mWNJ6X4cl48oc5qxBP0GIonXA/ZQH05xpPlnxsL7wBO+LyR4UHpOzUoR1rH/eHJ+ug3uRKYJg0xrY7E6u7+pjH/75GJOZl2/sCYwY/Vv/G98dGhxZtALGdDiMGBs4WcnMnAkqUi8ggooUBD2VbQJQgwuEKTF+0h+FnBgrYgG5q8CFIEm1DARtYa8AA5Bq0VLJBB1hrw9J9AQd2hQIOsFXTVBgSFLBtYelQb4ARZNrD0SHl5NqBPlh7zbIAOS7EBfSjHBvhMyJeZIJAN+XKWDdBvyAboljz0aMlSZp4NQpMX/hSyAb4U0iNAjyRLj0yayFoEgj6kfTlJAFW2HF/OiieV8uXVGE8sPRZrg1LiSTm+nBVP8ny5mHiS5cvViielzo0aTxTJTSAz05OeALIJ5EDz+AIxYAdwLW8Cian8BNnnvU8O/IYAAnyI8Yo/qq/NzU4vXgGc/1wEa2AoKDAvP4Q82bxys8pebbJZeaCcNpVabzn9WYmy5GXJltOmvHpDKKc/yymbfgRcTn/y8kPIk11Kf9JYbbJZeaCcNpVabzn9WYmyeeUuRVYfAU9OFr50jYxPyYFGR/jqC2QAcqAkMBLA1Z0Otoz7R/69A3zhKfgmX0IggXwxnJv3nbgJJCIiYlkQN4FERFQPSgB552t6alKm3DA83j7pCSBkAFIAOYAEskGgEgSwoUeksbewY7dWE2cNWm1fTelYR4EEdvQOCLvC9QsKK4GsLPsnGe5a0ZtAIiIiIrJwsqNLPtizPxLAiIgqYIEAssozPCjDo5PS2DMnB1sn/KofCVJQiff/TnQVPrcdPS2bD5+SLUdqNLm27TwxtKj9qy2pjfsGx70/JF99YCWQa1MTI3LT2rF4EHRERET52H/oqLy3adv8XxEREecS+g7gxMT4wiaQYycn/CYQVvwggKwE6uPg5UysJvILHb9+bqd8/s5n5Et3ranJ9MWfPivPb25Y1auAvAN4sGXC/5t3ACcnJvyqHyRQVwLZGDI2Mhh/CSQiImJ58P7O3fLaW+/O/xUREXEukdwEMjU5Lr2OAB5oHPKHAkMGIIEQQNJyvwOoBPCup7bIR394r3ziRw/IhTWWPnHtffLxa+6XtZvq/KNqqx+rIekmEGysm0DYQKUkUDE7M7n4t4CtnVuwRnYbhXbAaeEhWV48DO3cYmcVstZjI15yTTc6Ca5TtvWiLOUha+3cArQnJEs/2Mlm7WAE6AF9KJtOgmfsyFo7t7ifXTj+JUxDlqXZUvWoNgjpEdksPebZoBQ9qg1K0aPawNo9B9BjckdTEnk2ON98uRQbTDm5ju5uaWxtlbb2DmnryE6dPT2ya98B2bLjg/lrnWflL06d0tx2UlpcGnT1J5FlA/pYizZAj8iW6sulxhP1ZUu2nHhSrh5DsuX4ssrGeGLbIEkAwdDIuCeAScLHZyUJ4N3PbJNPXveAXHzjw3JJjaWLb3hILrr+IXluc/2qJoAkjvrBzqeGzowV9SfvM/N+vmgTiOWMOBvnILHt3BogbIFvbGw0AwKO39TU5LfKW7JsvW9ubjYDAgOOcrnHAmXSLmtQUx6ytM0CfeEcJWtgooOGhgY/OC1wdhPJGpgEA2QJJmmgR86E4lgAK8BhHNpsBRPqQk8cC2DpkaMg0HOWDTjqwJLl6ATKtgIruqVNlG+B9mADKziqDQieFtBDyAboIGQD+oD+OS/M0iMyWTbI8mXaSputcUA70VOWL6PnkC+Txz2WbJYvY5c8X8avLBvgD8jiWxYsX4aQ1TmZk67c0wODMjTsJlYm16zkdD3m2jnh2m/mp9KwS9TT4/yqvrnFk0LVSzHxpBxfrkQ8yfLlYuIJvlypeGL5crHxxPLlPBtwPWQD9eWseFKqLxcTT9BnGvQBuVqMJ+TnxRNFehcwvwRytG18YRMIK4CQA8hfJICrmwDyDiAkkE0g6g+A8bdAAh0WEUDLEQEObAVGgDOSb8lyjTxrQAPKzJO1BjSgM9YkARiYebLWwAIER2StgAyQs4IboD5krUACaG+ebJYuzrUNitFjtEEBxdigUnoMyRajx6QNJqcmpcFNaBC6c4UZ178WN/l2O/IGoi+fgfpjLfryubZBnh6LsUE5eqyUDUrRo8om9QgBvPbpwk/BsQsYAsgvgexvGfMEkHcAIYGV2QQSCWAtJd77xM49pwubgpL+yRjxPjI5JjfFY2AiIiIUXT09jojZK2SVBBN0oyOeockwIiIiGzwCvn7NuCOGIzI8NOB3AUMA9UgQ3QTC6l+aMJSbIgGsncQ7gIfmj/kZHp+V8dHCKxnJL3tsFBobGVj8DuD8Z0RExHkGVjh4N2/wHK7+JdFyst0/Go6IiFg6IIA3PjfuVwfHx0ekt39QjrIL2BFAiIEeDqyPgyvxCPiup7bObwK5Xy6ssVTYBHLfqt8EwjmPamP3HYDlYr9aDAlMrgTOTI1HAhgREVEAq3DtXV0yGngEV2mw6SS9ISQiIqI4nL0JZE5OD47K/oZB0SNBeCSoJLAS7wCSfvXcDvnCT5+VL9/9nHylxtKXf7bWHwXz/JbVfQwMdt7bMOLtPDBSeKKirwykSWD8JZCIiAiPSAAjIlYueAfwumd5L7Aw6U9MzcnhltGFI0H03T/OAVxuAqhp69FTsvlwv30Icw0k2vZB/bDZ9tWSsCuPgfc1jkhn3+CCPyRJIGcDgqIJII+HQi/BUjCTB58WipENgbxyZLPaVI5sXpuqJRtCObJ5bSpHNq9N1ZINgbxKyHI9TzarPyHZpeiC+4ohgJRVSnL/my/BhhJA7i22zWmobAjklSOb1aZyZPPaVC3ZEMgrRzarTeXI5rWpWrIhkLdcsoVNICPCT8HNzkz7n4Kr75qRffNHgui7fxBBJYPLnXi0yk/B1XI6H34KjgQJ7O7niKnBs96thgSyCWR2enIxAbR2YOFkHFUQ2q4Oo2QrvCWLk7Ktn+MZLHCsAvnWLioaTbmhIwMok+371ovjlMcW+tARJPSFPlm70egHW+xDxzaw5Z8jB6zByXED1GsdGYDuOGqAow6sQc8RBchioDS4n76Gjl6gn+jK2gVHH9Fx6PgL9Eu+tSNQbRA6/oL2hI5eUBvgHxbQQ+j4C3SADaxjGwD6xw6WHtE99VrH6aC7LF/G5shm+TJ9toCOsmyQ5cvYJuTL2IU2leLLtAXZPF9Gj+zGzSOAnA9Y39gsBw8fk0NHjhefjp6Qvn7bhxQQQH88jGsruiolnhTjy5WMJ5Yv0w9ks3xZbZBGrcYT8kLxhOshG6gvZ8WTPF8uNZ7k2aBa8WS55sbCCuCYa++QjLg0Oj7tCBmrQTN+1U9JYKXIX0y1kbDvkZPTfiVwcGxGRp3/4oc6pvDTMTcezE0g1qBFgIHJwLOcnAHCALACJwOKvNAExICkbGvAM0AY1FbwA7SHwWMNeNqCrBX8AIOLQGUNeAYcstagBQw6kiWLDLLWoEV3tJfgaumRtiJr2YC6SrUB+iEvFPywTcgGXMuyAX2phg2QQ97SRTk2IMjn2SDLl9FzyJfJy/Jlys7SozUBAfQQsgH9yNKj+jK6QD6PAE5MTMr7O/fIG+9slDff3ezSpqLSW+9tkZa29vlSbEAAOSMQfwn5MjaolC9XK56oL1uy1Y4nWb5cjg1CvpwVT/J8uRgbWIQW1Go8CelRbZD05cImkAlf7ujIkPSdGpLjHVMuzXlSoIcD60pgTKszsQmEdwBZAWQTCP6An+BnGlPx1amJ0eJ/Cs5y7iSy8mtVNgvVatP5JpuFSslWsj8rTZY8zS+WAO7YtU/e2bBVmltOSld3r3R2ZSSXv2vfQUcAN0vryY75Umwk3wEstT+gWrJZqJRsJfuzEmWzUK02nSvZ5CaQubkZ6T897H8J5HCbI4GOGEAIlAQu9y7gmGonQfb31A/7Y3+GxgpfpJIk8MwXijm5ae1Y3AQSERFRPAHc/sFeeXfjttx3BRVHT9TLG+9uWhIBjIiIWBoK5wCOucm+MOmPT87IwSbO/iscAK3kABLIbuBIAFdnwq6QfghgV//wgj8Q39MkMO4CjoiI8FgqARwZLdzX3HrSkbyGhb9PtnfK4aN1MjxSeFx65HhdJIARERWGbgIZGRmWudlZvwmkrnNa9jgiABng0aDuECVZ5CGm1ZOwN7uA8QdiO2AlkFcL2BgyNzsttzw/EQlgRERE6QRw247d8trbG6Snr/BC+q69B+Wl196R7p7CJoFIACMiKg/dBMLkPjY6LOOT7Mqdk8OOCHAkCI9+IQUWWai11HJKpPW0S3zO/7vJhRPr3qUmdgEvlJtIq2l3MBt/IPucAzjsCd+QJ3+AOD8y7PxjdFBuWDMaD4KOiIgonQB2dHZLU8tJGZt/wZ6fkmtobHXlFP4+cjw+Ao6IqDR0Ewjnvo0MD/p3AFkBPN5ZWPVjFZCkj4NrMekK5SvbW2TNpjqX6n1a69J7+3sK96RklpIof3fDiDy3uWGhbNJzWxpkV/2wz7fkVlKC5POYn8f9bAKZmZ72j315/HtmJXBGJsaGF28CsXbe8bIpu8VCu77YWcVOwpAsu6uSu5WSYKca+dqwJLhGXmjnHTussmRpU2jHGO1h55ay4iToB7vCQjvGUGZo9xy7vZAN7RhDDnlLFpksPdLekB7VBtaOMfqInkI778qxAe0h39IjbaFNIT3iTyE9qg0sPQJ0mKVHZK2dd2qDSvgyvkZ+lg2q4ctZNkj6cjHHwCQJoD7izcNSVgCHXF8mMmygegzZoFLxRH05ZAP8KbQTtBhfrrV4Qj+RrUQ8odyseBLy5fMtnizVl5ObQGZnXH9PDfl3APVIkMLu0MLvAevjYItAVDOxCnewdUI+f+czcuGP7pNLb3xYLr3pEfnYD/8oP3lso7+Hn5xLyxWbGnpFXn6/xZX9wFm/E3zhdQ/Ii9saV8VPxEGgOfwbEshvAQPGDv6Nny6MrbkZuXHN6NmPgK2BiQDnEbGd3RogOCJntlnBEUflHCS2s1uyDCzOM7IGJoOGchlAFtgGHzpvioGHLMHEAmc+hc6bQgeNjY1eYRY4ayp03hQKRtYa1OiRs7dC500RSGizZQPqQk/02dIjOkLPVnCkj+RxXIEly/WQDdBtlg3wCWxgBbg8G3D2VsgGTC4hG9AH5EJnpyGTZYMsX6attDnky+gp5MtZNkA/5OHvlixlUrbly9iFNjHOLOBPofPr6Aey+JYF9WX0QlraCmDBT9s7u6Sxuc3VVeg3O4PrG1tKWgEcdmXqOLBsUElfrlY8UV9eLfFEfTnLBiFfZlyW6svFxBOLqNGHWowneXOjxhOFbgKZmyv0YXR8yu8C1iNBlBxAAmt1E0iBAE7K5+54Rn7x7DY50DwoW470yw//8Lrc/tgGf89yEMCrbn/S/yQc5b+wtVE+95On5EX3uVp+I5ijfiD6PadHF3yLcYEvexI4H2uK3gRCILAGJaBg8i0n5hp51qAElGkFGaCyVmAEyFqDA+TJEoisQA8Y1MhawQBQZ0iW+pC1dAGQDekxS1b7k2cDCyobbVBANW2QpcdSZdFDyAZL0SPll/IImHMB172zUXrnD3revfeQvLzuXenuKRCtpa4AFmOD6MsFVNOXz7UN8vRYjA2y9FgtGyyXHnUTyNgYhH/ObwLhHMDdjgjwDiDkT1cCa3sFcNIRtKfkgdf3y6BTK7/eceOD78htjy4fAfysI3ybDvf58jc7gnn1HU+vKgJ4rKNAAjt6B7w/qP/ha5BA/2XGfVGIm0AiIiI8mEyW9Ah4ngC2neyUugZW/Ap/d3T2yPG6Rhmdz4/vAEZEVB4QwB89U/iZr4nxUf9bwGwCOdQ26Vf9lARahKFW0sIK4E+edoRvvaw/0Clv7u6Qa+553f/NPcuzAviUPP7OUXlvf6c88e4xX9/qIoCFX3s5NTQhQ47wsQKuJJAvFmwUmhwflhvXjsVNIBEREUsngOPu38XgWF1DJIARERWGvgM4OTkhw0MDcnpw1P8W8DFHBFjx45EgJJB/pwlDrSQlgN/81UvymduekC/dtUa+/LO17t9Pyk+f2uJXtsolgK9ub5WrXHlf+Omz8kVXPp88En75/eZV8w7ggeZx/++RiTmZmpz0r03wKoiunrMxhF3ARf8SSERExOrGUgggvwTCe3/tnd1+FzCJf1t/79p7YMm/BBIREbE0JDeBTE9NSG//oBxuGXWEoHAkCLt/lQTW6kog7aRtb+w66QnZS9sKiVW7N3a1L/TFki0mIbvjxKDfZazl88nf248P1ORj8aUm9Iedec8TAgh4vQESmFwJnJudisfAREREFFAsAXx/517/+77r3t4gr7+Vn/jd4LfXF/dbwJEARkSUhjMEsDChD49OyP6GQdnfNLbwSFBJYK3/Egjv/TW5xKf+m9U7696lprruM+UmE9et+1daKhDAwm7v/sEz75DyrqquBDoW6K8t2gSi7DANXh5MvnCaBMuKPFcuVZZ8S5ZrWbJcJ98CsrQp9MJwtWSz+lOuHithA0BeJXRRadlSdVFJPYZkK62LYmT5dx4B5N66xhY5cPiYHDpyoqh08PBx/9l3yt5Bq1AC6H/F4Dy1QRp5sln9QaYcPVbCBpXURaVlrf6APF1USo9pWX0HcGKiMOlPuu4cOzmxcCRIkgSSVsNqV0x2YgPIXkcAO3sHF/wB6Epg4WSAObklTQCtIwNwRLbmZ211Z0t63lZ3Cxw3kLfVPXRsA2WGjm2gvKxjG/S4AWvQ04+sYxs4LiB0DAy7a7KODOC4gdCxDdSXdWwDfQ0d26BH8Vi7xugjOubYBgtZxw2g2ywb6NEZ2CoN2pJlg3KOzkD/oWMbijk6I+TLDI68Yxvos4WsozPUl5PHNiSBbfJ8uVJHZ+gxMMWcA1hJQAD1GJhQPFFfDsWTcnw5K54U48ulxpPkUTxp5MUT6qxGPEGPoXhSzFE8IV+mPSFfVhuEfLmYeGIdAwOqGU/KmRvPOgZmngCyCWRqcsITwIbuWTnQMu5Xg5QEKhGMaXUnSCA/BTc0NHDWOMaf8JHpiVG5ae3Y2QTQGng4No7GQLCcnOfKDHpr4DFAkLUGD+A6+RaZ4hrlWgEMEOAYJJYs/UDWGniAgUkwtwY8QYpBaQ08gFxIFkVTrzWJoDvaS7stPdJWZC0bqB6zbEC+ZQPVYyk2oLw8GxDMLV0UY4OQbJ4NkEPe0kU5NqCfeTYI6VFtkOXL3GMBu+bZIEuP9CmkR2StiRyoL6ML6q42ARxy+tFxkBVPQnos15crFU+QzfNlS7ba8cTSBdcoNzQOyvFltUEpvpwXT0J6BLUYT7J8WW2QHAf6CHh8fMxvAhkcHvcEUI8E2V03KAeax2r2/b+Ylidh30Otk/4XU04NTzpfGJRB59vJ+MPGkLGRgbgJJCIiogAmlWoTwPgOYEREaUi+Azg54Yhn/6AcbRv3BBBiwHt/yZXAJGmIafUk3QTCY35+Cg6yxxcUUvLL08z0hFz/7EgkgBEREZEARkSsZCR3AUMCB4bG/CaQg80TnhhA+pQEsiIY3wFcnQkCyOHfvAN4eriwas3qNQSQVe7kSmDRvwQSERGxusE7gCc7Oxd+4u1cA/IZCWBERGnQdwCnpuYn/ek5OdI65jeBQPx01Y9/1woBZPdtU19tp5VIlHnv028C6RtaeP1ASSCJ31sHkQBGREQsAAJ46rT9kn2l0djaKmOB97siIiKyoT8Fx688zExP+U0g9d2zsr95zK/6QfwgB7WyEYQDqrcdG5CNB/tk06HaSxvnPw+18bN5dh9qMUFYeeyPvTt7B7w/6PurSgL5dZCZqYlIACMiIs7g1MCANLa0+qNYziWot6GlxXyRPiIiIh8QwOvXjMnIyLB/8X9kbMr/FNxRR/bY/MEmkORKYDVTXfecHGmflmvuXScXXf+QXHbzozWXLrnxEfn0LY/JxgO9y3YG4blI2Nf/1rP7d9/AmCd7pORKIKSQXwJZ9A6gMsUkdKcTz48tFLPTiZ1hFtjFhKy14093OpWz2yxvx5+1Y4x+sAM1tFON3X6h3WY8X0fW2qmGHkvdbUZdutvMQjk2QL95NsjbvRrSY5YN0EPWjr+QHkFy92oayIR2EOf5cjE7J0M2UF8OyZJXji+HbJDny8gW68uzTj8t7R3SerJdpgx/WG5QL+TveH2DDM/3rxbjSTm+jGyeL2MDy5fz4on68rmOJ+SVEk/yfJky83x5tcWT5fJl3gG88bkJ16ZZGRt1NugflGPtk341CGIACUyuBFYzQQD5VQ8I4Cd+dL9cdMNDNZc+ed2DcslNj8jGgyuLAEL++O3no+5zxA19HvcyzkkaCwq7gA0CaE0UOCpnHYXOjGLgcF6RNbhwVPJwVkuWwcN5VNbgYtBw1hHB0QKDMuvMKGRDA5Nzmzj7yRpcBBjObgoNTM6LIlkTBQOSeq0Ahx45p4q6rSCFgZC1Ahx1oSf6bOkRHYVsQB/JI9hYslwPnX/GtSwb5J3blWUDzu0qxQb0AbnQ+WfIZNkgy5dpK7LWOFAbZPly1rld5HGPJUuZIT1SHm1inFnAn/ArS5Z+IBua6C1fnp11+u3qlrqmZjnp8vqc7a3U4/yG1O/+DYljEwePkBfyXZ+S9ydTr5Pr6umVZkc065tbnK3O+HxWPKmkL1cyniAbiifqy5WKJ1m+nBdPLF/OswG+nGeDkC8zLkv15bx4gqxF/ulDrcYT8vPiieLsTSB8sRqRA41s+Jj0xICVISWB1T4IWgngtX98wxGtB+SSGx+uuaQrkyuNAC5sAnEkcHC0MBaIX/giY0fH1uz0ZPG7gBm4VoACXLecFODYWbIMVitQKCjXGpQgS5Z6s2RRghVkADLIWoMSlCNLe60ABcrRI9fz9FiKDfL0GG1wBsXYoFJ6DMmWo8cJV2b3PInrdxN2OpHX7UgA5G/ATZIbt+2QV958x+ch0+XIRV9KRlOXk4U8jgQmxpANQJYNoi+fQaV9+VzboNJ6rDUbZOkCpPUIAbzu2TFXXqEtE1Ozcqh5RPbUDftNH5ADSCDHwFR7E0gkgJVL2Hifs/GeukHp6h9e8C++hEAA+UKjvh7fAYyIiFgW7N57UN5ev3n+r4iIiHMJ3QQyPDzkiOGMTLl5v65rRvY2OhI4v+qnBIGUJg7nMkUCWLlU2ARSIPodvQPeH/QLiq4E8g7g7MyU3PL8RCSAERER5aOlrV2279obXNGIiIioHCCArAAy4Y+ODMnYxIzfBMJmC8iAksBqkz9SJICVS9gX3R53nz2nRmRo0JHAoaGFuAwJZFPIxOiQ3BAPgo6IiFgOnOzokg9274sEMCKiCtBNIIy/0ZFB6Ts1JCc6phwpKKwI7ZtfCdTHwdVMSgB/eM/r8vFr/iifuu7BmksXXvuAXHzDw7JhBW4CwdbYfHhiTsZGC7+vzvuvGpvZGMJPwcVfAomIiFgWtLV3ys5IACMiqoLkJpDZ2WlPAA82DTtCMO0fC7I5QElgLWwCYWXy5ofek6vvfEa+9LO1NZe+8NM18pW7n5PNh/uloWeFbQKpG/K2Hh6f5WVTvwmq8Oj3zErg9OSYXJ/+LeBSXrClwHJekiXfktWXZEOy+pJslmxoMsqTpT8h2Sxd6AvDyZdzk8iTpU0h2SxdZNlAdVFJPVooR7ZcPZYqS1tDugDkZdmgVNlq2WA59ZgkgMhQb0iWvCwblOrLWTbIk62kDarhy8XYIEuPlbRBqXosVbZcPZYqm6ULQF45ekzKQgA5B5BjYMDYxLQcaBx2hG/YEb4p4TgYSNfehhH/SxHH/btiPDKsQnJEhc99zeOyt2nMJT5rMx1pn1lo70pIrKzucTbm3EceAeMrJHaxp1cCb0pvArGOIMHx2Y7ONnnLGTkygCM7Qlvd2QYf2ibPUQLkW0c+MKgol3ssUCZb4a1BT3mNjY3BIx/oC32yBh86aGho8MqywJEBHFVgBSKUS73WcQPokSMDOHbDCibUh6x13AB10VeOfFiqDegjOg4d+cAxBOQT5NJAt5SbPG4gCdpDu6wAqDYIHfmAHtCHZQN0gA2sIx/oA/rHDpYe+ZaTZYMsX6atyFrjIM+X0RG6yvNlSxbbhHwZu9CmPF+2bIA/IFuOL1vHl9CHtC8rAaR7vIeEbOjojEr5ssaTLF+uRjxBNnR8ifpyKfGEOvPiSciXs2yQ5cv0kbxS4wltyooneb5cajwJ2YA+1GI8WercqJtARkfdmHPl8UsgdZ0FEnigaViOdxQOhj7hrp3omJaG7jn/SyHVTE29Is2uC7Wc0JnV9lpN3sbOvqz+sgkEf8BP8TH8UEng3NzM4k0g1uBBkMBXEFrsqAxMBrQlS8XIWgMAMDDJt4IfspRrTQSA9jDArEFLW5C1Bg9gUKMIS5bBhaw1EQDkCCSWLgh6yFoBjPtpL3VbsrQ1T4/oy5JFv3l6zLOBpQvKQ7YSNkCHIRuge2SzbBDSYzE2CPlysTawkGWDYvQYskExvhyygfqyNRmDYnw5ZIO0LysB5BxBtZ+lR+5XPVr1Lkc8sXRRSV8uN56U48sh2VqOJyE9Ztkgz5eLiSeWHkGWHisdT/L0mGWDpC9DAPkt4MHBAf/e1/TMrEy4akfHZ6Tv9LB/JMy/IYYk8mJahcm56cTUnIxNzMrA0LAfEzrOSfwbH5kcG5Yb1ozGdwAjIiLKR3wHMCKietBdwCOOjDLB+5VAKUzuvBPIqvzI/BExEasXvAIwMV74YoCt+XKSJoF8QYibQCIiIpYNkQBGRFQPyV3A/B6wTvq6Isp1VjlJcYyuXmBvVsN1dZi/LRI4OT4i16U3gcx/RkRERCwJkQBGRFQPZ+8CPrPywyPmJAmEHIQewUesfGBrSD62t0gg/jA3C+mbk5vWjsWDoCMiIspHJIAREdVD4R3AEUfuCpO+rvglV34A7yOG3oWMWB3AvmkSiD8skEDnDxDA+EsgERERy4JIACMiqofkJhAO+gXJST/5ODhi9QOiH1oJxEemJkblxrVjZz8CtnZY8c2Brf3sSLKAY7F939rlRoVsc6cRFmgg+dY3EjpAHvdYYCmbowisHVaUR5vorAV2btEna7KiH2zrD+3OYvcV2++twcTSOrLJ3VkK9IgcetRvY0kgQ5stG1AXfaXdFrJsQB+RRV8WyrEBdqVsS49qA9pmAT1gA0uP6CCkR4ANSCE9Ims95sjzZWye5ctZNsDXQnpEP6X6MtfK8WVkl9uXAXJJGygBnHV/swpBvaF4Uo4vo8daiydZvqzxJMuX0aXly3nxRH3ZkkUmZINifBnZLF8OxROuZ9mAcrPiSciX1QarLZ4sly8rAeRnv7CB9hVdYk/qQXeWfiJWD7Cvjnl8Bx/B9kl/YKOQuQnEGiAUyDlJOKs1QAginIVkDRAqIy8U4Bh0nN1kBSkaz1lVoSDFwKNd1gChPGRDQYrBw7lRVrBHB5y/FAr2BAOSFaSQoV5rwqX/nDVF3dYgpK3IWjagLvREn7NsYOmRPpIXCnBqAytIcS3LBvgEfbL0mGcDAmPIBugvZAP6gBzylh5x+CwbZPmy2iDky+gp5MtMAiEb4KPkhSZryszz5dBEgT+FbIAvIRuacLN8mckCWWvCpQ9pXz5DAJEtjIOseJLny1nxpBK+XMl4gmwonqgvr5Z4gi/n2SDky1nxBH9ANuTLefEE2ZAv12I8UV/OiycK3QRC3vDQoK9bbU9dSgQiCVzdwLbYXv0Gf8D2SX/gHdGJsaHiN4FQSMhpuG4FTUWWLI5Zjqw12AEDCllrYIFyZJFD3oLKhpAlW44eK2UD7U+0QQFZuqi0DSqlxzzZENJ6TD4CzpMlr1p6zJItVY/l2iCpxyRUNoQs2XL0WGkbVEKPxciGUIs2yNIjSMsmN4FMT59Z+VHySXl8oeCaRc4jVgfwCchekgTio2l/4CDoG9eMxncAIyIiykd8BzAionrQR8CTk2dWfpQIpFcCrVXFiNUD7JsmgfiDrgSOz/tD3AQSERGxLIgEMCKielACODQ0KFPzK3xKAln5URLIalDWymLE6oBFArF94dqATE+OL/4t4PnPiIiIiCUhEsCIiOphgQC6CR4SqI95deUnSQIjVi+Srx0kSWDSH9goNDYyGH8JJCIiYnkQCWBERPWg7wAy6UMA05M+fysJDL1HGbHyAQGE8Fsk8MxK4JSMjxoEMPRCKoKhF0dZVsSpQrK8dKiNSQNZ8i2H5FqWLNezZGkT5VugLyFZ+pEnq4pMQ2VDk2CWHpEJ6ZF2lmqDcvVIXkgXWbKV1mNIVvW43DYA9DXLBuRXwgZ5eqyEDYrRY1J2gQC6OtllVo4eQ7KqxzwbhPRIXik2KEaPyFpQ2WL1mEQxsiFdZPkyfcySLcYG5fhypWxQjh5DsqrH5bYByNLjUn25sAu44IOTE+MLk762jXuVBIbaG7Hyga9hZ0igjhV8NO0PszNTckOaAFrb5CmQrewcF2E5I1vRGxsbvaOnwQBoamryRxVYsmyBJx9nToOGUi73WKBMjgqxnJnyGhoagucz0Re20VvBhO3+9fX1fqBYYNs/yQoIKJ16+UwDPVInRw5YAYH6kLVsQF30laMKLD1yZEDIBvQRHYeOKuAoCPKtAJhnA9qDb1hBLM8G6CFkA3SADXDYNOgDxyNwXISlR2So1zp2I8+XOf4CWevIhzwbZPky+iEvdOxGli9jF9qEjS3Ql5AN8Adks3wZXVq+jP6QtXyZPmC7pA2UANI9HQfLHU8q6cvlxJMsX8aXkLV8GaD/SsaTUnxZ44nly3k24HrIBnm+nBVP1JdDx/jkxZOQDehDNeNJqXMjefi7gkfA1z076vpf0B26xgdov/q0kkDLNhGrA/gSYwXbEzd0PGBzbO/9YaLgDzen3wG0ghAFUhhObDkqDoqjW7IMEGStYA60odbA4xrlWgMAMKjpjCVLp5G1gjlgMKMcqz8MEmStIASQQ96SpT5krSAEaC/ttmQxUEiPxdggT4+l2IC2IJtnA6tNKhsKNivNBuinUr6MXfNskKXHkA3yxgF6DNlA9RiyQVqPyRVAtV+pvhySzbNBMXosJZ6obIwn+fGkHF/OiifLEdOz9LjS4wkE8NqnR10/hmRmvq3k0z6S6o3PkA4jVgfwRfUfbK+xB3/kb94TnZ2eXEwA5z8jIiIiloT4DmBERPWgm0DY4QkJVMJqkcCI1Y8kCeSLkfoDJBACaL4DOP8ZERERsSREAhgRUT3wDuD1a8bdpF8ggelJX1eDQquvEasDrA7ril+IBE46HzB/Cm7+MyIiImJJiAQwIqJ60J+CA+OOBForP7oSGHodIWLlg/ibtnHycbD6w8zURCSAERERy4NIACMiqofCCiA7jhl/cwvvYlorgXEVcPWCVT99lzZJAi1/iO8ARkRELAsiAYyIqB4Km0BG3OQ/LHOzs54IWJM+7wRGAri6wWNg3RwYehw8Nzu9+KfgLMdAkK3qoa37VMQWfEuWhrBFPnR8Ag0k31qSxmEplwZbYBcUxwaoYydBecjSUQv0hT5ZkxX94EgAWLQFtudz1IG1OwsFI8tnGugROeT5dxrUR5uTO7sU1EVfQ3qkn8haL/nSR3SMviyg3zwbYCcLtId2WXqkLcjiHxbQAzaw9IgOsmzA8QehI1UIelk2yPJltUEpvowNyM+yQTV8GdlyfBl9WkAuaQMlgLPub95Dol7Ll7mfvpYST/J8uVLxRH05zwaWHvPiCTosNZ5Q50qKJ+rLWfEk5MvLEU9CvlyL8STPl8lL+nJyE8ioq1f1YJFAq58RqwvYP00CAf6Aj0yMDckNa5xvJx8Bh4IFAyAUaHAuzrEKBWzyGCCWLM5P2VagwVk5nykUsGkPg8saILQF2VDAJuCGiAsDnfOkQgEbuVCQQoZ6rUBD/xm0BBorSNFWZJfbBuiRPHSdZQNLj9glywb0BRtYk2aeDdBhKTagD2oDS484fZYNaG8o2DNYQjagnegp5MtMiOg55MvkcY8lS5l5NghNmvhyyAb0A9nQpIkeQzZAf1l6xJeTxCVJAHUcVCqeVMKXKxlPkF2J8STLl0M2KMeXs+JJni/nxZM8PdZaPFFfzosnCgggj4Ahf0zw+A79oWz6j03xCUu3EasLOgawv5JAtTv+MO78YUmbQCjQGhyA61lOhazl4ABZa8AqKPdcyyKT15+QLqopWwldgGrIlquLaslWQhegknosRzapi/Qj4FL1yPU82XOtR1Cq7FL1mEQ1ZSuhC1ApPZYjm6eLSsqWoguQ1qNuAkFudGTYEz4mf/7mPghsmgSSBzkkKWHnXggr15Jfwvg318jT/nKvXk+2FdJKfckvAdTJtSSh1fopU/uSrF/rAVpmUp+Uny6TdiBL0vopp9g+UZbKa5+oU69ZZWr9ad1l9YlrS+1Tsu1af7LtlMl92F3bTp6SQG37nPtvamJUrntmOG4CiYiIKB/xHcCIiOpBN4H46d1N+qwAQvh0JRBALJIkUIkJ1yAISjr45BoJQsF93I8c1yhHy4RUIEuejn0+F5EOV4bWT516DVLDSiZ5/A20/iSR0fqTq1nkaT+17ZRBm7mmfeJaqE/cwzWtXwkT17R+rmvbtU9cS+pOyRl5XCNpPYD6uY8yVXdaPynZJ63f6pPqDlAn19CB1kP96ClpD4sE4ic3rR2Lm0AiIiLKRySAERHVg24C4f1bxwYWERn+ThIJCIKSDoiEEpEkkeHvJOlIkpMksaQci3QoOTtDOs6QUIvIJEmgkiNtO9A+JYkM92s92naQJGdKpKw+aduT9SfLTNaP7pDP051VJtD6k2WiL+7lupapuuOath1on5K6U2Jp6S5tD9Xd9Lzu4i7giIiIZUEkgBER1UNyEwjveEEGdNJPEhmuKwlLExmuJUmHEhaSko6lkkC911rNShI2rb8YwsTfnsjMtz3ZpzRh0vbrdSVMJKtPWj8pSQK5J9n2tO60TIsEIpPXJ+7lerpPXEv2Seu3SCDt1Xooh2uWPbhu7gKe/4yIiIhYEiIBjIioHiCA1z3L+18QiQKRAUz6SmSShM0iMhZhSpJAZECSMCXLVCKTLDNJOihLYREZiwQqkVESBrQerqcJE/JJwpTXJ4sEKpEiqe7IS+suWX8eCUz2KYsEJnWn9XNvMSRQ265lqu4oM6k7jgrip+AW7QLWm9KgwmRlSdAZKrVk1SiqkDRoNPna4CRUNtnxJFRWlZoE5dGmpMMlQXtCsgUFhWXRA/rIklUDppGlR2RK1aPaIEuPlbBBlh7zbFCOHpEtRY+gkjYoVY8r1ZdJigUC6No7M5NtA9obsoH6cik2KMeXy7EBfQnJ5ulRbWChGBtUypeRzdJjKTZQPYZskOXLxdigVF9GthQ9gkrZYKm+rJtAZlydkMAk6aAMJTdKOrhO27mWJB20R4mMlo/O+Zt71Vfpk5aZtBnlpEmH2o57k/bT+pM64N+hMpOEiU/q4Lq2nfupJ9l2gH24lrye7JPaj/ZSZrJ+LZNryfppO/Lcr31K6k77RNu0TGS0T1p/skzVKfdrn8ijLdyb7lOy7YB8rtFeS3dJe0yMDS/eBIJgGtzc0tLit8proUmwXb2xsXHBMZKgwqamJr/F3pJl+zz51gCiM5TLUQUWKLO5ufkspSgor6GhwbfNAlv3OWZElZwEyq6vr/eKtMD2e7b2qzKTwHDUy2ca6JE6qVsNngT1IWvZgLroK8ccWHrkKIGQDXA0dMxRFZYs18lPDkJFng1oD76RHNSKPBtwxEHIBugAG+C4adAH9I8dLD0iQ704fBp5vszLyMjiA2moL4dsgI7QleXL6Ie80HERWb6MXWgTNraAP4VsQD+QTR4XkUSWL6M/ZC1fpg/YDhuqDZQA0j0dB6F4Ql9LiSf4SpYvazwpxZcrGU+QtXwZqC9XKp6EfLmYeJLly6XEkzxfzoon+AOyIV/OiychG9CHasaTcuZG7lFAAG9YW7iXL2D4DD6gpIO2ogeu0RftK/lc437VHXXSb5KOB2zC39yrbaIPlMU1ytYyuU55JPVrrT9ZJu3S+pP+wr+5ht5UN7QN2WTbtX6ua9u5Hznkk2O51D5RHkl1l+yTpTvarvVon8jjHu5Ve+h17kv3iXu5XkyftEwF+chq2wFlci3ZdpmbkRvXjJ79CFgbkQSFIKgKSkM7nCWbNG4SlEm+Jcs1yk12OAk6jeK0k0loh61AAlBmUkFJqFFU+Wkgl3TMJNShFpScAu1NOkASajhLVvWYZYM8PebZIEuPq9EGFpbDBlab8mxAe0q1AXoI2UD1GLIBegzZQPUYsgF1Jm2QXAHUekvVI7KWL6ts9OUC1JctWfXlLD1WwpeLsUFIj1k2yPPlcmyQ9uUkirWBhWLiSZ4eLftZNtB3ACcmCjalr8hDEOgbQA4dcY12a7toP9e4X/VL/dRB0jGjuiBpnymDspCnbG0v1ymPpPXQZ+5NlgloH/LJ/vBvbbvaRe2YbDv1UQfXte3cr2Um67H6pDYi6XhI9kl1R5lZukvWT9u1TO1T0h5Jf1GdUqalO/VZrZ97032iTG07IJ9rSXuo7ihzdr7tcRNIRETEsiC+AxgRUT0UdgG7L4NDjiAYpEOJFIRAyY2SDq4nSaCSjiSRUdKhhIV7kyRQ64F0UJ5eV9KhcYH6lEglCZvWn0cCQ4SJv7meJEzIJdsOskggdSVJYLpPybaHdLcUElhMn7g/2SfqT7Yd5JFArUftwSsCzhKRAEZERCwPIgGMiKgeBhwX+/HzY3KyZ0hGR1jNyiaBFpEhn2tJ0mERJghLksgAJSxKOpJEhntJGhssIsM1JVIWkUmSQNpWIDJnbwzhb64nCZP2KU2YrD7xd7pP2k8lUtp2rqnugEUCKVvrsUhgsk9af0h3yT5p/ek+cS2PBFLO6MiQ9J4akVtfGJeewcJ1EAlgRERESYgEMCKiephx8/gTW6bk2W2OVEwVSGD6cXBwd7AjMnNzZxOZ4QTpSK5mJQlTocyMnbQJIkN53K/xoUBkwruDlTCByckzK4FO0F+jbcgmSRifrG6lCRNyhbafvbrINV//Qp8mZWj+mtWngu7OJoHobna20Cfajo6HhhwJXSCB1koguuOa/TiYspMkkPrDfSqOBHK/lulaIM9vH5YHN0zKVCJcRwIYERFREiIBjIioLljN+clLk/Lc9lHpPTUsU+ODjhUpGZiR6YkhmRwbcASxQGR4DDg7OeKvzUyyyWWeIEyP+Wte3pEFj9kJmRpzZIlrc0o6pmV6vFCmzCiRmZWZieH5MtkEpqSD+od9GxbKpP6pQv2O/hQugZnxwrWFtoNJd23Q319oO5h27XGkMtl26nd/09Yz9TgJ3yfafoYE+j65/vh7F65PGX2aMfrkiKDTI2XSL+7xmG877Vrok9MX9fj6z7JHoUzaRnkF0KdBu0++TO3TnNNFof6z+zRe6M9C28GUv0Z7h8dnZd2+afnxCxPSfkrLL6BkAqjLi6WgUrJ55ZYjm4UoewbllhvTykigvaNLdu3Zv/CCsXVfTOFULZ2FUGoeqJZsFlabbCiPYz0e2jgpt70wJjevHZGb1g7LbS+Oy+2OGN7y/Ki7Niw3rRmSW13+7S9N+M/CtWH5scu/LXGNdMtzI/6+216cKJTn7uOTv7l+y3PzZbqEHPKUc6bMwjW9l7r51Gs8hjxTJu2krnEvT+Lf3MsnbeFerceX6eqiTOrkbxJ1ch/3007SrQtlnml7oU+Fdpp98nUV2pTuk9bjr7mk9WvbC2UOF675Mkf836R0PSTqOaOnEbnR9+lMP8/0yenO1cE1ZAryyT4t1h3Xb57X3W0vjMr96yelpe9s8gcuSC4dKlg2ZJt76AgLliHZQh+SbW9vD277Z2mS/OQypoLlTsoNbfunTI5ASC4fKyiPrf20zQJHQdAna7WCfnCcAMuuFjjmgOMKLFmWWam3sFR8NtAdcsifWYo9A+pDNrkkrOB++kq7s2yQXDZX0E50HDrCAv2GbIBuKRc7WaA9tEuXppOgLfSHpWsL+FPaBto3dIANVJbryYQekzbQ6wA9IssyOkjmqR6TNkjmo0dk1QbJPPVH2o2s5mk+eqS/Og6SeeiRPGxgyeLLlK02SOahR9pE+Uk5zacv2E/HQTJP9ajjIClL4ggKbJB8tEAC6A9ZHQdJORJy2ED12NDUIpu27vB/j48X6tVxoDJA/VFtkCwT4GvJcZDMUxvgd5Ys+kVWx0EyT2MC9yTlNJ8yQzbQmEDbknKaT1+S4yCZV4wvJ8eBXgchGwD6T53Y0JKlvjwbaExPJpAXT8gLxROuZ8UTbHCu4okCGyCrMSENdEhSX04CGWRDMZ06Q3MjbUX2XM+Nff2nZNfhdjnWPikNPXPS0D0r9S41dM/JsZMTsmlPq+ypOz1/zSXumb9vx+Ee2bKvXU50TM9fm1u470jrmJfd3zDor2mZKv/+oS7ZdqBD6jrnZefL5L6DTcOycXeL/9QytVz+3nagU7Y7eS/LtYQ89W3c3SqHWkbPKpPE/Vv2t8vOIz1S3zUzX6bKzsle109kabteU9nj7VOyed9J2XWs76wyVX7PiVOuv21ytG38TJnz9Rf02ObuOb1wrSBbaPsHR/ucHk+6OpwN5q9pOtI67nWxr37gzPV5edKOw91ej9gg3SZ0sGFXi9fJQrnap65Z2XawU953qc7pIlkm96H77QdaZGh4sS+DC6wBj6Pi5Diq5eQEi5CjMhgZ0Dp5pYGTU7ZF4nByytXJKw3aQ/C0ggVtQTZE4gg0ycCZBIOVwWUNeECwTxKIJJChXp28kqD/tFcnrzRoK7KhYIGedPJKAx2h5ywb6OSVBrYJ2YBrlbIBQTM0eaFHAieyXKP/mrif9qpsMo97NegSuJN5JNUFdVuy6AhZ7JfMI6EL/ELtl0zIYhs/aTr7pfPQBeVyTzJP8ykTXXFfOg9/QJa2JfM0v8fpgT7RvnSe6hGd8Hcyn4Tt1H7J69yL7lWPaVnVo46DE/VN8tZ7m+X1t96T9z/YI+0dnc5GHb7+pBxJxzV9tmygRDrLBvhdOg9ZrnsbuDiWzlMCQfnJPM3HJzoCNlACwThI5mnCF3UMJa8jm2cD9eU8GyTzSEkbWHqkrSE9UpfqkXuTCeBr6lNpaL2heIKP58WTEInLiifYD9kQiUvHkyTQAbJ8pkEfkEMe3aRBfVmytFf1mAb9RNaaV2kneip1bsQGobg8cPqU9Pd2uX8t1qPMTUlvt/PzcTsuDw30yen+bvevxXqcmx73stMTtg0GT/XI4GnOJlysx5mpMS/LpwXqHB6ADC/WxZRrK7JzM4v1yP39vZ0yMsQXksWyE2ND0tfT4Zq0eG6kj/0ub2zE/kIyNnzalx3SY59r08So7cu051QfNlisR9pCf+iXhSGnwwGnS0t2Vm0wafMT5JC3bIAMspMTtg2Cj4AZGJaTAq5bg06RJ2sNOkVWXjmy5JUjG+oPKFW2mP6UKot9yqk3hHJkydN8LYdPTWcmxBnf/mTiBVvNT17n8SOffiJOXE8m8sKy0wXZVJ6mTFl3PU+WT0uWMi3ZZH/83yldLEl2/u9k8nrMkeXflix5vDh+9ES9bNyyQ7p6et2ENCSHj52Q9ZvfdxNYYXJKy1EWsiE9nunP2XKafH9yZc/O0+Rl3WdZerT80cnm6TH5dzKFfFmTylqJvKDsQn9S1+eTlstYc//zn5Sjn+SFsCBnQOVDyMqrlix5of6AUmWLaVOpsln2KabeEMgrR7YausiTzdJVufWGUC1Z8kL9AVmycRNIxDkHDqkJQjEyOiI9rNDyjd4liEVnT89ZiWvW9UKeS15ucV4hPysvLOvz8mRLblM5suSde9nu3j452dkpr735npyeJ3uKrTt2yY7d+6S3/5QpW6h38fVCXrhen5cnW7IuypElr3hZ/o3+SPh6wd8Xp0Jev3QH8/tLk3XXevv7fWKMnRoonMnGrs3kBJI1kURERKwuRAIYcU7AxKKJCYdvaExAEIoTjY3S2Nom7V3dfrLs6I6pFhO2aWhulTff3SiTk2c/pjp4+Jhsen9ntF8oOd9ubW+XlpMnq54ampqlvrFJmt2YGxwqHNNx5gtZJIAREecLIgGMOCdQ4qfkj8dYkL+m1lbRA0wjVgY2bt0hdQ3N83+JjI2Py7ubtsrJDt5/iQiBd8t4R6x6iV9oKPxKA2e0dTpSWufI4LBrF2NSiaB+UYuIiFjdiAQw4pwgObEw0QwMDkpDS4v/HdmIlYXOrh55/a31su/gETle1yjrN2+T7bv2OhtH0hAC/g/x4kX/WkmQQFYmW9pOLloFjAQwImL14wIGvgW+rbKbzQK75ghmliyBg51s1g4qwO4oZAk0aWiQtHbFAq7nyVq7rwDt0R2madAPdlfRLwvoAX1YsqxkIcvjTAtZekSGNlNGGnl6LMYGldIj+SE9kpfWI/dqueyAo+yO7m5p74wrRisVA4NDjgAelR279klTS5vpDxFnoP5vEbFqJeJWb1+fNLovYoxLdrYydrGlJsAnba9GXEY2Ky6HZPPissZ0C8gga8VlcL7Njchm2WAlzo3l2CBLj+SXqsdq+PIFlgHoaIsLCmxJtxrEtv/GxkZTiXS0qanJb7O3ZNl6T77lyCiHcjkuwgJlNjc3m0qkvIaGBt82C2yh54wsSxHooL6+3gdFCxyfQLIcCqNSL8ZLAz1SJ3VbDkV9yFrGoy76ypEDlh4J1iEbYHR0zHERlizXybccOc8GtAffsJxRbcBkoqB+kvqU6qrN6YQNAxER5wN08kgSsFpIp9xY5VWMBjfmTxw/vjCBaQKMdWJCKfGEa4x54pWFrHhCbEvHkyQ4boVjb6yYTkxFlskvDfqAHPJWXEZG41QaGsdCcyNtRdaaVzWmlzM3co+FrLlRbVDq3IgsvmIha25Ef8jiU2nQ/0rNjVn8JG9uVBuUOjfSrmLnxiTK9eVS+Am4wFICoFJLCQBFUKBlOMpD1nJEQJnkW/VyjXItBQKUiENasrQF2RDTRRaHsGRRHLKWAgFyljMB6suSpb3WgAb0M0+PWTbI02MpNlA9LpcNuI+EfnQCRJ7HTv2n7MEQEbHawNioVQLIl7EOR2j63cRGzKCtJB3jfJYbT7LiciieaFwOyWpczpItJS5XOqavxLkxzwYWKqVHgJ6y5kZkQ3os1Qaqx0rYoBxfRo66Ldk8G8R3ACMqCpwS58cRGTg6wJrdt79IACPOFzAGapEAsiLBzmBWNRibTIxMFrTXmlAiIiJWDyIBjKgokgSQyYVvK0yEjc0t0hd4JBERsdpQ6wSwu6fHr15AAiMBjIg4PxAJYETFwASSJIBMLkwyvMsAAYwrgBHnC2qaALa1SVd3t1+Z51GSEsBIAiMiVjciAYyoGJQAMqHw+JcVQCWAHEYbCWDE+YJaJoDNKQLIl7W4ChgRsfoRJIA6eVvgOsEhhKzAsVJlQ3mgVFmuZ7WpHNm8Np0LWT71fgigPv5l4okEMOJ8AmOglgkgm0D4YsYYtQhg8t9p6BgPoVZlQ3kgq9wsWa5Xqz/Vkg3lgaxys2S5XinZvP6sRtkQLmDAp4EA25JDW6UJHGzhtnbwEDjYlhzaKs0WbfJ5HJgGJIFyQ9vVKZPtztYuHFaXkKVtFugLfSK4pUE/2NpPgLbA9m62/dO3NPjWjCyfaaA7trmzRd8yAvXRZlbF0uB++sq29KXagD6i49DRC1wn39oJpTZgYrBAe2iXpUdsimxyu7o6p5bLcTvsNoyPgFcmsPvRY8el042JiOLBGKhVAshP1B07flyOHTvm/04SQFBOPNG4nBVPQnHZiidJEFeJr1ZcZl4jLrMD0gLxnLhuxWVkkLXiMvEsa26krbQ5NDcSO0udG8mrxtyIbClzI/oLzY2gmnNjng3OxdyYRLm+TLL0qPzE0iO4wOooBdEgOmopGONQoSVLB3AKjBAaIJRtOSqKo9xQR2kPzmopmLYgG3I2ghQGshSMcVC+RYYBzkKyFIwM9VrORv9pL04VMg6y1oDnfvSYZQPyLT3SR8pF16EBgg0sPVIesqEBT1/ok6VHywbUT18olyDDIMAWy7kCODA4LB2drk2GjiOWFwSSz33hy/LIY0/MX1kMbP3CSy/L7j17569EMAYYU4y9UhPyxEbGF4l/l1sm8aXVTVon6uoWzmxjbJM0Zi1HPAnF5ax4QlxENjR5ZcV04jGyobiMHPJWXKa+LFmN6ZYusAmylZobQ3E5a27Ms0He3IhsyAa1Ojcia+lRbVCJuVFtYOmxHH6ivmzxE/qQ5ctZNgCZj4CzYFWmyJIlLys/r9xKyeblVareUvUIqtWmYmX1Xq4xeHBGAiSDjB+jL5cATkxMunKaZdPWnfL2+q2ye98h6eu3g8Jygv4MDQ37oNjjBt/p02e+WdPHEXedfuqA9YN/PmAphocLp+ATPBm8Ci8/P7mPjRUGrQbhgYGzvz3ST3Zv9vae/W22EGyo7+xv/JTT0dG56DpBmEeA1qSlwH4Exvb2DvnqN74tTz797HyO++br+tDV5YLmfPCqq6+Xj3z8k3Lr7Xf6fgI/gTkd9PXZq0irHQWfKY2sITfu/IJJiwmm3X1Z5csUOsenkuNqqQl5/wjYlenrcRMFtmIios06lpLj2kLWmMuSRe58kw2hmm1aibJZKFW23DatNNm4CSSiYlDHxAEhEBAQSA+TTjkEkLJOnuySbTt2y1vvbXbkb4u8s2Gr+/cWeW/T+3Lo6AkZmicelQCT8NVf/LJ8/ktflauu/qJ85BOflDffetvnPfzoY/LJSy6Xj37iU/Ls2uccuTslP7r+Rrn40k/LpZ/+jKx74y0/yX7/muvkiqs+J1/48lflL/7yY/Lo4094PT36+JNy0WWX+zKffnatnHQT/Te/83355MWX+fvfePMtXw8k8ad3/1w+8alL5MKLLpX7HnxogWR9/5ofyUWXXi6XXXHVwv3NzS3yw2uvl8uvvEou/8xn5aWXX/HE4fV1b8hnP/8l3zbqgbylcdrZCdmPfPxC+ea3vycfu/AieeHFl10bRuV39/xRPu3adenln5E7fvozaXL1/OTOu+Rf/Ot/K//xwx+V99ZvcLZql2udDj79mc/JZa6ex594OpNsrkZg21IIIMSOtGv3Xudbj8vNt94hX//29+Ur3/iu0+ktTv/3ycZNW6TfEeuxsVGzjKy0QADnVyfwCYsARkRErD5EAhhRMaQJIMSHSaZUAkhZXT298sHeA570kd7duO2sBBF805FCVgUbmlpkfGL5iQYrYR91BO2Gm34s+w4c8MTnU4708WjhfkfE/sNf/KU84iZryNTtjgx99RvfksNHjvrHppdefqUcOHRIvvL1bzoS+RXZu2+/PPDQw/Khj3xcjhw9Jg898pgnhA889IgcOHjIk7nvfO+HXv7Bhx/1K2u8r/XU08864neZ7Pxgl6x78035S0fO3n1vvdz2kzvlW9/5ni/r/gcfdkTw055E/vxXv/YErLmlVV5zpO++Bx6SI67Mj3/yEl8/P2H0q9/8zpeRBvdC+t7fvkPeeuddX9fzL7wkg4ND8uRTz8gHu/c4grJHPv6pi+XxJ5+SltY2Tz7vuvsXTv8TcujwEXf9aTlRVy9PP7NGPvzRC+XgocPzpZ8fKIUA6qrek0+vkc9+4Svui8WVcskVjmxfcbVceqVL7t8XXXaV//uXv/69tDjbslKYLicrJQlgYdU5EsCIiPMFkQBGVAzLSQAnJqfk4OFjnty98e6mRcQvnSCH697eKNt27vGPhZcTED1W5N54q7C6dvjIEfnIJz4lO3ftknvvf0Cuue5Gfx3yA+m6+LIr5OZbb5Nvf/+H8pnPfUG2bntfvvnd78vv7/mjv6+vv9+X9/Irr3mSB+kDPF5mdW/9hk3+bx4Bs4L38GOPyw03/1ju/sWv/HXAKhubMy5xBPOKz17t6rtdvu2I42VXfMbpulE2bNwkV37u8/KDa6/zJIxHz0z2d971M78CCHGkXVx77fU35Ctf+6Z817V3jyOo1914s/z0Zz/39WDLr3/rO/KUK0McN3jn3fVy0y23yg9/dL0nvhBXbP25L33FE1AA8WFlk3Igw3/2oY/Ijp0f+LzzBUslgJAxHvk+9OgTcvHlkLzPObt+0UyXXfl5Rw6vkNvu+Jkn+6yyW2VaKRLAiIjzF5EARlQMaQLIYz8mmFJXADu7umXn7v3B1T9NfhXw3c2yedsHUtfIj3MvfqG3HCgBXDf/ePXgoUPylx//pOzavdsTQB53AibYy6/8rPziV7/xhAtCN0r/3fUvf+0b8rs/3OvvU6L36quv+RVAJYBM5tSjBBA5COBjTzwpN958q19hUww4ssAP+rMS+Yc/3uffK6RcCDe6b2s76VceeUTNyuPXv/Vtf63VTf6bt26Vn/38l/KJT13sy+Yx7rvrN8jmzVv8auePbrhJ7vzZ3b4eiMHXvvkd/wh4+/Yd8rFPXixvvv2ONDU1O3L7eb9aCAG56vNf9H0Bv/7t7z35PH78hOvLRv94PBLAcIL4ocOX3BeCSz79WUfwrjaJXzJ9+qovyKcuvdI/EkZ+aGjQLDudlADy6gB1ht4BjIiIWH24gMGeBoOeIMLkYYF3uQgcIVkCC8HEAgSAfAJMGgQc8rjHgn6z5b40KI82EcAs0Bf6ZMnSD16Et3YcAb4ZE7ytYMjkiqz1ThP3I4e8JYsMbaaMNMqxgeqxWjZI6pF+cC99hATxsjn6WsouYDZcjIwW2kNZJzs65f2de/07f0kimHwP8Mjxer8ZA0xPz8ip04OufeGXYZeC7u4e+cRFl/gVLR7B3njzj+XST1/pCRek7rs/uNbrgnTHXXe7SfxK2bxli2zctFkef+ppv1rHStjnvvhlT4R+/bs/yF9+7EI5caJO/nj/g/5dPPSGHq+78Sb5kiOL23fs9GVf6OqF6D3//IvysQsvlrffec8/jv3iV77md93e6er7tCOdrOa9t2GDPOHq63Nk8Be//o3ccuvt0tDQKPf88X75uCNu77z7nnzjW9+Vlx3xrK9v8KuVt/7kjvlensEjjz3uHz2z2vecq+tP/vxDfrWSVcU/+9Bfyuvr3pR1b7wpf+qu/9ERYHzys1/4knznBz/0K0u333GnXHrFZ1z79ngy+G//9M8jAcxIjD125X71m9/zq3+Xf+YLi8iedQ2yeOXnviRb39/uyihuFZDxyk/BNTU3+yMsaKP6ro5xPrm3lHjCNerIiiehuKyyeTHdiq1ZcRnQz1BMRwbZ5Y7LyJaqR7VBOXG51LkR2eWeGwFy5/PcmEQ1fBlcYCmCDnB2DCsdVqEU2NTUZCqCjpLHi/KWLCSA940sZ6SRjW5y4x4LrEbQLksRlIcsSrbALkrO97GcAh1wBAIGsMCOO4Kj5RQonnpx5DTQI3VCeiynwFmQtRyZutATfbb0yApPyAb0kTy2h1uyXKdsyxnRLW1K7kxNAp/gKBfLoSwbUD99537adPz4cW/fpRDA5taTsuX9XdLY0rZgg8nJKf+OH6t8bAR5891NngDuPXDYkb0zu1x7+07Jjl37ZP/Bo6btSwE2ueSyK/0mEMgZBG+TI3jgoUcfk9vv/NmCfvrdWLn19jv8pozPXP0FeerZNW78nJZvfOd7/nEtmyo+efGlsvb5F7yuHnn8Cbn1tjsW+sluXlYUL7n8Cr9hZNPmQj3YjkfIPF6GuD359DO+TnTP4182nVz1eVff08/6e3kfkZVFVuJo91tvv+N958WXX/FE9NNXXS3X3XCzs22bLz8JdvKyo/dTl1zmHyFf/YUvyxtvvu3tffcvfyUXXXK5fwTM8TD3P/CQl3nO9YeNLGtfeFEand2//d3vO6JytVx73Q1+pRCCej6BMUCsYMxnJWLQqIsHrP7xWBdSd/lnPu/f/YPo8biXx8Fc08fCfOr1T1z0afnVb//gbTtolJ9O+AvnAPIaw+HDbuw4f8X3SBqz8uIJsT4UT7hGTKBcC1nxhD4gSzstEFdDMZ2Yiiw6T4M+EM+J61ZcxgbIhmI67WU+sXSBPpG15lWN6aXOjdggNDdSZmhuzLMBfaFPobkxywZZcyP6y7JBpebGLH6ivhyyQTlzo/ITy5fz+EkxvmzxE/qgvmzZIIufgAssJQCUZzkToIM4hiXLNWQtJQCukx+SpVxLCYD2WIMD4ETIWkoAGDQki0yWLHKWQwCVtZwYIBvSI/3M02OWDfL0mGcDC6rH5bAB7SBxnToZ1AQwBsFSHgG3tHX4lT6I3k5H5jq7euZz3OAYHZPDR+vkgz0HpL2ze/4qjj8iB48c9yuD697eIPsOHJGZWdu+SwWTFo9sn3/xJT84OY5Ggd5Cg5jHvwAdsWLHo2H+ndQnsulH1uhwyA1gyxco17IlpC19HbsMuoCQth/HzXA95MMK6qINlJMcK8nrSZ8b8+Om0GbyaBNHxXBPUv58ALothgByD+PjF7/+nSd0v/j17+WV19bJ9Tff5sng5770NXnokcfdF4YX5VvfvcYTw2985wfy7Nrn5bEnnnZE/ouOjN/oJ5QR5zNWHclEXfwWMASASRGfwQexj/pDXjzB9nnxJGTvpcSTNIqJ6SGfRq5aMT2kR66TH5KlXCu2gErrMSRbDT0C9BSSRY8h2TwbUGaeL68mG8R3ACMqBgYbCedjwOGkOGMpBHDhEa9//2+rJ3R9CXk9BHp8fEJO1DfKxi07/HuAhcfCm2X/oaPLdlA035jZFcvqWSng29jnv/QV+fkvfzN/JWK1gzFQLAFkheEGR/iuue4m92Wj8KVmz959ctXVzmd+9dv5yWtO3njzHfnYpy6Tl1993ZfPxPTr394jX/3md+XosWMy5saaVUcyMRb1HUD9MkE5TByUGZqAIyIiVj4iAYyoGNIEkG8qTDLlEED/6RLkbj3v+p1ocGUXvpHxbuDW7bvlLZeXfDdwuQkgfeGxJhNoKUAfPGrlEOeI8wNLIYA8wrrxltvlB9fe4I92cYNI3t+xUz5z9Zflzrt+4b9ETU5OeOL38U9d7lcDGVuQNwjiV77xHTl8+OiSCGDcBRwRcf4hEsCIiqFSBFDTm+9ukfWb3/cbPACPgXkXMHkPyRPAg44ABpbQIyIqjaUQQD5/8/t75aLLr/KEbs1zL8iPbrzFn/n3uS9+Te754wPy1NNr5Gvf+p5/TAzhe+KpZ+S+Bx+RKz77Bfn+NTcIO7yLfQQcCWBExPmJSAAjKoY0AVyOR8BJYsej4I1bdywQwF17D5618qcpEsCIaqNYAkhijLy27k1H+D7jdwFzvAtE78rPFXb7QgQ/deln/EYQrvHJ359y91948RXyi1/9zhG5wu5aq/xkShLA+Ag4IuL8QnATiAYAC8iQX4os17Mm4mrI5vWnHNmsNi2HbAhZsln9AaXKpvvDJwkZCCATG5PS+UgAqZufp6tmGyKqB8ZAsQQQ8sZxPfzkGyQwedxLVuLXQfjcuGmrJ3JW2emkBJDfF+ZvxqhFAPVvC1kxAZQrq21II0sWmUrJkhfqTzmyxejiXMvm9acc2aw2LYdsCJWSLUcX1ZINHgPD1uLQNmsfNJqbfZBJg8rYUcZ2agu84MxWaWvXCiSBvNA2a8qkbGv3D+XRJtpmgb7QJ4JbGvSDreHWNmvAS/+hbdZ8a0bW2maN7pBj16jlNEwItDlkA7aFh7arqw2snUP0ET2Fjgzgep4NQkcG0J7QdnXaQpuYSBS0nb5ouSdOnPD1L/UYGEhcmtwVSwD5RZC9+w87+9kDt1KgPo6qGRufkN7+U/LAY89Id69tk6VgdnbOv9P4riPEjc2t81fPYMKNDw7MLuimtPcUI5YXjIFiCSBxiPf3Xn39Dbnkis/61b802UsnVgY/eemV8ts//NHLL+UgaM4BPHL0qBw5csSPe+IcSWMWY52xW0o8IVYTE5YrniRBXA0dQUJMJS6jcwvskiauW3GZWI4ssT0N4lnW3EhbaXMtzY1qg6y5MWQD+oHscs+NoNS5kbrKnRvLsUGWL1N2NXw5dJxOli+DC+hUGigVBdFYS8EUhtNYsjQCRYQay3XKtpRE5yk31FjaQ7CxlERbkLUcBuAUGNdSEsZG1nIYgBxGt2QZIMhaDoPuaC91W3qkrchag1b1yMCzZDEs+Vl6LMUGXEN2OWxAu0n0hTw9bwpdLmUFkAOdDxw+5shc4aBnXQnMI4D8m8Sh0T29/a4t/rZlA/3ikOkQBgaG5Lf3PSKNTW2+r/c9/LR0dGEzQ3cBO84mGk19c478QfwedGTy1XXvyD0P8JvDTfN3OPs5mVfc9YefWCtPrXnJfa6R0wN28I44d8B2jDvGTzGJexn7jz/5jP8lEB4FQ/Is4sfxMKwU/vRnv/RjjLFrlWklJYCcE6mTDDHA+55rM8iLJ7QzL56E4jJtCMUT4iKyFpkCxJG8mG7FZUCdyFuxNS+mZ82NGtMrNTeGyBQ2qOTcGLJB1tzIfBrSIyh1buT+rLlR+UlIj6XaQH25EvykGF9ebn4Cgu8AWopNIi8/C1mylSo3D7UoW8k2nYt6+TcJx2QA4MA6OS2FAALKgMTt3FP4KbjCiqBNAEn8ZvDm93dJQzPfiu0zn0pF/+kBT7AefnKN/OoPD8lb726Sru4eefb5V+X04JAfbM8894o88uRz8t3rbpMHHntWTjiSds+DT3i5X9/zsLz8+tteN719/fLoU8/7cta++Lo/K3Df/sPy8OPPyqNO/rf3PizH6xpcmZPy4qtvSl1Dkz/8Wlf2nnt5nbz+9gb/b8AZib+779GF/MefeUE+cDqLqC7wXyYXfL/YxGQ/ODggr7/xlnyTM/8c0eNwaN4JJPFviOGXvvZtecIRRf9Tg26CscoKJSZgfQeQ9jFGmeiYxGizjufkuLaQlZ8nm4VKyZbTnzxUqt5KtSkPtSibV2616s1CLcrGTSARFQOOR0oTQCadpRJABatnrW0dsm3nHln3zkZZv2X7AgH8wBFAHveyM/goPwU3Yn9rLRdd3b1y5y//4IlZp/s3hGvP/oOebO07eFgam1rkgUefcZNqt9z/yNPS0NTqCdnPf3Ofa+MBL/+7+x7z8k+tfckfVM3B1WtefE3ecH2C3P7GkcT+/lN+tY9yIbHIcWgzaGvv9CTyoSfWSMf8WXEAQkl7TrZ3+b8feXKtI8Sb/b8jqodSCCAJGb7F81vLz6x5Tn7y07vlx7f/1KfbfnKXPPzYE3Lk6DE/rvTL1VJSkgAiT10WAYyIiFh9iAQwomKoBAFUQISO1zf6c/+0HAjgntRPwVUCEDsereove0DENm7bIdsdKX3ptbfkzXcLJJR38R56fI20d3T7NkEKT7lJFzy19mXZ6Mgr19o7CmTt2IkGv0L46pvveSII+E3jR596btESfuvJDnl53dvy4KOsLjbOXy3onLp//YeH/CrkT37+O3nftSuiuiiVAJL4STfGDT7AzwjyCIvHOjz6GZ8Y96t+PA6zZPNSkgCy4hgJYETE+YNIACMqhkoSQMXIyKibBCd8PQODQ8t22HMWeMx670NP+LrBE8++KDt27/O/O/z7+x+TX/z+AU/qJsYn5b5Hnpbunj7fNlYDe/oKL3E/ueYlT8zIP3ai3l/bsWuvPOIIIKuYrzkSCPg5u8eefn6BADI5v7dx28J7feve2uDJZBJO69LXf8pvFPnDA4+bG0Uizi3KIYDJRBkQNdJylBcJYETE+YtIACMqhjQBhMQwwSwnAawGeBfxzl/eI8+/8oZ/bPu7+x9d6AuPXH/+2/v8BMpEeu9DT8oLr7wpTc1t8vsHHpOu+V3AkMFDR044ErjbvxsI4ePeQ47w8Q7jcy+/4e/bd/CIPPj4s34FccPm7f7XTnhkfP/DT/uVRso5fOyEfwzMyh918rh4pyOkjzy5xh+MnbVRJeLcYLkI4HInJYD8FBwriZEARkScPwjuAiYwELAsECR4/BCSZUcK3yYtEGSQJcikQdAhj1UiC1ynbO5LQ2VpmwX6EtopQz/YvcMKlQV9vGIFQ3YpIZt+RAe4H7nQbiVkaHNopxPtzbOBpUf6iGyWHvNsENqthF1DeqS8tA3oB/eiYx5dsdUd+aUcA1Nr4L0/yBqEi53JPBJWrHtrvbw5//gWcIQNK328m1ff2OxXKwH/HhwqjJGDh495MsdGEcC7fjziBaz0sYI3OjYuBw4d9UQQnfKrJ7wrWNfQ7O/jmBnII7rm95C3bd/l77f8LuLcA7vUKgFkF3BDY6O0trT4NhIDSDrG+WRc10I8SYK20n7LxzWmW3EZaP8tWWSQDcXlrLmROYQ2r6a5EdnlnhsBctWaG8uxwWrxZRA8B5DjOjibxiqUTnKmjdUZlEQek70lS2OyztnhKAIUZYH3XkJnHeGgyKJECxyPEDoHEB00ugCIM1rgvKLQWUcYjnoth0KPnFcUOm8KoyFr2YC60BN9zrKBNTDpI3lsZ7dkuR6yAbrNswF9sgKcZQPqp+9q21LOAaw1nGzv9Kt5YwndYy9W4h587FlH+trnr0ZEFMAYIFZosK6VxFhtdbHt8JEjcuTwYR9X8GWSxqzliCeUayErnjC/IEs7LXD2WSimQ4iQtUgCfUAudHYa8wCyFtni/qy5EX0iG5ob0VOpcyM24B4LlBmaGymPNmXNjaFzAJmbkC1lbmRORNaaG+n/apwbsUGxc2MSxfiyZQP6oL5s2UD5SeiLQ/ARMAqwGgO4TocsBXItT9ZSLkCWcq2OABSbJ2s5E8B41uAAyJQqS1tDugC013IIkCW7HHqslg1Ulr9J6BU5HJjByeBeyY+AOd9vy/sf+FU5BTrh/L0PdscjVyIWgzFQqwSwxU3ETMaQC4gL8YExrPFwOeJJKLZmxRNksmSLienUb4E6V2JMX464nEYxeizFBpXSI8jTI7IWVqsNStVjfAcwomLA6Ug4rg4OvtEx6axkAhgRsVQwBmqVAOo7gKwSpAlgaOKIiIhY+YgEMKJiSBNAvokwyUQCGHG+odYJYNwFHBFx/iESwIiKIRLAiIgCIgGMiIioNUQCGFExpAmgPgJm4lnJm0AiIpaKWieA+giYL2mRAEZEnB+4IDTANQhY0Al9uWW5Rl5Ilut5spRvQWUt5MnSH5KFcmQrpUeQJVuMHvNkLaR1wd8kbSsTjE48kQBGnE9gDNQyAWzv6PAbtPiCprGDNmuMKCYm6L1JaEzIkg3FR5XVeJJGObLIhWQ1Xln9AaofC3myWbrIktX+ZOkxT/Zc67Ec2Tw9IleqDUqV1f7k2cBCni4qZYM8XQSPgWFXWKlb3dlmzbZ0C2yhJt/aLUNDKTdrqztbtK3dMpSXtc2avoS2utOPrGNgdIu2ZXgemyBrbXVHj8iFtrpnHTdAXXlb3ZHlG3sa9FG3ultAvyEboFvKXa6t7rRdnZA6jx8/7stubG6Rzm7bRyKKA2f/8ZvHnBMYCgCrFfzSifbd8sVaA2Og1ggg8Yex2ODiDMczHZ4/BgZfIv5ozMqLJ1yvZDyhrRayji8hphKX0bkFji4JHQODTFZMz5obaSttzjq+pNS5kbxy5kZsa4G+YANLj8yNWTYoZm4M2aBSc6Pyk6y5MWSDcudG2lXs3JhEMb4c4id5x9SFfBlcYFWIUukkwpaCcW4UZcliTPJCFXKdsq3Gco1gYg0eQHtwYksWpSNrkVKAA6N8y9kwLLKW0QFyyFu6wLDIWgOP+2kvhrNkaSuylsOoHkM2wCmybEC51uABWTagPGRDNqAv9MnSY9oGtJvEvZTLAMFR0SUrDvVNzWbfIvJx4PBReWv9Ztmz/5Bs3bFLNr//gYyM2r6/2sCB2e9t3ia79x2Uba7v72zY4nzKDo61AsYAYxnfr5VEe3rceD3hJggmciY+YgZjlfbqGOeTWFNOPAnF5ax4onHZmsgBfciL6VZcBtSJvBV/8mI6fS0nppc6NyJbytyYZ4Ni9BiyQdbcyHyaZ4NS9Mj9WXNjMfykEnOj2sDS47ngJ5Zsli+D+A5gRMXA4CThmAweHJjBw0BhkB2rq5e2Dr4BLh7EEWF09fTJ62+9J6fdoAcEq4OHj/vfI17t6OrplXc3bZPTbuIA9B0SDBGsdTC5MOFVOw25pBPd8foG/2WMCYRrTBjolDFLsibYiIiI1YFIACMqiiQB5FsI34AggHxrYUXw8LHj0tDcIj1uMhpy38qGR0ZjykqOQO/ad1AOHT0+r+EC0O26dzZI36nT/h5TdoUnDt7evmuP7D90ZL7XBbDyuWHL+/4n9Pi3JVvtNDQ84mxzSnqdn1cz8ei8i8eFbW1yor5RmltbF1Zi+HLGlzQlgJH8RUSsbkQCGFFRJAkgy+CsMLD8zooDEw8ksKGxSY4cPy7HTtQtpKMnTsSUTsdPyPG6etm4ZZvsO3g2CRp1xPrldW/LgcOH5Vjd6tRffWOjvPnuBr/ilwTk6u31mxwxrO2+Y7vj9dVLJ+ob5ERDw0I72k6elP6+Pv9ljC9lfDnji0QkgBER5wciAYyoKJhESEwqEMDkY2Amnv7+Pv+Ogr4Ey8vIJF6mjens1NbW6l+c3rBpqzz7/CvS1t7pdDrtV5h27NrriOH7/r7WVlt+pSf848jRY44EbpT2zi6ZdP7Eit+mrTvkhZdfd7pp8/qxZGPCL1q9DnkPly9ejDt9n00f/zJGIX+RAEZErH5EAhhRUSQJIEnfBWQVkImnQAL7/Yu5TEhMTOxKI0EKNVnXfOroWMhflDefKiXbNZ+/KG8+BWVz8kg+P/E3u9Z4Uf/d9Zvk5dfekG3bd8pb722UTdt2yDvrt3jyB/kpqlwrv4p61PxFefNpQbbD6cH5x6EjR+UtRwLp+/rN78t7jhC//tY78orTS0tLq/Q6XS2STZRXTB4pL2/ZZSukR5VR0ocvMd5Ygdd3/1j9g/wxPpX8RQIYEbG6cYG1O4SBz6RMcLDACg5BxJIleBBkmNwtEGzIJ9CkAUEgj3sssGpEPvelQXm0KbS7h74Q9GhfGvSD4BjaoQNJCe3ugcwga+2SQo/IIW8FU+rL0iPtDelRbUDQTkNtgL4slGMD2kO7LBvQFtpE25LQyQQ51ZU+CqaNlMkEdezYMb86wX20gUR5pLq6On9URXISI3EvqxpHjx71BCiZx7+5H7n6+vqF65qQZVUEWeq1ZDm2pqGh4Sw5ErLsmkQWYpaWpT/ksfU/maf5XKe/TNBpWa4hS/n8fdr5EI/rXnvjbUd8Nvg2NTU2Siv9Pub61tDo72PM0g9k6VeyXE3oAX3QvmQ+/UF/yKJPSxY57FCKDbL0yOoUsiEboCeOMtDrp1w/T55sl2PHT8j+Awddm044nXXIexs2yZrnX5bjJ+rceD+9YAPVo8pr2ZRJ2Wld8G9siixts2TpC32yZPNskOXLWTbg/lJ8mTw+kUUX+AkxiXGn5E99h3Gp41VjVjnxJC8ulxJPFMR02l1KTCcuk7SPSaADZIntaXB/1tyYF9PRUyimlxOXKzk3IrvccyOo5txYCRtQZsgGtejL4AKrUBpBAELQKhSjERgtw9J5DXyWLJ0k32oQSiJA0RkLKJB2WYalPGRDA5NATYCzDIsOmJBDAY7JgGQZFmegXmtwoUddlbEMi8MgazmF6pE+W3pERyEb0EfyGCSWLNcp2xpcXMuyAT5Bnywb0JaQDWgH+qde7qMePuk7iXIPHjzoy0Yv+Jgm2sLEpmcIUr7mcS8+ceDAAV9+Mk8HFeebMelSjuapLHqiXkhXWhYfPnTokJ9wLVl8BlnabsmSB8mwZCmTdqVlyePa/v37F/yquaVVXnn9LXl/+wc+v6HByR454vuG/7GrE1nKwU/RBXpOlqsJwkPCB9L1ontk+UzL0ocjrs6QDagPWepP5vFv6sqygeqRcZKWVT1CuJKygy7P68bpCBsxTtDFvv2H5Om1L/r3SLmPNlG+ymmibNpDu5BN1kubaAuy+EdSjsS96AF90L60LH6ILH6ZzNOEL4dsEPJlEnqnToicpUfaGrKBjgP8kb/RFeOO2MdYxufQscaiZNzIiyfoIC+e0A4L1BuKJ7QNWfpmgTEbiun0A1lrstZYhLwVl5kHdOylkTc3oltkrXm13LkRG3CPBcrMmxtDNsDXsUFobsyyQdbcqOMzZAPqLGVu5H70FJob6Se6Cs2NyIZ8met5vszYs5DFT7LmRlCML1v8hD6oLy+Vn4DgI2A6axUIuG4pSFGurOUQAOVYygUoolxZyyEAcpZhAPWVKxsCeefaBsuhR0tW8whG1E8ZJP4m4aAMXByWf/OZ/LdOeMk8TQQLAmP6uiZkGXilyJIXkuV6nizlp2X5G1nalbyueQx08hj4dQ2N8sobb8nho8dk3AXj0dGCnsi3ykWWevlM55OK0WM5sunrJO1POXq0ZPk7qUf+npqa9JuKnnn+Zamrb/B107aknN5bjB4t+5HOhQ3SeaRiZPVv7knehyzlMqmTdOwxDhmbTFKMXcZqOp6RX614km6L4nyM6eXosRI2WKl6LEV2OfRYazaI7wBGnBMkHRCnZKCp05NwUhITEhNRMjFZJf+dTlxHzsoj5cmG8kjVkKUv6ObIsRPy+lvvSmtbu8y4v/X+vHJVh6H8SsmG8kjnUhb/am5pk7UvviZNza3e1yz5vHKrpcflsoH+rUnHF4l/68RBQmeM0dBEERERsfoQCWDEOYNOMEw2mpQIJslgkhCeb0kn44OHjso76zf7c9vQ2fmsk1ISaGk7Kc+/vE5aWk/6v893HerY0vHG2CPpWIwEMCLi/EIkgBHnFDrJJJNOQCSdlM7HNDdXmIT3Hzws727cKkNDhXdnrHtjyk/gZEenvPDqG9LW3uH/tu47n1JyrKXHIdDPiIiI1Y9IACOqhtAElJyk0pNVKA9YeaRyZMG5kHV3+mu79h6QjVu3y+Rk4X2QpIwm7guVSwJZ9VZCluvAyiOVIwvKke3o6pYXX3tL2ju6/N+aV269oTxSNWS5Dqw8kuZrGckUERFx/uGC0ODXRwYW+CbJeyQEFQvI8ojBAteRterlGnnlyNI2C/r4x5KlH8XIWlDZLF2Uo8c82ZAuatkGSSBDQge8p0T5ei2ZkNN604n6kOXTykcOeSuP+rJk9d0pK09laXs6T/tDn9N5JK6rLOBz976Dsm3Hbl8f+SFZ1YVVr+qiUnoMyebpsVQbqB5Dskk9pvNUln9zaPar696R06cLuxm5Voxslg207HRaDhuEZMvRY0gWIKNtSoNr5FG+Ba6XI6ttSkNlaZsFbIOsBe1vObJ8WkAOeQuqx5Bsni7IL1WPebJ5urBka1WPxciGdJElW20bWKikDS7I2mbN1mKrM+wm4zgBXjROg0Zy7EJomzzbrMknUKVBRyiXeyxQJtu7rc5Snh65YYG+0CfLeOiAIxDYUWiBbdZsWbcMwK46ZPlMAz2yLZxt8pYBqI82s1MvDeqir2yTX6oN6CNbv0Pb5DkyABvgGGmg2ywb0B7aZQ0gtQG7FC2gB/Rh2QAdhGxAH5AL2YDdj8iy0zEN9E57Q0c+0Nbk8RdJqB5DNkBHIRuoL4eOfMCXKXt6uqDHXXsPytYdu5wc72dN+Taxo9MCfQnZQH05ZAN0GLIB+kMWfaZBHxg/jAXLBtgN2SxfDtlAfTlkg6x4or5sxZO0Lzc2t8pb722S8Xm/VxtY8QSb0p9QPMGXS40nWb6cF0+oM3TsRp4NsnwZX0NXlh7VBqF4wvVQPOEa5YZ8mfbQJ8uXsQGy5cSTkC+jf3zZ8se8eEJ7Q3MjbQ35stqg1LmRPPzdAjZgjFm+rDYodW5ENuTLWXOjxhPLl+k/tqvG3Jjly+XMjcpPKjU3ZvlyXjyxfBlcYAlRKA2lYktJKBYlW7IYkzxrAACuU3ZIlkBhDQBAJ3AMy2FQHLKW4QCKQIFWfzAYstbgAcghb8lSH/21jM79tJd2W7L0k3oto9PHStvA0iPl0SZr8IDlsIElW00bIJtlgyw9Imv1h2vkhfSIXVUXrPxt3vbBQvtpC7JZegzZgDKQzdIjydIFMshaegTUGbJBlh65v5q+nIwnB48ck/d37vbtoD1Zvky9pcYTZGvJl7m/UjagzDwbhPSYFU/QQVZMUBuEZEN6BFm+nGcD+lpOTM/z5SwbZMWTLF9Oj4Mk8nw5ywZZvlxMPClFj2qDavlyyAZZvqw2yIsnlqz68nLHExDfAYyIqBIYsIV3/nb437WNODfYs/+g7Dt4xAyYEREREecLIgGMiKgS9u4/JBs2b194JBlxbjDlvo1v/2CvHK9rnL8SERERcf4hEsCIiCqAR5Fvr98cXNaPqCzGxibkvU3bpPVk+/yViIiIiPMLkQBGRJxj1NU3yZvvbpThYfv3GSPODXr6+h0J3CqDw/YL0hERERGrGZEARkScQ5xs75R1b6+X0wOLd3RFnHs0t56UD/bsN182j4iIiFjNuMDalcLL0WyHZveIBXbKsAXbenzFLha2Q7MbxgK7VZC1dqUQhMljV4sFyqRsK1hTHtvZ2YljgZ09bP22dgbRD2RDO4PYvYM+rB067FZC1toZpHpE3nrhnPqQtWxAXbSXdlugn8haNqCPWTZAv3k2wE4WaA9lW3pUG+AfFvCnkB7RQZYN2HpPsvSI7pG1drlxP3rM8uUsG9DXLBuExgH6SftyT2+fvPH2BulyOhgbG62oL4dsgC+ix6X6MijVl4uxQZYes3y53HhCn7bt3C1Hj9XNXy0gzwb0hT5ZesyLJ1m+XKvxBD2WGk8oNyuelOrLKzWeVMqXqxVPQjaoVDzJ8+VKx5PVMjeCCyzj0AjOlaFBVqEoj3ODrELpPOfZhAxLR8m3jIOSKDdkWNrDuUOWcVASsqEBgmE4a8caIOiA83tCAwQFYnjLsMhQr2Uc+k+dOKtlWBwJWcsG1JVlA3SEHq0BQh+zbMD1kA24lmUD+oINLD0WYwN0aekR/YVsQB/UBpYe82xAe2m3pQvaimzIl7FBaHAV48s6UYyNjctb725a+F1ayqRsy5fVBqEghR5DNqAfyIaCFHoM2YDghKwVpOg/vkzdS/XlSsaTcnyZ9uBT/adOy8Yt211ZZ+4rNp5YekQHyFYinqgvZ9kgy5fz4omlR/yMckM2wJfzbBDy5ax4kufLefEE2SxfrlY8CelxKfEkDWxAu0qNJ1lzI7JZ8STky8XEkzxfLieenOu5kfaEfLncuRHZvLnRks3yZRB8BEwnLMMArluOpsiTtRSkoFzLMIAOhmSRyZO1FATyZKkzTzaELNlK67EU2WL0WI7s+WYD3zZ3DwTj0JHj8znl67FUWeTyZENArlJ6LEc2rz/F6LH1ZIds2rZDJuYDfzGyIV3kyWbpUWVDyJKtlB4B5VbaBmkUI1sJPZYjW2kbVEuPIdla1WM5suXosRzZatggvgMYEVFhcO4cv/IxGxjAEbWBHbv3y94Dh+f/ioiIiFjdiAQwIqKCaGxplXc2bDEfR0TUFkZGx2TDlvelvbNr/kpERETE6kUkgBERFcKp0wPy+lvvSW+//d5ORO3hZEenP6JnJPDOTERERMRqQSSAEREVwPTMjKzf/L4cPV4/fyVipWD33oP+aJiIiIiI1YwLQi9Dsosp9NiKlw7ZnWPJ8tIhstYuGsALichaLzRyjbzQS4vlyNIe2mXJ0g92yYRe4EQPIVlevkQ29BImsiE9IlOqHpfDBiHZPD2SH9IjeSE9qg0sqA1K1WOWLHWGZMvRY5bswcPH5a31m6viy1k2QA8h2Tw95tkgpAtQKRuU48shG3Cdx/Yn6htcubYuyvXlkGyeDbL0qDawZPP0mGcD8kqxAdfIC9mgHF8uxgZZ4yBLj9WIJyF/BGqDkB7LkS3HBurLlmyeHvNsQL2l6HE5bBCSzdMj+aXoUW1gAdlKxZMLrC3aVMiRHGwvtjrDVvTGxkbfoTSoqKmpyW9rtmTZrk6+1WCUQLncY4Eym5ubTeNRXkNDQ3CbPH1hO7RlABRUX18f3CbPlnO2hltKZLs69Vrb5NEjdbLd3XIo6kPWsgF10Ve2d1t6ZLt6yAb0ER2Hjipguzr51uDLswHtwTesQZBnA/QQsgE6wAbWNnn6gP7ZYm/pERnqtbbJ5/kyW/qRxQfSyLMBOkJXaV/u6z8lr6x7Ww4fOSqnnS4s2Sxfxi60CRtboC8hG+APyJbiy+gPWcuX6QO2C9kgy5fzbJAVTyrpy1k2qG9qlhdfXRe0QZYv40voInTkA/rHDpWKJ6X4ssYTKy7TR/JCNuB6yAZ5vpwVT9SXQ8du5MWTkA3oQzXjSTlzI/5uYTniSZYvVyqeVGJurFY8oT20qxJzI7JZvpwXTyxfBhdYQhRKZRjfUhKdwUCWLMYkz1I+4DplW0bnGgPIUj6gPXTIkqUt1GsNAIASUYLVH5ROvSFmjxzyliz1Ua9lOEB7Q3qknyE9qg3QV8gGWXqkXCuQgCwb0JZibGC1qRwboPssG1BnqTbI8uUsG6AftYEFHQdJPc7MzMp7G7fKifpG197hTD1m2SBPjyEboANks3w5ywZZesyyQbm+HJI9F75syU46Xbz+9nqpb2iav3I2snw5zwbl+DKyKy2eIBvy5ax4kqfHLBuU48vViidZelQblOLLeTZAD6XaAP2H9FiMDSrly8hm6bGS8cRqUzE2yPPlkA3K8eX4DmBExDLi8LETsmnrDjOARKwsNLW2ybuOzIeCZ0RERMRKRiSAERHLBHaOrntnvfT02o9aIlYW+NYOAWxsbpm/EhEREbF6EAlgRMQyYdfeA3H36CpDS9tJfyyM9SgqIiIiYiUjEsCIiGXA6YFBeeu9TTI6ar9bErEyAfHbsGW7HK9rnL8SERERsToQCWBExDJg5+59cuxEPPNvNYLfCX7rvc3Bl78jIiIiViIusHbDsJuELc2h7c7sOmELvRUQefmdbeWh7c7ssGHLs7UbhpetyWPXigV24FC29VI2O2RoE22zwBZ4+mQ9yqEfbKNmF44Ftoazbdx6sZ9dQ8iyAygN9Mj2fOStHTrs3KHNlg2oi/aGtu6rDSw90kf0hL4soF/0bO0qUhtgJwvYlbItPdKWLBvgT+jDkkUH6BGdWED/IT2ie2St3XV5vozN83w5ZAN01NODffvkvU3vn/XrEfSxXF8O2SDPl5Fdbl8Gpfpyng2y4on6ciieFOPLpdgg6ct0t3Cod918bsGX8+JJli/XWjzB15ANxRP0GIonXA/ZIM+XsWtIj2qDkC+v1HhSrblxtcSTPF8uZm4sJ55k+TJlZ/lypebGkA2yfBmYBJCC6CiNsoyDAig0FLDpKMqwZHHUkHFQMGfahJyc9oSMQ1uQDSkYRws5OTpANqRgDBMyDjLIhoIFDkHdlnFoK7IhG6AnnNzSIzrCBiE9koeuLVlsQ9mhgJ1ng1CgybMBThqyAfoL2YA+IBdycoJTlg2yfDnLBurLWTaAALL6t/fA4fmrBagNuMeSpcyQL2NT2hQKNPhTyAbqy6GAneXLBAtkQ+SDOkM2yPNl+hrSYznxpFxfLjaedHb1+Ef8U1MFnZcTT9SXLdmVGE8oM88GIV/Oiid5vlxMPAn5cjXjSalzo8YTC8sRT7J8uVLxpBK+rPEkpMcsGyxHPLF8+VzMjZZsVjwBwUfAFGYpCHDdqkyRJYvxqiVrORrI6085suSVIxvqTzmytKdasiFdgKxys2SL0UU5sqH+cH1wcMjvFO0/tXh1JEuW9uTVG0KWbF5/alWPpcoWo8flkOXzvU3b/G8Fg3L0WI4seeXIan/SqLRsCPQllJ9XbpYeQV6bas0GWboA5cqGgGyp/SlHlrxyZEO6KEeW9lRLNqQLkFVulmyeLuI7gBERZaChqcWf+xex+sEj4Pd37pn/KyIiImJlIxLAiIgyACGoa7R/LSJideHU6QF5450NMhp4nBIRERGxkhAJYEREiRgbH/fvhfEZsfrBY5atO3ZJfWM8GDoiImLlIxLAiIgS0dTSJts/2Dv/V8T5gPrGZtmy/YP5vyIiIiJWLi4IvSDIzh1rBw5gNwy7gixZXjpk54m1ow+wM4d866VFrmXJcj1P1tr5A+gLfbJewqQf9Mfa+QPYQUOyZNnxg6y18weorAVkaHNIj8XYwNLFctggpEe1gaULlQ3psRgblKrHLNk8PdLmLF8Oye7YvU/2HThs9ifPBpX0ZWRryZdBMb6cZYNyfHk5bTA8PCLvbNgiXd09vj8hG+TpEX1YyLMBcqXYgHZm2YB+Uq+li+WwQciXKTPkyypbTjzJGwcWirFBli9n2aBcPS6nLyvy9IhsLcUT6sqzQbV8mXxLFypbji9n6RFZC3k2uIBGpUFjW1pa/DZtq0FslW5sbDSNR2Obmpr81nBLlm3f5FvGQ7GUy3ZqC5TZ3NxsGoDyGhoafNsssD27tbXVVATKq6+vD27vZks5W6ktZ2RbN/Va27vRI3VSt+VQ1IesZQPqoq9s8bb0yBb4kA1wMnTM1nBLluvkW4Mgzwa0B9+wHDnPBmyvD9kAHWAD66gC+oD+sYOlR2SoF0dPI8+XOXoBWWsAqS+HbPD2hs2yZ+9+p4vF/oh+0CP+bslm+TJ2oU3Y2AL+FLIB/UC2FF9Gf8havkwfsB02XKovcz99LSWe4CtZvqzxpBRfLjWe8N7nlvd3BI98UBuEjt1QX65UPAn5cjHxxIrL6sulxJM8X86KJ/gDsoxRC3nxJGQD+lDNeFLO3Mg9FpYjnmT5cqXiSSXmxqx4gp9VKp7QHtpl+XK5cyOyeb6cFU8sXwYXWMqnUAQsRwQoh4JDsuRZCgSUSdmW8ikPWcuJAQZFGZYsnUfWUj7AkUmWLEpH1lI+oM6QLPUhaykf0FfabcnST2RLtQH5K80GIdlzYQMLpdqAjQDrN22Tzi47mBejx5ANytGjyq40X86SJa+WfLnlZLu8vX5zsN5K+jKylbJBqD9co9xybBDy5Swb5OmxmHiSpcdqxZMYlwtQPVqyWXoEyK6WeAKqZYP4DmBERAngYOBtO3a7AWYPyojVi0kXVN9+b7P//eeIiIiIlYpIACMiSkBzS5vs2LXPfStc/K0rYvVj194DUtcQj/+JiIhYuYgEMCKiBNQ3NHsSEHF+AvK3a0+0f0RExMpFJIAREQ683zE6xk6sMf9+X1bi/ZHd+w7Jth27ZNz927rnrDRfZuh9loiVh+6ePlm/+X3zvZuIiIiIlYAgASSwZQW3UvPA+SRLXjmyWYiyZ5CXF8qHlHV298jx+gZpajvpf+u1LSe1d3XL8YZGJ9Mo7Z1d5j3JRJlNra2+jq7E7rNS+wOqIUveSpTNQqmyI6OjsnHbThketo9fqFS95JUjm4UoewZ5eeXIZuF8kiWvHNks1Gq9WaiG7AXWTho/KXZ2Bo+wYDsyW49DsmxpDm05Z5s8W5atnTTsciEvtO2fMinb2klDebQpdPQCfQkd20A/2ILN7h8LbLFni7e1k4bdN8iyEycNdIce2XJurf5QH222dpRxP+1ly3mWDazdTLQTPYW2nHM9ZAN0m2UD2kPZlh5pS5YN0AP6sPSIDrJsgP6xg6VHdI8stkgD3aFHy5dnXFnNjvS1tnfIqPMB+kTb8tK0S5RF4t/WPek05cqmDuqCEKJH2pXly6GjF/J8GVl2flko1ZcBtgvZoBhfLiWe0M5S40meL2fFkzxf7nJfAt5ev0nanD3TyIsn6J9k6bFa8QRfQzYUT9BjqfGEckO+rOMgK56EfLnW4gmgrbS5UnNjyAbFzI21GE+qNTdWIp5Uc24MxZMsXwYXWEqiIArE2UJOjgEsJdEB8lBSKNDQUctRURwKDCmJ9tAuS8G0BdmQkjAOSrYUjJMjG1IScgwSS8HIIGs5Kv1ngFB3yMmRDdkAPYVsgI7ybICuLVlsE7IB17JswMChT5Ye82yADkuxAX3IsgFOnmUDfIZ2p3XRQ9Ds7J7/69yBFcS6hkavx1J9OWQDfAnZUNBFj6Rz7cvlxpNK+HI58YT2bNyyTQ4dOTZ/5QxWcjyx9LgcNgjpMSue5PlyMfEkS4/LHU9Alg1oJ3oqdW7EBpWaG0M2UD1mxZNa8+VqxxNLj3k2KMaXS5kbs2wAgo+AKcxSEOC6VZkiK6+asqH+gLxyKyFbTH+qJRtCubKhNoFKyZKXlp2enpFm921ubMI+S6qS4F1DVh45TiSEPF3k9TcE8sqRDdmgmDZVSzaEcmQBG0E+2LN//q+zkVdvqD8gr03l6KJasiGUKxtqE8grtxKy5fanWrKh/oC8cishW0x/qiUbQrmyoTaBSsnGTSAR5yUmJialsbU1c+BUCtRJ3VkEMKL20X/qtGzftddvBIqIiIhYaYgEMOK8BJN2U1vb/F/nHk2tbTJhPKKIWDngcduWHbs8EYyIiIhYaYgEMOK8RCSAEcuBLdt3+U09ERERESsNkQBGnJcohgDy7sTICL/R6NJokcnfm3/mH+8AsjM4YmVj5+790tRSvS8SEREREaXiAmvXCWC3SmgXGzta2Alj7Tji/SZ24YR2nbCrh3xrguQaeex6scD1LFnaZO0aArQHWeudL3SArLVrCKAHdkFZsugAWWvXEEAupEdksvSIDUJ6VBtY9lMblKpH8iqlR/pUqh5DO9Gy9AgsXy6GAA47Mrfl/9/ee3jXcRzrvviz7lrvvvzOvSf4+FxnW9myZSVLsmXLOcmWLTkHyYq2JVlWzpliTmCOIAgSGSAA5pxFSu43vwaa3BxVdQ9mMNh7E/UtjQBO76+n+6ua6tozU4PVG9zyznVuWcGNz3JV6ORJ2W4BA8Mj7uBBuZKwiC9rOtbtyzNpg4BWjCdBR90Gp/x8Nnd1u4Ghkam9kwjcmI7oISFlg5iOMRugI9yYjnDriCf0q3GL+LJmA3TQuEFH7Tyo25djOs62Lwcb6L7cvHhShy/XbYOYjrSX1THlyzEd4UpI+XKHZAAmOjo66suhpQFR7jw0NCSKyIGGh4d9ibfEpVyZdsmREYd+KQ2XQJ8jIyOiiPQ3ODjoxyaB0m/ehyMJgQYDAwO+NFwC7/5hkxwKg3NcyQDoyDE5tuRQHA+uFIg4FnOlrFzSkdcQaDbA6GhMebjEZT/tkiOnbMB48A3JGYMNKKWXQDk670KSbIAG2ABnzYM5wIMv6QgnZgPJl4skgMePn3QLl65yC5asdEtWrHFLV8Y3PsNn4WgvCA7Y0dfvBrIxnxN8GbukfFmzAb4Mt4wvox9cfDoPtMOXNRvEfDnYQPPlIvFE8+UQT8r4ctV4sjfzqa3dPW5n3+DU3kkEG0i+DPDlOuOJFNOLxhMpLuNntJWJJ8GX6V9CLJ7gD3DLxhO4mi/PdDwJYKyaDRgnNqiyNvIZCTFfLhJPYmsj3LriSR1rYyyepNbGKvGE8TCuOtZGuLG1sUw8AR2SCADDSyIAhGBQkuHojzbJEQH76Vs6buBKAgLGo3EZC1xJQIABJIcACAdXEhDAk05KwPE0LUBMR+apcYMWMRukdCxjg6BjnTaQuLNtg6IJ4IIlnW7thi3Z8S99UTS3b9ka/82ffFuzfnOWAHZmJ1w8AeQK4JEsyJXVUbMBY0npqJ0HQUeNyzE1G8R8GcCN+aPGZY60adwi/liXLzMmrv51bd8xtXcSRWwwk74c0Kx4UkXHGDelIxqWjSccsxk2gKvpWMQGdcZlCSkdi/hyzAZldAS0aVx0pD2mYxVfrtMGEncmbKDpaM8AGuYkppMA8pwXf/ED8P5AtoDGf3OykSwWSQApArHXwLQ/do1PuI1bt7kPhcBtMBgMrQxLAA1zEtNNAPmzcVwFXLtxi9uwaZv/NkZSuH5jl1u3aWv2Deys3zedBNCqgNsfe/ft9z6hfcM2GAyGVoUlgIY5iekmgCzw3OKlwGP1uk3ug/OTt31Xrd3oOrON5NASwLmHw0eOZj6wQb09YzAYDK0KSwANcxLTTQBJ9ng+g8pgXvfCHT//PEn2O69+4Xdu6dot4LkF7L9s5Rp37pz8bI/BYDC0KtQEkCse2m0NFrvYLQ/apIcZQTtyaauD26z5tCOXNo0b+p0Od9oJ4NQCzyEajzL578k9779fPAEcGt3lTisP7oLYfFpJx4AiY6rC1cbUbC5+sXBZ50eS+RiXtrLHjXHDmGJcrS1wNVxuXNo0bui3CldDrN925NKmcUO/VbgaYv3ONS5tGjf0q3E7pOofCJQla+XqlGhTCi9VnnArhLJkrVydEm3Kv6UKHqpraNPK1Sm/pm+pCof+GJNWrk7ZN3OSqnDQgPJtqVwdUN5Nubp0m4cKG7j8zAPt/OsiMr5kII7HmKkcyoPPU9qtlavHbMAc0UkrV+eVDOgsVUKlbIBdGZekY8oG+BM2kHREg5gNeO0Cm6QjJe4xG0i+PO1nALMxk7Bt3Nrttmzryf79od+3uavHbera7vvjmcCiCeDO/gE3PDzizgu+jF3QUXtlAD6h2QB/gKu9gqSIL2uvDGiGLzPOmC+HeFLGl6vEE/wJPUj6Fyxd6X8GpOJJzJdT8QRfTtlAi+kxG+BrcKW4jJ+hY5l4kvLlIvFE8+Ui8UTz5ZmOJwGMVbNB8OUqa6P2Op2YL1eJJ8wjZoN2iyfMsa54gl3pO+bLrbQ2gg5ponTEgHAYSWA6xXCSszEBuDiMdoLQLonEPiaiOQzjweiSSMyDMWkTxWgYXRIJ43Bc6aQF8DjxJC4cjiudtMwfp+DYEpexwo3ZAIeRdMQZaNdsQL9lbEB/KRswpzI2QEO0lLicrJoNmEPMBpwgHFc64eHiM3lfLvMM4IkTJ92iZZ1u6Yq1F54BXLJ8jVu8fHU251N+XkUTwN6BQTehBE5sENMRf9JsgB/ClQInQEftPAi+rOlYxZexgebLdcWTIr5cJZ7gjxx3wZIV2ecvjj3YoB3jiaQj+tCvZgP6jNkgpmMsnqR0TMUTuDFfnsl4EhCzQRVfZh/9akkANtB8uWg8kbQoEk9SvjzT8QRuzJfbMZ4U8WXpPGAOZW0A1FvAkjiNiLXXxaWtHbkxzCUubc3i5lHmCiD9HM+SQJ4DDCApZKONoDGdZwAZg4bUfFLtGprJjaEZXNqqctnyCSAowtVQtg3MJS5tzeLG0Awube3IjaHduLS1G9eKQAxzEtNNAKUFPn9inT37vhWBzDHwrVtKAA0Gg6HVYQmgYU6iaAJIMsefeONZv63dO92WbTvEjbbNXdv9Z4smgPYamPaHJYAGg6FdYQmgYU6iaAJIQsdzf/yN3/mLV2QbP6Vthf8MFaFwLAGcG7AE0GAwtCssATTMSRRJACny2LvvgP9rD0W3Pf7nAfEh4kaMjI37/g3tDUsADQZDu6JDWqh4tolqGK3ahYoSqnc0LtUwWrULVSm0S9UuBFPatIoj9tPO5/KgP8akVbswHqqGJC7zgCtV3gEqr7SqISqD4GrVSvDgS1yOB1eqVuLzjFfTMWYD5gg3pWPMBlrlHePRbBB01GyAP6V0jNlA0xHtYzpKvlwkAawT/UPDbv9+ufKuFX0ZVPXlMvEk+ONsx5Oivszfgc6/BqYuGwRfrmKDsvGkiI6SDYIvx+JJypfbIZ4EBBtIOsJFp9n25cs1nlTx5So2aMW1UePGfBl0SA7FBHjfDeXDUqd0ODw8LAqBcLx3hnJoiUvJMu2SEAySfilplkB5Nu/SkRyK/oaGhrwBJFC+rb2jBw0GBwe9iBJ4Pw/vHZKcAvE5rhQQ0JFjcmzJKXBiuJIzcizmypwlHdEIrSQdmSNtlNlLXPZjA8mh0DZmA3wC35AcKmUD3vuk2QANNBswB/THDpKOcGI2kHy52Qngjr5+N5iN+Zzgy9iF+XCeScCfNBtwTsLFtyTEfBn94OLTeaAdtsOG0/VlPo8vl4kn+Aq+WocvV40n6Ah3YS4BJJ7A1eJJ8OUy8QS7p+KJFNPrjCfEes0GKV+OxZOUL6fiCVzNl2c6ngTgLzEboFOVtZHPSKBPzZeLxhNJx+DLdcWTOtbGEE80X647ntSxNsJNrY3TjSegQxIBcPJJEwEMknaJy74Yl/1SoAeBK4kAMIBkVIATwZVEABhUMioIXMkRQYzL8WJcxiudlKBuHctwgxaXuw2anQAOjoy6o0qCUETHlA1mS8eAmC8D2jR/LHIeaP7YbF/mc/lbwIGr6QhP07EuG1SJCVW4KR2L2CCmo+bLKS7H1LitbIM6fVlCSscYty4dAW2ajoErIaVjEV9uRRtoOqZsYM8AGuYkSAB5Dq9ZIPm058baHwRWewbQYDC0IywBNMxJUIFLJe6HyjfMOkHSMLRL/nNDhvaCJYAGg6FdYQmgYU6CS+NchTsuPGNSN46dOOFGlOdmDO0FSwANBkO7whJAw5zFwcNH/FXAD5TnI+rA+SzpGxzd5Q4pD1Ub2guWABoMhnaFWgTC1QntCgVBjwchY1w+IyFwNdBWF1ebD/OIcWNaBG4ZHYtwtTFV4bI/xo1pEbgSwphi3GbpKHH5/O69+7KEbNSdOHnS3xY+d+68fxB4cjvveSRtjfv5E27MxR+XtuzYFzlTW7bvgw/QarKdvo9TFZclf7wncLLt8tARVOEynxQ3pkWMS1uKKyHMR+OG+dCeTwCraFE3N6WFxo1pEeOGMcW4qflU4WrzqapjFW5sPnA1pLTQuGFMMW6ztKjCTWlRB5e2FFdCmE+M2wwd1dfAUJIcK3WnVFqqlmEglEJTli6BEmrapYoXFk761cqsKdGmXF16dor+4Gpl1pRoUy4tGYh5UN6tvbaBUnWtzJryarjaKwM4plbqzvEYs/bKAOaqlboHG0hVR8wRjdFLAq8SKGsD7Ipv8Lk8GAtc7ZUB+JP2ygA0QEfplQEA/bVXkMCBq72CJObL2KBn507XNzjoxjM77cnmt3vqhc4TGad/aMgnbSSK7KNt34GDbmf/oNva3eMGs/mOTey+0Ba49NU/OOSGMxvuzmw4lo2d3w9PaYMNqviyZgN8GW4ZX0Y/zZdBWV8ONkj5shRPUr5cVzwJvqzZAH9CR7j59wCGeFLGl5sVT3h1BtyZjifoQ7/aK0iaFU/Qv454wlgZs7Y2YoOyayNt2mtgqq6NzElbG+G2UjxJ+XKVtbFKPMGujGu2fblIPJF8GXRIg0VUBMIIksB0xmQlLoOAqw2W/bRLzsbk6VcbLOPhBJBEYixwpRMP4BQEIUkkThqcSXIYAA++xIXDcSWHQTvGi9ElHTEsXOmkDTpqNsCwKR21Ey/YQNKR/mI2YC6cADNtA/SL2YBjwpe04HhVbBB0ZE7+at7UxlW73VmAOpSNmat+YT/jX79pq1u6YpUf1+lszI08NqqMJ7KT8kh2XLhcKWwEdtVsEHSUgh9AB80G+BLcmC9rNoj5MkBHzQYxX+bzMV8uEk/q8OWq8YTtgw/Of+QKYMoGwZena4MivpzSsVnxRPPlWDxJ6YiGsXii6QjqjCdwYzZo1tqYiieSjkXiSRlfBkV0rBJPNB3htmI8SfnyTMcToD4DKAnbiFR7WVTpt64xpdCKY27WmOaKDbZs63Fd3Tun/lUOseM2ywZ1cVP9VjluDHVrwWekZwDrPq6GKtwY2nE+7ciNwXQsjircGC43LawIxGAogc1d293W7h1T/zLMVfCt24pADAZDO8ISQIOhBCwBNABLAA0GQ7vCEkCDoQQsATQASwANBkO7whJAg6EESAC7tld7BtDQ/rAE0GAwtCvUKmAqUqhqkUAlC9UuGpeqFK3SieoeuFqFDm1alQ2VO1rFGP3B1SqdGI9WZcM8qPzRqmyoVNKqbKhSgqtVjMHTKp04HmPWKp0Yr6ZjsIGkI+NEJ63SCX1TNojpqFWMBRtolU74k2aDoGPMBpqOaA83pqPmy8EG0/VlikDWrNvojmVj0mxAv83wZbgz7cugqi+XiSeMs6ov12GD4Mt8Lv8amKLxRNIxZoOgYxUbaPEkFpeDL5exQUrHmC8H7lyIJyBmgzp9uV3jiaZjs9bGYINm+LIWT2K+DNT3ABZ5Z5Q0GUQK79mRuIgQe88O76xBRAmUM2vvOkIcuAghIbxnRzIsGgwNDaknNe/Y0d51hNG19+ygY+xdRxgOrmSDoCNzjtlAcgrmSBtaS1xso9kAbRkT/UsI74ySAlywAfOSgA6aDdAPG0gnNXOIvesITswGqfd2wY35smQDKoB5DQz9ar4c3hklHTfmy/THmGK+rNmAecCt4stScGQOZX2Zz5eNJ/hK2XgSfLmOeBLefwZ3YS4BRAO42gIVfLlMPMHuKRtM15dBsIGk40zEE03HWDxJ+XIqnsCN+XKz4knZtTHEEwkzEU8kHYMvt1o8KeLL2tpY1gbBl2NrIzaoY22Em1obJRvEfBmot4ARQBoMYD8TkgRkH1xpMACuJC6AS78aF2ElBweBKzkTiHHhxLjwJKOCwJW0ADEu80zpGLNBWR3NBhdR1gZcAdy4ZZuqUxEdUzaoS8cUd6Z1BClf1rjsg6vp2ExfZuNz+VvARWyg6ViXDdiXskFZHYtwYzqm/LEKt4yOddugFX25rA2aoSNI+TJcCWaDS2HPABoMJWDPABoAAdaeATQYDO0ISwANhhKwKmADsATQYDC0KywBNBhKwBJAA7AE0GAwtCssATQYSsBuARuAJYAGg6Fd0aE9HMhDhdpDlgQ9HjyMcbUHJdlPu8RlX11c5kK7BLjMh3lJqMqN6ajNB9DWqjaQELjN0DHG5ZgzbQMSwM1bu31bjFuHDTgm7RICt4wNUjrClbQAZXUE4bgxLTRuFR1nwgaMPZ8Awk3pCFdCiguvDhswT80GAG4dOgauhMCtQ0e4MR3rtEGdOpbhpnSkrYwNUjqmbKDNB9AW46Z8WePOhA0kVNERbkpHjRu00LjR18BQmiwJQTk5pcVaqTsl2FqJNmXW2usGmAT98hkJ9EmJNhPKg/54jYhWop0qdR8cHFRL3SmzpkRbMjwl7hxXKnVHR46pvW6A48GVSrQ5FnONvTpDswFzRGOt1J39mg3Qln611w2kSt2ZT+zVGZoN0ECzAXNAf+wg6Uipe8wGMV+mLB+udB7EbOBfA7O80+3JbMu880AfNNZenVHVlzUb4A9wtdcNFPFl7XUDZX052EB7dUYsngRfLhNPgi+XiSfBlzUbhNc2wJVeAwNXiyfBl+uKJ9P1ZcD5jlaSL1eNJ4ypGfEErubLzYwnZddG2upaG5mTpGPw5VaKJylfrjuexHyZcdXly6m1UbJBzJdBh3RAOmWSkCSRcAqEkrgYE65kOMB+2qXBso9+JcMBJoMTSw7DWOBKAQwgHuJLXAxLEJOMDnB+NkkLOBxXOvH4PONl3BKXecKVHCboGLOBpiNc+tVsQJ8aN+goBTDAXDQd67QBPPiSFhyvqg1iviydPFu37XCr1210J7O2mC9rOgYbxHTUzgN00M4DfAnuTPsy4JiaDWK+zOdTvgw3ZoMqvlxXPEFHjpu/Aoh+cMv48kzEk5QvazbQdIRLv1VsoOkYs0HKl9EwFk80HUEz40mVtTEWT1K+HIsnKR3riicpHavEE82XYzYo4suaDarGk7I2KBtPgD0DaDCUgBWBGABB154BNBgM7QhLAA2GErAE0AD4xm4JoMFgaEdYAmgwlIAlgAZgCaDBYGhXWAJoMJSAJYAGYAmgwWBoV1gCaDCUAAmgvQfQYAmgwWBoV3RolU5UjlBdIoEqGEqeJS4BkWpOqlIkUGVDCbZUJUXlDW1U00igT/rWKnQYk1bdQ6USc5K4zINSeK26h8oeKoOYWx5U2XBcqbonVCuho1ShQ6UTXKm6J+jIuCUwT7hSlRRzhKvpyP6UDbCThJgNGAtj0nREB2yg6YgNtEo1bMAm6Yj2mo4z4cuSDbj6t2rtBnckG5Nmg5gvs78uX47ZoKwvA3iaDWK+PBM2mO14EnxZs0Hw5XPnzrsFudfABBvEfBktJR1jNmjUcbo2qBpPUr6s2SD4ciyeaL5cNZ7AbcV4Uocvt2s8qcOXgw00X65qg2asjXDLxJOYL4MOqVMGwTtpmKzUKYPlfTeSYZk87xRiMhKXgdIuDQiR6JcJSWA8jEsyLP3x/h7NKUgueFeOZFg0gKudXLyjh00yLM4AVzq5mD/HxACSYXEYuJJTcKyYDdBIswFzpE2zAfuxgRSk2JeyAe8dknRkLGVtgAaaDZgD74vCBpKOcGI2YLzYQNKCscKVzoPgy5zUea5/D+CKVW6/cnI1+rJ0XPqs4suaDYr4MlpKvox+cKUAxxywHceeri/XGU+q+rJmgyK+jI5w8+8BTNkg+HKZeBJ8OWYDzZeLxBPJl6vGE8akJUyxeBJ01BbrIvEk5svNiieajlXWxqrxRNOxSDzRfLlIPCmzNlaJJ8yx7ngi6Tgba+N04wlQbwHjSFKHgP2SQAFwJaMCuJKTBtCvxkUcjYsQKa4kLghcySFAjMvxYtyYjoGrIWWDsjrGuCkdq3AvJxtwC3jT1m51riClRRUdU9y6dExxNcRswP4UV9Oiqj9W4bLxufwt4MDVdAxcCUVsMNO+DGI6gpgWRWygzacKN6Zjissxm2WDMjoC+tW4zCWlY4xbVscYt24dNS77U9wyNiiiY7vZwJ4BNBhKwJ4BNAACrD0DaDAY2hGWABoMJWBVwAZgCaDBYGhXWAJoMJSAJYAGYAmgwWBoV1gCaDCUgN0CNgBLAA0GQ7uigwAmgQcHtQcaeVCSqhaNS9WRxuVhRdqlhxLZR5v2QGMVLuPRuMyD+WgPlcJFDwkpLjyNC4cxldEx2KCVdAzc2dYxcDUd4cV0ZMzTtcHmbdvdpi3b3Lms7zI61mUD5kHbbNugrI4Arma/oIXGraJjVRugxQcffDQBrKJjs2zAPDluM3RMcTUtgg0kzIQNNB3haTpWtUFKi9m2AfOgbbZtUEVHuClfrsMGMR0Dd7Z1DFxNxw6tzJpyZ0qLpclQBj00NKSWug8PD6tl8pRZ086g8kAE+uUzEuiTkmZpsvQHVyvRZi6Ud0vGQ4PBwUG1RJvybEr/JQNQmg1XKtFGR8rCKdOWDMDxGLNUos2xmCvl4ZKOvDJAswFzRGOtTJ5XBtCOQ+aBtjEbMB58QzqBgg20Vz6gg1YmjwboKL3ygTmgP3aQdIQDV3rdQMqXGStjls6DYAPJl3kNzJLlnX5Omi+jsfQKGYBtNF/GLowJG0sIvizZAH+AW8aX0U/zZeaA7TQbxHw52EDz5Vg8qdOXq8ST4Mtw86+BCfFEe30J+peNJ9g9FU9ivpyKJ5Ivp2zAfs0GKV9mPClfngvxBKTWRtrwdwkzEU8kHZkH3LriScqXy6yNzY4nzVgbU/FE8mXQIZHolIFyYEkkhEVkiYsx4UonAGA/7ZLR2Ue/0gkAGA+OIXERDq5kOIAQCCjNB4PBlU4eAA++xIUDVzI6n2e8iC9xmSdcyeh8PmUD2jUb0K90AoCYDegPrmYD5tJqNuB4cGM20HSM2YA5ar68ZVuPW7N+k2+TtAg2iPlyygYxHTUbFNFRs0HMl0FVX0YriVskntThy1XiCTpgB46RvwJYxZebHU8kLdhHv1VsENOxrC8XiScxX26leAJiOgYblPHlIvEkpeNM+zKo05fhtlM8aZYN7BlAg6EErAjEAAj29gygwWBoR1gCaDCUgCWABmAJoMFgaFdYAmgwlIAlgAZgCaDBYGhXWAJoMJSAJYAGYAmgwWBoV1gCaDCUgL0H0AAsATQYDO2KDqkqhWoSyqSpHpFA5Q6l4xKXgEh5NpU0EqhWoV2qSqFShjaqWiRQYUOptVQZRH+MibFJYC7MSaoMYh6UYVPFI4Gyb8rDmVseVATBlaqK0BEe5fdShQ4VR4xZqiriWMw1ZQOpMog5oiN6SUDflA2wkwTsyrgkHRlLzAbogA0kHYMNtAo5bMAm6Yj2cCUdU76MzWO+zFwlX+bqX+fqdX5OMRtU8WXNBswlZYOZ9mUAT7NBzJf5fBFflmwQdNTiSRFfLmODor587tx5tyD3GpgivoyWko6peMIxU/Ek5suaDfA1uDMdT1K+bPHkIupeG8vEE+YBt654kvJlyQYpXy6yNlaJJ63oy1o8ifky6NAE5v0+Wqc4G++skZycydOmGRaj8c4ayTiIzvuINOMwUcYlGYexwNVOEMTFAJJxEIl3O2nGwehsEpcTg+NKxmH+iK8ZFkeCK50gHAudtCCFRpoNcFTa0FriYhvNBuxjTFqwxyeYkxRoUjbg5NBsgH6aDZgDPPiSjnBiNoj5MmOFK50HMRvwHsBlK1f7fjVfxgbYSTpuzJeDDWK+rNmAecDVglQRX5aCPXPgmJoNYr4c4onmy0XiSRVfriueoCPc/HsA0QCuFk+CL8dsUCWeTNeXQYgnko4zEU80HWPxJOXLqXgCV/PlZsaTsmtjiCcSZiKeSDoGX64rnpRZG/l8zJdj8aTutREb1LE2wk2tjTEbSL4M1FvATEIyDGC/NMmAqlzJMIAJSpMMKMuFU5WrgTZNiyrcumyQ0qLIcavoWIWrgTZNi7JcbgGzaeMFqfloxw1jqsLVUFXHOmxQxKfKcIvoqM0HFOHSnr8FXOW4gauBNk2LKtxm2aAIV0NVHdvRBpqORbSowtVQhUtbs3Qsw62iIyjLrXLcwNVgzwAaDCVgzwAaAAuGPQNoMBjaEZYAGgwlYFXABmAJoMFgaFdYAmgwlIAlgAZgCaDBYGhXWALYIuBefX4LiLWBWHusDUynrbE91gZi7bE2EGuPtYFYe6wNxNrz+0j+unt6/e+gsb3xcyDWBqbT1tgeawOx9lgbiLXH2kCsPdYGYu2xNlCkbaZhCaDBYGhXdBDAJFDFJFXRAB4qpKpE4hJkqdyRqmgAVUplueynXQrk9Ee/UhUUYC4prvawJFz0kLg8fAlXewgzpiNjpUonPODZuIUxhePmN7SAy3HzbYHLcfNtbOzXuOyjLcXlGPm2wGVs+TY25sK4JC4aUOWEJvk2NmzHJnHhwC2j43RtAE5l46Dyk4X/8FRVXiOPDW4RHWM2KKsj3DI6VrXBdHRs3IIvV+GW8WW4zIff8wjHZV4S6BMux8gngIHLfCQwFzYJ9AeXnxLgcWwJHE/jMkfGq3GZJ1zGnkfgopeEGDelY1UbBL/II+jYLBvMtI4p7kz4coyr6VjEBlV0lLhBi2bZoIovV9FR48Jjk5CyQQcBMg8Gyys5KC+WBkQJ9dDQkJ9sHhxoeHjYlyVLXEq3aZcGjID0y2ck0OfIyIhoPPobHBz0Y5PAXCiHlkREoIGBAbW8m7JwSsclESlX57hSmTw6ckzK3YNDoUnQhZJ+jhvKu9nP5/h5PnMytAjl+aEt9EPJOVzs19jG7+jDmCjPD/sauehIe3DWxjZ0pN8D+/df0sbGvxkP9sNh89ygY3jNQZ6LjvgV48tz0a+/v+/Ca1MaefxER2yA/fJcOP39/b7EPs8N/kh5vqQjYw02yHM50bEBvhM+v2fvPrd4+Sq3et1Gt3L1evf2/EVubHzCtzX2iz5ovD/TOvTX2I5t6Bu9823YhTGF1xyENjb+zVxGRmQb4A9ww2sOGrlsaIiWzC3PRT905DxobAu/j2bn3rhiA47HcbFjnsvnsYHmy8wTbl2+zKsmaMv+53/63zPQZ9l4wlzQEm7+NTCcB3C1Vz7A41yYiXjSCOwGl+PnwbGYK3MO828E50HwxzywH20XdMyB/SEm5BHOA/qXwHiICdKiik3haq8+4TzQYjq+pNmAOWAD+JKOcOCGuNwIPh9bGxlrzAboVGVtJO5LiK2NKRswF+Yk6Rh8uczaiH5wJV9m/kV8WcpPUr4cy09CLNJ8GX01Xw420PKTEE8kX07Fk6q+nIonki8D8QognXIwSUCAOBhIOiD9wZWcGNAn7dJx2Ue/kvgAZwwLTB6MBa50AgBEDIt8HogOV8vs4YXFKQ84cCXDAcbLuOHmN6/jkaNeq7Nn3/f/PpNt/Dx9+ox3Uq4w8e/Q5tuzOXJM2rkadUlbtqExAeHIlJZ5LkEKLp9rbEM7xgoXGzW2eW42xkOZA3OSTI75Uu7JKS5zznPZDmYBiJMnz2VMaLw34/KT41xo4+eZs+5AxiOAXdgX2jMux+O42OiSNn5mx9qfjZcTj3/nucwTLvPOc9EHndDr/PlzmZ7H/GI/PDI2acPMvkMju7J9KzJ7HMs0OHeBi13o9+iUjo19oxXj0WwQdDwm6OhtkOkg2cDrmGngbZDTMWzo723A5xv2T+p4wnPpQ7RBdkzJBow56MjYL+mXn9k49+HLh49c2E9/bBwHX8b2cBvb+H3Sl7FBdp4IXM4P+kbvPJf+9mYJe6MNQuIL8DXGHc7HRhSJJ2zErPwVwNmKJ3kwVrhSXObzzBU9JWAj2mNxmc9IoE+Nm9IxFtNTOqIhWsa4MR01GwQdUzaQgI/BtbWxeb4cbKDpWNYGQcfLyQb2DOAsAeOw4Vhs/H46c8Kxid1uaHSXG9k1lm3jF7excTc6tfH7JW0N7bG2KlzfJrQX7ldoL8xV2prJHd+9x63duNmtXLNhyqIXwZXA9Zu2+M9McjNbNnCrHFdqL91vtpXmTrXJ7RfnK3HZjzZsY1w5y3y+cQtt40Ibn58Rrt+Xfcsen3Dje/a4U2cmF48PP7z4hYxtuuBctmcADQZDO8ISwFlAWFwuJH/ZdjjLyvsGh7NFao//nasVtrXudur0Gdc3MJwlgOvdhw2JAvZk38DQiP+MxJ3rG1cjuXLM1UN1i7XPIJcrjaNjY244+9LFFd0PP/zg4nlZIgmEZwmgwWBoR1gCWDPyyd+HH3zgb1cNjIz6W22G9gGX0xct63TdO3r9pXxum/Iy6MXLO9055RK74eJtl1bZThw/7m+DD46O+ls+nJPh/JxuEgjHEkCDwdCOsASwZjQmgDwHwL14bkntOyA/SGpobRw8dDhLAlf5275c+Vu8otMdOiw/pG6YRHiGpZW241kiuHf/fl/Uw/g4Ny0BNBgMcwmWANaIfPLHFSSuHPUPDfurgIb2xLlz593uPfsuJA+GOFoxAeRKIEVJA8OTlZOcm2WSQEsADQZDu6JDqoYh+FHSrJU7U+lC2bJUDUNApLRbK3cm+NIuVcOwUNAvn5FAn3Clahj6oxSawC6BuTAngnwezAMu1TQSqH6kwpG55cEtJLhSVRifp8Se4zJmNvTuHRx07wtzMBguR7RqAsh53bW9x5/3nJuMM5zjISYQ6ySEeAJvQe41MIFLZZ4Eqr/LxJMQlxm3lKByPLhSTA+xiOcgJaAHsVeKy8RM2rTXsbBfi8vsY0xoLoHxMC7pi1SI6ZoN0EGL6WiQsgGbpCPaw5WqTFNrI74Et661UbNBbG0MNoitjdhgNtdGAK8OX47lJ8yxiA0kHVP5CeOB2wxf1mwQ82XQEXNUJiQZJwQLTWDaEFjihmChOTmD1Rw1FiyCo8YERiRNYN6lowkMD5ElgYOjSgLzebSAz3zZ+JwlgIa5BM5XgmYrbSEB3Nq93f/Ouck4wzkeYkIsnhATWCjy7wFMBeyy8YR4Svzj2BK3SPKhxXQ0IVZpcZk2YrfELZJ8aDqG5EOK6UFHLfkIC58U02PJB3Ngsa1iA8YtacE8NRs0Jh8SN7U2YgPsJCG2NtJfzAZVko+YL4fkQ7NBEV/m+HmkfDnkJ3X5ch35SRFflmzAHMrGE6DeAmYgkkCA/dJAA+riMkFpkgGxfuvixuZDG06DI/ITZz6ZOfbOgQFLAA1zBgTExuSrFTafAGaL+I7+fh8kOTc5Txkr53oqToWYwOekW8B1xBNQhUsbn5FQN1dDXVqA1JjqOG7dOmrcKlrUxS0ynyrcOnSswq1LR1CWm5qPPQNYExAeowQD8A2ALJyHz1l0pG8YBsPliFZOAHv6+vy3cs5NztGQAMaCcSP4nD0DaDAY2hGWANaEkACysaiwuHApnIXHEkDDXEI7JICcm/kEUPum3whLAA0GQ7vCEsCaEBJArv6F278sMiw+LDp2C9gwV9DSCWBvn/+dc5NzlHOVc9YSQIPBcLnDEsCaEBJAfrKgWALY+uBvzu7aNebtZpg5tHICuKOvX00Ai8ASQIPB0K7oINhJICBqlSM8LE2VjsQl4QkPVUsIXCnAso82bsVIYD99x7hS5Q9gPHClb/XMg9tA2m1ZdEAPicviBpefjQgJIG0sMHM9Adze0+PWb9go2m42MLprl5u/YKH/02Qafv37P7iv3Hyr6veGcpjJBJBzSdo/3S0kgNt6dviKwHwCGM5rLZ7gI8QTPptPAFPxhGOxSdDiSQA8zT85XtW4rHFTcZn2WFzWuLG4nIrpsbicskHgSmi2DcroWOfaCDelo8RtVV+uywZFdKzDl+GxSUjZoIMB58FER0dHfUmzNCBKpYeGhkTjMdjh4WFfmixxKfumXTIA4tCv9o4l+hwZmXxxax70Nzg46McmgdLuXVkSIAmBeAMDA35hkEAZNZvkUIjLcfmZR9ACLYOBOQYJoGbM6eD06TNuR9+g25lt/D5b+OvjT7q333l36l/F8NAjj7of332P6oh1Y978Be6Tn/m8G5+YmNrzUfz2D390N916m+jXhvLA5o3J13Q3zi1swjnOOXT69GSyxu9lE8KQAG7YssW/QoG+6JPzkrjF8YgJsXjCa2KIRfnXwNAXMYFjSIBXJp4Ql4lhHFtaoJgXXI6fB8cidvK6Dyku8woLYq8Ul9GENnSSuOwnzkkLI/sYE/1LYDzERykeYgO4JOgSeJ2HFtNZ1zQbMAdsAF/SEQ5cFuw8UmsjY43ZoOrayGckxNbGlA3wJ+akrY1w8S0JsbUR/eBKvsz8i/iylJ+kfDmWn+BnaKz5crCB5Mup/ITxMC7Jl7Ep89HiSVVfTsUTyZdBhyQ+gCA5IkAIOpa4DAiuliWzn3ZJfPbRr+TEgPHEMmy4kvgAZ8CZJS6iw5XEB/DgS1yOBzcvPp9FH4xGO/Nm7Dh21QSQxWZk17hbuWaDm794hd86s99HxyayfutNsEZHd7lPfe4K99U7vp453YQPKlxdGyEoZicA2Lt3n7/at7O3LxPC73K9ff2uq2ubnzef3717j9uxs9d1besWT3L+zu5QdiKOjY27bd3bXW/WF39vdyxz9I2bNrt92QkcgM70tXHTpuwEu3SxGBgYzI6xzb386mvui1++0e3OAjc4ltlkc7b4d2/vuWCL3/3xT+7mr94uBg5DeXBe4fdltjNnTvtzaGBwyG3avMUtXrrMLVuxMvOlbu9z+A7np8SNbfR54MDkFUD+TT/EF3wBf2LMfEY7T/ERNj6bvwJYRzwJCOOUELixuByL6am4rMV0+tS4jAWupmORmK7piIapmB7TUTvPq9igFdfGlA2K6FjGl4vYQNMx5ssg5ctwNR3L2iDoeDnkJwH2DGBNwBg4DBuGC87BYlM2AaSv3VlytXbjVjd/ycps4Vnp/y4tG7+zb92mriw5kr8lzgTefmee+5d/+w/37//5CffW2++4F19+xf2Pf//PbN/H3J8fesStW7fefemGm9yNt9zmvnDlNe7Jv//Dj/s3v/uD+8Zd3/ZXXW7KkqxPZ0nk7V//hvuXf/2Y+/m9v/QJXyNY3D/xmc+7q6/7UpaU3eH+9T/+033/Rz9x3/7eD9zH/utT7tov3eAmsm+P5zPHfvDhR3OeZBUAAHoDSURBVP1nr7j6Wn8L1yeeGV574033P//94+6Gm271/Vx93fU+Qdy9Z6+76zvf8//+/BVXu9/+/k/ePn+8/8+WANYA/L8x+SqykXyR/JGgP/zoX93td37LXXndDe6Ka77kt2uuv9Hd9d0fuqefed5/KSAISv1om08AM1/0RSDZv8NixHlJsMRni4DP2TOABoOhHWEJYE0ICSCLCYtKlQSQfvYfOOg2bd3uFi7tdPMXX0z88htXA/nZ1b3THcqSHelbQRWcyOZw0623u3t/+Wu/sJMA/ucnPuXezJLBiYndbnvPDjfvvflucGjY3f/nh9wnP/v5LCHd52+vfv0bd/lF98Zbb/O/c9n76Weec5/49Oddb3+/O5598zp85IjXaXhkxH3qs1/wfezdt8/d+6tfu//4+Cf8VUSuCH4sO+Zb77zrVq5a7ZO/FSs7/efu/Oa33be++31/qf6Kq6/zSSlXJvl51TVfzHQ84P705wfdVVlCuK27OxvrAvexj3/SrV67NkskH7EEsAZMNwGcTP7OeNve/vVvuU9//hp35bVf9klf40Yi+OkvXOt++vP73ODgsLeb1J+0FUkAi5w7lgAaDIZ2hSWANWEmE8Cjx467VWs3ubfnL7nkqp+2kQS+s2Cpvxp4aoaTGRbzr95xp79dCp574UX/7w8/mLxi0j8w4H56z70+CeMq3We+cKV/7o7P3/nNb/nbblzRe/jRv/jPd65alS3k17mFi5d63ueuuNpfievZscMnbPPmz/efe+a5F7Jk4Jv+d5LQK6/9onvh5Zfd439/yt32tez4mdbgjbfedldde71759157sqM393T4/cvX7HCffnGW9zg8LC/+ve/PvVZ94Mf3+2vKN56+9fc+o0bsyTxYUsAa8B0EkASM/TnEYKbb7vTfe6qL2Z+dJO6kQh+5opr3d333OcfFwjnWGqzBNBgMMx1WAJYE0ICyFY2AWxcgE6cOOl29A24JStW+wSPK4H5xI9972VtS1eudX0Dw1nyJz8jUQU8/3DTrXe4P9x/v/83CeCtt3/dnTp12n2QzfXOb33HffNb380+d9a9/uab7nNXXu1v0eUTwAcefNjzlyxd5j6bJX2bt2x1vIKFxI8HgweHhtznr7rGJ3Tg7/94xid6LM4HDx3ySeNLr7zqnn3+hSyxu/lC0vb0s8+56770Fbd02XL3+SuvcevWb/D7Fy5e4r54w03+1vJdWXLK7WSeKcQ+9Al+/8f7LQGsAdNJADlHeKD5O9//cTL5CxtJ4GezJPChR/7ikzmeeZH6btzsFrDBYJjrUBNAko/YN+BUWx3cIv1W4Woow2UfiwOLH0lT2SuAuyZ2u737Lj7TdzRbuLZs23HhSh9J34XbwstXua7tve5YliwGjO3e458bnCkwn29/74fuyiwBI7l68ql/uC995RY/tw+zOf/wJz/1z9u9/uZb7qtZYvhvH/svt2tszN3369+4W7Lkav/+A1mCdqP73R8mryAuWLjI39rlWa9GcKWOW8svv/a6/zeVx1++6Ra/OLNwcwXvuRdeckPDI+7Ka6/3zxE+/+JLWSJwlXvsr4/7B3nvvOs77ktZckgBCEnnf33yM+7Q4cP+dvXHP/FpfxXyhYxz369+429H/+b3f8jGdoN/nswwcyiaAJKU4UevvPaG+8LVPOv3ZXfFtV++JNnjtu+V195wSfIXngv80ldudVu2dhV6HrBIAsimnfchJmgJoMYDgathLnHr6hfMJW5d/QLjXkSMW1e/oC5uh3S1g6DGVRitVJrgSekxATMPgiff4LVSacrkaZcqaQi+9KuVSlNxykItJU/0Rxk1wV0C5d3MicUoD+ZBGTxXDiRQYk/Zf7hS1AgWG47LApIHOjJXNnQOC9N0EsCu7Tv9Vb1tPX3ueENiR6HH+k1dF4pBNmze5vYfuFjmf/joMbe5q8e9t2i56x0Ynto7M6AKl6txT/3jGTd/4UJ/yzYkTVTu/vDHd7tvfOs7WZJ3v7v7Zz/3V91efOkV98CDD2XzP+Z+myV/r7w6mdht3rzF/egnP3PDI6P+3wE8t/eTn93jOlet9v9+b/5C94f7H/Ca4n93/+wXbvGSpb5t4+bN7pvf/p679bY73ONPPuXOTFV4DQ4Oue9kyeq3v/sD9+vf/j5L9H7tj49Pv5Ilhdz6vePOb7pXX3/D+89LL7/qn1XUKsQM5VA8AZy8cvfjn/7CfeYL17gbb73DffWOb15IAnkO8Lav3+VuuvVr7qrrbvDJ39VfvNHd8Y1vu+uz5I8rhs8896I7lZ2L+Ei+/8YtJICburp8bMB/QwKIj4WYwGclEBuJCSR+C3KvgYFLTOBLiAReF8HGcfKIxRP8lhhGPJK4HA+uFtOJncxViunMk9gr+T72o017jQjxOhbTGZP2KhfWCS0uMxa42EpCsIEUl9GgrA3QHm6IaY0INtDWRtYQuJfT2gh3ptdGAK8OXw75iebLaKz5chEbxHyZcbWLL4MOSSQ6okOcTXNyHEYSiQkwEZxNCzT0LTkqwtGv5myMB4eRBGYscDVnwziILAmMk2M4TSQcjU0SGA7H1U542pgv7XyW+U8nAdy+o9+9u3CZv9q3rHOd6x8cuZDgMB5e/TI6xruUJrU+efKU29E74BYvn7xVPG/hcjcwdGlyZTDMJjhf8fvUdvJkFvSzAHtrlvR97Zvfces2bPRXhn9+32/c5668zt37q9+57dt3uLVr12VfML7vr/o99tcn3NDQsHtn3ns+Cbz3V7/1MaBQAnjgYPYlaZtfDDg3OUc5L4lbxEViQiyeEBOYW/49gPTDea/FE+IQ/OnGE8ZF/GO8EpcFAm4sprN4aYsmcVuKSyGOoZvEpU/6luIy/cHVFi/mwpykuMw8YjqmYjpcKYFgDlVtoK2NMRswTnTSdGR/am3UEghsoK2NKRsU0VGzQWxtRHu4mg3q8uWZyE9iOqbyE0nHkJ/MtA2YQ1lfBuotYKmzAA4aa6+TKxktoJW4fJ79OA3Gx5FZTHCw6SaA8xYt97d8udLH1UAKQkj8eOYugOfZhoZH3YrV6917iy4+I8jvlgAamgmCKX6f2jg/+vsH3A033+4ezRK7gMVLlrlPff5qt2TZiskd//wwa3/SJ3w7duz0uwhwP7r75+6u7/zQB9lCCWAWNLkFfDz7nWPTB+clQZhzVwrGASEmsEm3gFspFgXQpnHZn+JqqMotO58qXNqadVwN9FmF24z5VOHSVgeX/SmuhqrcsvNpFteKQGoCBkF4NhZAFpeqCWDYeN6PW7/c4gX8Wbn1m7v8FT/2N37WEkBDs1E0ASRx40XjN3/16+77P/6pf76Tb+sPPfpXf0uYn7xAfGBw0Cd7XAF87fW3/FWEDRs3uZtv+7r74U/u8efZdBJAKwIxGAxzEZYA1oSQALKYsKjMZALoE7ss2Vu5er0/Dq964fYwCeBHPmcJoKHJKJoAkpRxG+V7P7zb3/LlRc8kdDz/d/UXv+Ku+/LN2b8nr/JNPv/3FfeVm293P/nZve72r981WQmcJYkzlQDGvlUHWAJoMBjaFZYA1oS6E0Cu9K1au/FCAsitX+kdgZYAGpqN6SSAnCNPPvWM+8LV1/srfPwk2QsVv5P7L1YGkwSGz/L70mUr3alTk+dZbLME0GAwzHVYAlgTQgLITxaUsglgd09fpQRw3sIVvnCkmaC6c88+uWrOcPmjaALIxkPLvdn5ccttd/qkLiR6se26L9/kr/5RPbwv8zNuJUt9N24hAdzR12+3gA0Gw5xEB8E5DxZqKl0IihIoaCCIalyCq1Y1RJClnSCbB8GUNj4jgWoi2qXgTH+MSaoaAoyHOUncsEBJVUMAHVhUpASGBQOulNBxLNqoVmJOjIF/TycB3Nk36KuAF+Re/FwkAfRFI1nyODI6PtXb7IHXrWzeut3/vn7TVvfUc6/MSALIq27enLfIvfz6u254dNfU3ovYNTbhXn7jXffu/CWZr8jVWobZxXQSQM7vk9l58ubb7/oreqkkkKuCn7vyi+6W2+/0LxM/PXWOpTaOQwLYtb3H33bm3GxMAPnJeZuKJ+fPf/CR18Ck4gmxpEw84fMhLktcjgc3FtO1uBxieiwuS9WcIBbTQ1yOxXQtLheN6ZIWdcX0RhtISNkAnTQbxHQMNojpSHsVHSVuXToCeM3y5Va1gaRFygZl4wnokIRgArwDiwewpU4JmPytVSkgMNjh4WFfDi1xKVemXRKRCdIvn5FAn4xLEoL+4DI2CcyF9+FIDoUGg4ODXigJvBeITXIKjAYXA+TB55krY0YrjsMxppMAnjn7vhscHnXLV00+4xeSvFgCyE/aO7P2XWO7fZHITAHfOJ1pffjIUXfw0OSrEM6dO5859qRNsPiJk6fc2g2b3e/uf8wnbJu2drtnX3ojW3AP+b9PHF5ZA45kieL+bP8HU39KjoWUv2DCPhIBQP+8A5HPPvnMS27egqVu6Yo17pHHn7nkJdn8/sjfnnaLsgX5pdfe8ccM4zI0DyGAFd1CQHvtjbd8RTBX9xpf/hwSP14Wzbv/7rzre27d+o3ZOXbKB2Cpz/zG50gAN2zZ4l+jwLlJDOG8xKc5XzmvtXjCqxXC+8Lyr4EJ8YRjSOBdYrxiZrrxhHOPGMaxpUWGeREDpZjOsUZGRvwrLqS4TCENXCkuowlxDJ0kLvtplxY39tEv/UtgPMxJiofYAC6JuAR0QEspppNYoCN65sEcgg0kHbFbzAaxtZGxajZgnNig7NpIW5m1Mdig7NoIF9+SEFsb0S9mgyK+LCXaKV+O5ScpX+aVNpovh/wk5svYQPLlkJ9U8WUpnjCHsvEEdEgiAAwvORNgglrmzj64kgiAPmnXuPSrcTEKRpW4OBFcSUCAAaQTCyAcXElAEONyPLh5J2aM7EN4NsbO53Ds6SSAAbzfb/vOfrckS3x4ro9K4HwCSILIFb9lnZN/Cu7MGfnbRhWMj+9xv//zX90TT7/of3L7iwTvqede9WPpHxx2jz7xrHvg0Sfcd3/ySzdv4bJskd3mfvfnv7i/P/uK++39j7rFWZLKlROSxAcefdL9+bG/u9femu/H+2KWuD3816fdX558zt3/yBNu9559bu/+A+71rH1sfLfbtKV7aiTOPZolgL39g1P/4kpjl3sqOwagr8eyPoZHx/y/Dc0D5wh+P52Nc4Zn+UjseP/fDTff5l8F88nPXeW3z155nX8p9CN/+ZuvCubKX9Hkj80ngAcOum09O/y/OTc5xzkvOW8ZM2NIxRM+m78FnIonxLDpxpMAuNLiBAJXio8+TiRietm4HIvpzAOupmMspleJy4Eb07EOG6CRxg02KKNjygbttDYGFPFljZvyZbiajmVtEHRsNRtU8WV7BrAm4ASIzoYRMBCGYLEpkwAGcAVt87bJv/BxSRXwyrX+NvG2nl53tMZbn0PDu3xidiKby4FDh91Df/2HT7z+9tQLbt/+g/7WK1chSbyeeOblzGk/dFu7d7g/Pfy4v6I3MDjiE0SKWx76y1M+qUMLEspVaze4vz/3invnvcX+WNzmfSfrDzT+FRQS3wcz7qtvzrskCPT0DrgHH3vKHTt+wu3dt9/99oHHsn39U62GZgH/b0y+im4kaWcy3z6cfWtevWade+mV19wLL73qN64Obu/p8ecUAVvixzafAB6018AYDIa5C0sAa0JIAFlMWFRmKgEE9Dmxe69PrDjGyVOn/Z+M258lYNK3j5kECeAzL70x9S/nb7Nu2Nzlb8vyrOJzL7/pX1I9smvc/e0fL7pz7593m7u2uxdefdt/ntu0Tzz9klveudY9/fzkVUPALd1X3pjn++vqnny5L1cKX39ngf8d/PPDf/qXX9P30hWrfT/jE3umWicTjbfnL3Z/zJLNx//xgk8ASTANzUXZBDBs3MY4e/ZM5vfnL2z0OZ1bvvmtSAJY5FyyBNBgMLQrLAGsCXUmgAH0HY7DNhsgAXz0yWf98U6fPese/ts/3MDQiBsaHXN33/sHf5uXxXlgeNTfxgUkgM+8OPm3f7ml+3iWGPK3ix/+6z/ckSOTzzU88+Ib7r3Fy93zWQK5MWsDC5esdK+/u9D/znODe/fu91f9Pvzn5Fwf+dszvsAkP39u/5I88rzgqSw5NjQXVRPAOjZLAA0Gw1yHJYA1oTExYwGsIwFsBri6d9/vH3LPZgndg3/5h3v+lTezuWTzO/u+u+93D7q3p27fUvzxB/+M4Eq3Zv1m9/RUAsiVy0cff9a38+fqSAK5/fvU86/629skius3dvnPzl+03Ff8UjzCbWGKTl587W33WJaAPvnMyz5ZpNJ33YYtbtW6jZ4zsWeve/HVt91f//6cT0wNzUe7JoBFYAmgwWBoV6gJYEheJJDcECQ1pLhaG6BN++ZdhUtbjBuupkmIceFI3DBWFhQeDr1cEsDhkTH316decDt6B/wWCk3Onf/AF4L0Dgz5f4Pde/f5ZwGPnzjhkzvAvPcdmLxVjWS8o7C7p9dXDgOeK+SWNiC543nG06fP+Ne7wIG/s2/Ac8LnSCZ5/hAcO37c9ezs91XKhtZAKyeA23f2qglgkZjAJiWAMx1PAlJc2qocV0Os33BcDXVxadO4cJppAw1VudqYqnBpq4MLp1V9OXVcDbRpY6rCpU3jhvnUwe2ggiQPOqO0WytXJ4BS7kzAzIODUd5NObUESrRpl6p/CL70q5VZ0yclz1LyRH9wtTJr5sKcWIzyQAPKyqVydUCZPGXaklOxcMDlZx7oyFwZM8cID6u3cwLYPzDs/vL3yVu7AYezOb3+9nz3/Ctv2ZUQw0fQygngxq1bfVzh3AwJIOctv3Nex+IJr17A3/PvAUzFE2KJ9vqLWDwhFnNMXjchcTkeMVCL6cQh7fUXzBOuFJexH3FMewUJ+2mXqjLZR7/aK0gYjxaXsQFc7CUBHbTXX2DPlA2I65KOVH/HbBBbG/ErzQaMExuUXRtp09ZGbKCtjcEGZddGuMxLQpG1ET0lFPFl7JhHypfxF7hSfhJ8WbMB+mq+jLb0q/lyyE8kHUN+Upcva/Ek5sugQ5oooiIug5UEplMGLDkbE8ChcBjtBKFvSSS49Ks5DA6MyJJIjAWu5DAAo3GSSCJhHLjSSQvg4RgSFw7c/EnL3MN8mC/OiBHQtJ0TQK7IUVnbqMX+Awf9M3f79ssnlWFug3Mdv2+lzSeAmd9u2dbtz23OzZAAcu5yPrO4xeIJPOa2MHcFsEg8gT+deAIYF/GPOCjFVuYAV4rpHIu4zNwlLjGX9lhcZgGSuLGYzj642gIUi+kpHdE/FdOlJCDoiA2k+aRswFzL2IA51rU2YtfU2qjZoO61MWaDMjry+ZQvw43lJ2V8OehYR35SxJclGzCHsvEEqLeAJXEaEWtvRS5tVbgxSO3swyA4EsbHADg1TtvOCaDBMF1wDuD3rbT5BDALnDwDeDz7nXMzJIAEcM5dKaAGhHOen9It4FjMiLUB415EXdxWHBNoBrcVxwSMexF19WtFIDUB0cMiwqJyuVwBNBimi1ZPAK0IxGAwzEVYAlgTQgLIYhISQC7/svhYAmiYS2iHBJBzM58Apr5ZA0sADQZDu8ISwJpgCaDBMImWTwCz3y0BNBgMcw2WANaEkADykwUlnwBqD2UaDJcbWjUB5OHpHX39agJYBJYAGgyGdkWHdCWKpIUgqVW7ECipOiGw5wGXahieqZFAVQpcgmwe7KONYCyBPuk7xtWqlZgLc5ICO/OgCod5SaBiiEVCuiJAlRJcrfKOMYW+mRf99A0MuiPZT0N7ghdML125xi3rXOsGh+1l0ym08hXAbT09F2IOX8oYK+ctcZHzNhVPzp//4COvgQnxRPuSx7HLxJMQl7UKRo7HXMrE9BCXpZge4pgW09GO9jJxOTwXrcVluFpcDjaQtAj2q8sGmo7BBpKOcNtxbYzZoOzaCODV4cux/IQ5VrVBzJfpu118GXRIDsUEeBcO5cNSp0xkeHhYFAKReO8MpdQSl2/dtEuTYaL0y4AlUL7Nu3SkySDs0NCQN4AEXumgvaMHDQYHB72IEng/j/aOHhyY40rOGLTguIwPvfj82Pi4GxwZdR9Vx9DKwJ95AfXyVWv9i6lHxsazJHCN276jT/R1wyQ45whurbKFhWdgaNht7eryMYlzk5jEWLEl/yYmxOIJ704jFi3MJYDEE2KCFk/glYknxGViifb+OuYGV4rpHIvYSQyVfJWYS+yVFig0oY1XXEhcYr0W09nHmFgzJLDGsNZICz02gMu8JPDuMy2msxjDRc88mAM20N6dht1iNoitjfhLzAZV10Y+I4E+tbUxZYPU2hizQWxtRL+YDYr4spSopXw55CeaL6Ox5svs12yAtkXyE8mXU/lJEV+W4glzKBtPgHoLmAFLEwEMkpNTEpB9cKWJAPqUDAPg0q/GxQAaFyeCK4kA4EpGBYErOSKAJ51YgONJXObCPk4gNvj8xCA4aF9mFBIIrV9D64G/LrJkxRp3siG4nzhxKtu32h05ald0Nfzznx96v2+FjUDI4jKanXv9g0Nud7YAsZ9zmPOc2MN5G87rWDxh47P5W8Dsm+l4EkD807hF4nIsppeNy0Vieh1xuQo3pmPdNqiio8ZlPBo3aFGHDZrhywBuKj+RYDa4FPYMYI3AYdgwQnCOsADxTaN3YMD1Dg664V1j/m/YTmTfKm1rzW1P9g17w+Yut3bD5inrXsTq9Zvcxi3b/Gck7lzfxnfv8T7e9G10l//i1Z9tXP07cPCA/1bNN2zOTc5RzlWCpbbw5MFn7RlAg8HQjrAEsEawiLBAsKjwzYJMnauALDpcBSQJ3DU25gayJHCQRSn7ydafJYa2tdY2NDzsNm7e6uYvXp59o7r4Le/UqdN+36atXf4zEtc2/Br/nu1t8nzi3GLDPmycc9wy4xzkXOSc5NzkHLUE0GAwzBVYAlgjQgLIxmVjrjBwOTZcBeRZApJAnh3gGYDwPAX39G1rrW2CLbPN4mUr3OLlq/xVrbGJPW7RslVu6fLOzH6Z7XIc21pjC+cV5xjnGucc5x7nIOci5yTnJudoOF8tATQYDJc7LAGsEWER4Wf+KiDPHbEA8VAoD/ZyRYLFiYeL2Xg4tvH3/BZrY2smV9rP1u5cfpJIbNyy1b3yxjvutbfmuS1d3T6xkPpo5E6nja0qV9rPdrlxU22cU2HjHAvJH+ddSP6kq3+WABoMhssdHVqgIxiySSDo8W1Z49JWhsu+8C1cQuBKSHEZTxWuNp/Ajc0nLC78Hp4FDLeCWYy4FcVPNpJBNhaqsIjxe35jQaM9LGqNG/uqcvlMvo0tLLZSWxGuNqaZ4ErzYaNN48a0YMtzsc3Jkyfc4qXL3aKlK/xfkWj8fOMWm0/suEW0oF1qmwmupgVcTccUlzaNO10bNG4pLjzawvlF4sd5R/IXtnD1j3OUc5YtxJpUPKE9nwCG875KLOKnBNrKxCIQ44b5xrjafGLcMKYqWtTFLatjjBvTAtBWhpuaT+BKSHEZTxWuNp/AleYDqnBp07gxHUFVbl061snV5qO+BoaSZIKnRCSIUirNt+c8GAyl0ARdCQRh2vnWnQeJEv3yGQn0SQk+ATsP+qNEWyuzZi5amTXz0MqsQbg9KzkNCwjH5WceQUe4wYD0wfiZK4tXT0+Pnxd8rgoyBn4yj+3bt7uBgYELixZXDNloR6dt27b5eTW28TtJCm28xiLsa+Qy1+7ubr9A5tvY19XV5ftvbGPj34yHcXGMPJexwMVGErevr8/t2LHD2zfPZRGHyy27xrbwO7ydO3deeG6rkQsHLnbKc4OOHFvSkbGiFcfPcxknOjHnsI+f+MuqNevd2/MWZP32ejvmucEG+EZjGxvHxTaaDfAH5sN5kufy7/7+fu83ko7BBvhdnsuGhmgp6Yh+cPHXxrbwO8fs7e0VuRxPswGfxwaMW7IB89R8mTnGfBl90TFvA86nYAP657Pso+AjPPOH39Av9uTcZAvxji9pqXgCn3M5/x5A+gt2l4C+bBwvjyLxBF+VuBwPrhTTiTv4OjpJMR0bcc5LVYzELtrwVQns12I6+jAm+pfAeJgT8TCPYAPsKQEdsIEU09EALnaXgP74qqRj8CvpFSTBBthf0pGxwq1rbcSnJWCD1Nqo2YC5MCdtbYzZILY2ol/MBtiuDl/mnI35Mhprvoy+MV+mX+wkIeQnMV/W4kkRX64STyRfBuqLoMMCLwlMZwgocRkEbVIAA+ynb2miGBYRJaMDxoP4krMxFrjSiQdwYE4ASSQMC1dyGAAPw0lcOHClEw/tGC/Hhsu/+cn42TgxMByawKevsKEBDhHmxD5+suGcaMhJC7exjd+xD46IHUJ/jVz6hMvn8m2MCS79N7ax8W+CBWNmfBoXvfJcNpycgCFx0QguOje2hd/hwW/cxwaX48GlD4mLjgSLxn1scLEPXMae56IPOgXfCO3YjmrgJcs63f59k8l7nss+TUeOy3gYV8wGjC3P5d/ooNlA0zFs6KjZAE5MR46J/Rv3sTXqyDma5xbxZbgxG6R8OW8D2oINGBv/ZuM8I1YQf9iPHfidc7Mx1hWJJ+iFL+SvABaJJ/CrxJPGsQYwVrhaXEZnNJa46IzGWlyOxXT6pG8+lwf9xXQMMV3SIqUj+msxPfgGPyVwTPiSFkVsoK2N+HrKBpqO7Kc9ZgPsJCG2NqZsgD9pOhbxZXSUuEHHmA3K+DKfb6YvY2MJMV9OxZMivhyzQZl4AuwZwFkEzoqRwoaT4VT8xEHChrEaN2lf2GJtbFW4sa1ZY2oFLli3cYt/LQxohTHlN+Ne2hY2zrdwzoXzEHBuSotJCnDsGUCDwdCOsARwFhEWGTYWnvCTxShsYYEKi1R+X5E2trLc0DbXuFIbm9QOSP42b93uf29sa9xifRdpa0eu1MbWDG5ok7Zw/jVuZUA/lgAaDIZ2hCWATUJ+8WFjMbGt9TewaWu329LV43+XPmNb623SOVcV9GsJoMFgaEdYAthESAuSba2/AZ8AbptMAKXP2Nb620zAEkCDwdCusASwRRBbnPJtqfZG5NtS7Y3It6XaG5FvS7U3It+Wam/EdNpS7Y3I7ycB3Nq9w/8OGtvDZwLyban2RuTbUu2NyLel2huRb0u1N2I6ban2RuTbUu2NkPbNBCwBNBgM7Qq1CpjKEqpaJFDJQiWNxCUghgodCVToxCqdaEtVSfG5POiPMdVRoUOFjVbpFKs2CzpqlU5U6DBmHlTPg8+HajMJRWxQttqMNq3aDLtqOgYbaDoyF63SCQ1ilU7or1XtFbFBGR3hooXE3bpth1uzbqO3raRjERugYx2+HLNBWV8GMRvU7ctV4onmy1XjCX7F5/KvgQnxpC5friOeMM+UDcrEk6CjxZP2XRtjNqgST8r6MsdqxXhCn7RLWhSxwWz7MuiQDMsgeLVCmffsIFJ4z47ExXCpdx0hhAQmwrgkp2AscHEoCeG9XZJhMUrsfUXh1RnSycWJp71nBx05JseWDIvRGbPkFByLV1gwZ0lHNEJHyQbMkTacUeKyn3ZJR/bFbIBPYAPp5ErZILy+RLIB+mk2YA7w4Es6wonZIObLjJUxS+dBzAZd3Tvd0hWr3L7MtjFfxt+l43J+0LdkA/qDy3kmIby3S7IB84CrBUf8GC1jviwtMswBX9ZsEPNlPh/z5Vg8qdOXq8YTtCTxW5hLAFPxBP3rjCfT9WUQ4onky9iAfjUb4MspG2i+HIsnKV8uEk80X25mPKmyNvIZCfSp+XKReBJbG2M2KLI2xuJJmbWRz7dyPGnG2qjZIObLQL0FjNNIgwEcSHJSwIBokwYD6FMSF8wEV3ImgFEkwwA4VbmSMwHGW0XHGLdOHc0Gk/PRuDz/x21gTae6ddS4deuocWM6AtrK2oC2KjrWZQM2Ppe/BVy3DaroGOM2Q8cYN6VFVR2bYQO4VXSswwZFdKzCnWkdAW1lbUCb2WAS9gygwVACm7u2u67tO6f+ZZirIMDaM4AGg6EdYQmgwVACJICNRSCGuQlLAA0GQ7vCEkCDoQQsATQASwANBkO7whJAg6EE7BawAVgCaDAY2hUd2sOBPFQYe8iShx01burhTo3LPtq0hyyrcMMDmmW5sYcs4fJTQuoBzRS3io512CDoKKEddQxcSQtAm8QlAaQI5HzWd4yb0rGsDTQtAlfTohVtUMQfq3A1Hatwg44ffPDRBDBw69KxCrfVbBB0lFCF2ywdA1fSAtBWl45VuMwpxtW0aEUbFNGxThtIKMJtho4dsTJrSpMlISiDprRYK3Wn3Fkrk6fMWivRZhL0y2ckUGatlWhT6TI0NKSWaDMX5iQZHg0GBwfVEm3KrClZl4xHiTvHlUrd0ZGycEq0JQNQ6g5XKtHmWMyVMvnp2oA5orH2ugH2045meaAt/WqvG2A8jEtyOGzKfLTXDaADekg2QANsIL1ugDmgP3aQdKTUPWaDmC8zVrjSeRDzZf8amOWdbk82p5QvS8edCV+WbIA/wK3iy9rrBsr6Mp+v6svaKx9CPIn5cpl4Enw5ZgN0hCu9Bgau9uqM4Mt1xRPNl2M24HxHK8mXsQFtZeMJY4rFk5Qvl40nmg2YQ6vFE9CqayPcVoonKV+uO55ovoxdGVcdayPclC9LNoj5MuiQDkiniAhJEgmnQASJizFpkwwH2E/f0mDZhwEkwwHGg4CSwzAWuNLJAxAPJ5a4GAyuZHQAD76kBRy4ktH5POPFCBKXscLVdCxiA0nHYAMpCIGYDYKOmg2YSx024ORqhg2YZ8oGki/zIujV6za6k5l9NF/GBjFfpu+yOmo2KOLLbDEdpUUElPVlPl/ElzUb1OXLVeMJG8fNXwG0eHIRKR1j8SSlIxqm4knMl+uwQdl4AmI6si8VT6r4sqbjTPhys+JJXb482zaoa20E9gygwVACVgRiAARsewbQYDC0IywBNBhKwBJAA7AE0GAwtCssATQYSsASQAOwBNBgMLQrLAE0GErAEkADsATQYDC0KywBNBhKgATQ3gNosATQYDC0KzqkCh2qSagcoaJFApUylDxLXAIiJdZUpkigUgauVJVC5Q1tVAZJoNKFvqXKIPbB1SqsmAuvK5Cqe5gHJeVaZRBVQejB3PKgqgeuVN0TdIQvVehQTcSYpeoejsV4NR2DDTQd0Qm9JKAv3JiO2EkC46FvSUfGkrKBpiMaoKNWYUXlFpukYxEbaL6MzRnzdH2Zq3+r1qx3RzLb1uXLmg1Svgw35svoOF1fBuio2SDmy3ye8dYZT2I6lrFBUV8+d+68W5B7DUyIJ3X5ch3xpEhcriueaL48l+IJKGKDVownmg1iOoK6fLnI2lglnsR8mb7bxZdBh9Qpg+DdMkxG6pTB8t4gqVMmTxuTkbgMlPfdSIZFJN6jo51cGJ1xSYalP7hakEJ83rUjGRYNePePdnLxniQ2ybA4A8eVDMv8eT8Px5YMy1jhSjbgWOjEnGM2kHRkjrRpThFsIAUp9sVsgE8wJ0nHlA1wRM0GBBhsIJ1czAEefElH7MZxpSAFN+bLnLQpG0i+zHsAl61Y5fvVfBkbaAGuiC9rQQp/0mzAPOCW8WV8GG7MlzUbxHw5xJOUL8fiSR2+XDWeoCPc/HsAgw20hSL4civFE/y0bDzh/EjZQPPlWDzBH+BqvpyKJzEdWy2egODLqXgioV3jSRlf5vMxX27W2hhsIOmYiidFfDm1NsbiieTLQL0FjCNJHQIMIDlaAG2SUQF9VuFKAgGEgCsZFcCrg1tEiyo6luXirGVsELSowm2WDTQubTNtA24Bs2k6gao2iGlRhZvSUQNtVbhVbFBFxxhXm09RHWnP3wIuypVQt45luXX5chVuTMfA1UBbygbacWmrYoMyOoKUDVJaVNGxDLeIFlV0nG0bBC3a0QYa154BNBhKwJ4BNAACrD0DaDAY2hGWABoMJWBVwAZgCaDBYGhXWAJoMJSAJYAGYAmgwWBoV1gCaDCUgN0CNgBLAA0GQ7uigwAmgaoVHjqVwAOHVGjFuNqDlIErPZTIPto0LvtTXO1hSLiMS+IyD7jaQ6XoIFUUgSJcTUc4cCUdGWdMxyrcIjaI6ahxgxYatxk6Ao4509wt23rcpi3bfJtmA/rVbBDTsYgNGFfMBjEdW80GwR81HeFW8eUyNghapHz5gw8+mgDWaYOYjjEbFNVR49JWxQaajvTJuKrYQEIRG5TREZS1AShig5iOGpf9KW4VG8R0nG0bMM4iOlbhltVR4wYtNG5VHTVuyh87pBJtPkzpMOXd0mQoRR8aGlJL3YeHh315t8SlBJ52BpUHE6FfPiOBPnlViOQ09AdXK5NnLpR/SwagRHpgYEAtk6dcnfJuyQCUxw8ODopl8ujIMSnTlgzA8RizZAOOxVwp75Z0pFxdswFzRGPtVQWUq9MuOU3KBowH35BOoJQN0EGzARpgA6lMnjlQmo8dJB3hYAOpTD7ly5T0M2apTD7YQPJlXgOzZHmnn5Pky+iDxtqrCrCN5svYhTFhYwnMRbMB/gC3jC+jn+bLzAHbaTaI+XLKBrF4UqcvV4kn2D28LiL/Ghh8CR21Vz7AqzOexHw5FU8kX07ZgP2aDVK+HIsnwZe1126k4olmA+bQavEEpNZG2vB3CTMRTyQdmQfcuuJJypfLrI3NiieMh3HVsTamfDkVTyRfBh0SiU4xAMaXRGIyOLrExZi0SeID+qRvyeiBK50AACEQQeIiHFzJcAABEEOaDwbDMNLJA+DBl7hwOK5kOD7PeBm3xGWsMW7MBuib0rGMDbBpu9pAOvH4fBEbaL4cbJAHVwDXrN/kTmdtMRvEdEzZIKZjygYxHTUbxHQEHFOzQRVfriue1O3LbBwjfwUQ/eBW8WVNx7K+nLJB3fFE0zFmg5SOaBiLJ3DL+HLsPODzZW3AHNGpjI7BBmV8OWWDIjpW8eWYDVI6VoknMR3bbW2EW4cN7BlAg6EE7BlAAyDY2zOABoOhHWEJoMFQAlYFbACWABoMhnaFJYAGQwlYAmgAlgAaDIZ2hSWABkMJWAJoAJYAGgyGdoUlgAZDCVgCaACWABoMhnZFh1SVQjUJpepa2TgVJ5QtS1wCIuXQVJ5IoEqGsnOpKoVKGdr4jAT6pG+pMoj+GBMVMRKoMGVOUnUW86CcnSoeCZR9Ux7O3PKgmojjSlVF6Ei5OXypQoeKI7hSVRHHYrxa2XiwgVQZxBzRiWomCewvawPGQ9+SjoyFMTE2CfgTekg6ogE2QBMJ6M8W01GzQcyXsTncmC9LNiD561y9zh3KbKvZAB1jNqjLl+GW8WVsoOkIyvpyygaxeBJ8ebbjSfBlzQbBl8+dO+8W5F4DE2xQxpebFU+YJ9yyvqzZIPhyLJ5ovlw1nsBtxXhSxZctnszM2lhnPGklX47FE9ChCcxirHWKs/HuGS1g804aJiRxMRrtknEQnX41J8dZGJdkHMYCVzMO4mI8yTiIwzt4NONgVM2wnBhwJeMwf8TXDMsJyZgl4/B5dNJOEJyNdskGOCr9onXMBpKO2CVmA3yCOUmBJthACzSctGVswBzgwZd0hJOygebL+Atjls6DmC+TAC5budodzPqVfDnYADtJx435crBBzJc1GzAPuK3my8xV8+Ui8aQOX64aT9ARbv49gKl4Eny5LhtoMR2dUvEk5suaDTg/UjbQdIzFk5QvF4knUuLCHFotnoDgy5IN0JZ+tcSlajyJ6RizQSuujbF4gp/BrTOeSL48G2vjdG0A1FvATEIyDGC/NMkA2iRxQVWuNMmAGBeexoUTGxM8TYs6ubRp3Ko6atwwphi3WTaowp1pG3ALmE2bK4hpUcV+zdSxLJc2zQZVtIhxw5hiXG0+IMaFB5/2/C3gcFwNgSuhTi5tGpf9Ka6mRVVuWZ+C1yxuFRvEtKjC1eYDYtxmaVFVR41bVUeNG8YU47abDewZQIOhBOwZQAMg8NozgAaDoR1hCaDBUAJbsgSQPwdnMJAAnj+vf/M3GAyGVoQlgIY5Dy6THzl2zO3Zv9/t3pfe9h444Fat2+hWb9jkf5c+k9/om2NotwAMrYEzZ8+6fQcPZjbb9xEbStvEnr1u3qKlbtfE7sL+Q//SM2IGg8Ewm7AE0DCnceLUKTcwPOIG+QPv+w+4Q4ePuIOHD0c3PrM/W8TZin5+T5YoDo6MZsca9cc0tBY+/OeHbmLvXtc3NOzGeMj/0CHRltK278BBd/CQ3JbfDmQb/fcODfnjffihfSEwGAzNQYf28CCVJ1IVDaBChqoS6aFFrnAU4UrHhUubVAUF2E+7dBWF/miTqncA42FcGpdqGe1hSb6ta1w0SHG1b/tw6tIRbkrHmA00HeuyQRUdA1fSEWg6nj57xvUPD7sjR2fnyhzHOHzkqD/m0WPH3BlFi6q+DDel40zbIObLoIgvS1zGWYQb8+XYeeB1zH4nGRsdl6so68C5TK+RsfHsuPum9kwiZQPGW8YGdeuocYM/Jm0g+GPgljkPqvhy4Eo6gpiOwQYxHeu0wUzrGLgxHeuwQZ2+XIWb0pH2mI5lbFBER7gS4MR8uYPGPBjsKFdE9uwRB0Sp9FD2DVY6KAcazhY4ypIlLuXztEuGx4npl3JqCfQ5MjIingT0Nzg46McmgZJzyqElETHMwMCAWt5NWTgl3JKIlHVzXKm8Gx05JseWHIrjwZVswLGYKyX2ko68SkCzAU6GxpTYS1z20y6dBCkbMB58Q3LklA0okddsgAbYQHpVAXNAf+wg6QiH40pl8pov8zuLPldlZhuHsmP27NzpdmXjknwZuzAfbCwBf9JsgC/D1V4XEfNl9IMr+TJ6YTtsOF1f5vP4cpl4gq/EfDnEkzK+TDxhTtyaH1V8q05wvOHMFqcbYmGz44kUl/Ez2srEk5Qvx+IJ/gBX8+VUPIE7W/EkgLHC5TzMYybWRj4jIbY2Fo0n2toYs0HVeFKHL8fiSWptrBJPGA/jqmNthJvyZckGIZ5IvgzEK4B0ClESECAOg9G4tElODNhP3xKXfXAl8QHjYSKS4Zg8XOkEADgyQkpcRIcrGQ7A07hw4EqGA4yXY0tcxgpXMhyfT9kgpWPKBjEdNRswl7I2iOmYskFMx5QNJB3fzzjDu8ZUTp3g6k/f4JA7nAXVMjrGbNCuvgy3SjyRxpTyZcbDfHjeb7+yONYNHiPYmy1GAe0YT+gzZYPZ9uXALaNjmXgSUMQGKV+O2SDmy5qOzbJBK8aTlC9XjSdlbVDElzUbVPFlewbQMCfBw/7D2TeuZoHkkyTU0HyM797jrwI2Axx3fM+eqX8ZDAbD7MESQMOchE8Ax8am/jX7IAE8q3wbNMwuxvfsbVoCePT4cUsADQZDU2AJoGFOokoCePZ9HhQ+7U6dptCm3FU8SwBbB5YAGgyGuQhLAA1zEmUSwLNn33d9/UOuc+1Gt2DJSrdwaadbtW6T6x8cnvbtXEsAWwdFEkCqt3eN73bju/cW3vg8vBgsATQYDM2CJYCGOYnpJoCnT59x6zZ2ufcWLXfbtve6PfsOZNt+t7V7p9+3aWu3TxCLwhLA1kGRBLBr+073xrxF7t0FS90789Mbn3vj3UXJvxZjCaDBYGgWOqRqGKpJKHOnJFqqLKFKhrJjqRqGKhtKu7WSc8q7KXmWqmGoVKFNKzmnhJq+pWoY+mNMVLxIoHSbOUlVRWhAKTXVNBIoGafMXqoqovoGLj/zQDtKwzUdqfphzFI1E8divIxb4jJPzQbMEZ20knP0TdkAO0nArvQtVRUFG+AfEtABPWI2QBMJ6K+V7sOBK+nI5yUdp5MAYotNW7a7JctXu337L+3nQ/rPEsHFy1a7rVmSII1Pws7+ATeqlP3j30V8WeLiD3DL+DL6ab4MsF3MBpovazYIiMWTlC9XjSf7My3wAxKxGLbv7HfzskR/3aYu/3v3jj51o53PzVu43G3f0T/Vg4x8AjgT8USK6VXjCTqWiSfBl2PxJOXL7RBPAjjvYjZoxtpYNJ5oOsKtK57UsTbWHU9acW3UbBDiiaQj6JBECgIzIUlgHAkhYsECR5W47EckTeCYo8aCRRBYc1QERqSYk2sC4+RsksAxR2X+GBVHlbhFg4WkY9FgEbNB2WDBnGbaBuin2YA5wINfxgZSsJhOAshfeli0bJUbHtU/3zcw7BavWO1fKl0EvQODbld2/CrBQuIW8eVYsICbSj7K+HLd8aSMLzOegwf2u5HsM6kEkMSOBJBbu0UwPrHXJ4DdPX1Te2TkE8CZiCdaTK8rnhRJPjRfjsWTlC8XiSdlfLlMPAkoknykfDlmAy35wAaptbFs8hGzQWxtLBJPUr5cZm0M8aSML1eNJ3XkJ3WtjUC9BcxAJIEA+6WBBjCQGFcaaEDquCmuBnh1cKtq0ao6VuFqgNcsbn4+00kASe6WrFjjTpyUv8kCEr+lK9dEk8RGDI3uuuQFwHk0Q0c0qotLW8ynUseNcbUxgdRx2fhrHKlbwNuzBJBb/eMTk8na8RMn3e6MRzEQoCCIf7MfjGWf8wlgxoshnwAynipaNEvHFFdDFS68ZnFjWlThNms+dXCratEsrjYfQL9VuBrg1cFNaWHPABrmJKaTAO7oG/QJoPStPoBkjs/0DgxN7YnD3gPYOijyDGC4Ajg2MXkFEJ94c96izI7j/t8jo+PurfcWu519k/YnUSxzBdBgMBhmC5YAGuYkppMADo2MuSXL10Rv7x46fNR/ZmTXxNSeOKwIpHVQJgHkVvD6zdvcvgOTz3Pt33/IbdjS7SZ2T/5tX0sADQZDq8MSQMOcxHQSwKPHjvsCEB7u10Bl8JKVay7cAkzBEsDWwfQSwGLJ2ti4JYAGg6G1YQmgYU5iOgkg6MmSP54B6x8acecbnqk4f/4D19c/7JOD3v7Bqb1pjIyNO/4msKH5KJMA4j/HsuQtvAicn8eOn3DhVUCWABoMhlZHh/aAINUjWuUIFS1UFElcHjqk0kWq3gE8RwVXemiRfXC1Z63ok3aNS78al7nAlR7gZB5wpaohQBUTekhcKn7gSlVDAJ5UBQXgwJWqhjhWK9ugjI7MpayOaFhGRyDpON0EkAV+a/cOnwTu3Xdgaq9ze/buz/atcNt6eqeV0A0Mj7hDhw6LWgRfjunYTr4MGG8r+vKpbE67qMyc7jOAvQPu9XcXuqGpop/hkTH/TODOvskvAWVvAddlA3SUzoOAOm1A2+UeTwICtxm+THvMBpdLPOFYzfLlIjYoo2NVX4YrIeXLHRKRiY6OjvqSZmlAlJwPDQ2JBmCiw8PDvjRZ4lKuTLtkAMShX0rDJdDnyMiIKCL9DQ4Oqu/3obR7l/LeNQQcGBhQS+wpo2aTHApxOS4/80BHjsmxJYfieHAlG3As5kqpvKQjJeeaDTA6GlOeL3HZT7vkyCkbMB58Q3LGYANK6SVQfq/ZAA2wgVRizxx4lxF8SUc4HJeTLw/Nl6ebAILDR47518H0DQ77W73Hj590vf3DbtHy1f428XSwo6/fDWRjPif4MnZhPthYAv6k2QBfhlvGl9EPruTLaIftNBvEfDnYQPPlWDzBV2K+HOJJGV8mnkxkWgxl8yIRiyFfBcyznp1rNrrd2RcAwBeBVWs3utGx3f7fZauAZyKeSItq0XgixWX8jLYy8STly7F4gj/ALRtP4M5WPAlgrCkbVFkb+YyE2NpYNJ5oayPcuuJJHWtjLJ6k1sYq8YTxMK461ka4MV9O5SeSL4MOSQTAQSURAELQoWQ4+oMrOSKgT9ql47KPfiUBASLikBKXscCVBAQ4g8ZFuBgXnuRMAA5cSXzAXKUTGjDPlI4xG6R0LGODoGMVG2jcVrJBuQTwqFuwtNMv7PwpODZ+Jyk8cnR6CSBXAA9nwaAZOrJJKKKjZoOYL4OUL2tc5gi3Ll8+m23TuQU8kX02IH/Mxn9P7C73HsCUDbDdXIknKV8uch7EdJzJeBJQxAZldGRfWR1TNqgaT2ZbRwA3FU80HcvaoIovz4YNJG7KBvYMoGFOokwCSNAYHZtw/YMjbmBo1G88E7hrbHepvwVsr4FpDUwnAcT2x7OAyhXgE9lCwe88+8fPyX9PbnyuTAJoMBgMswVLAA1zEmUSwJmEVQG3DookgDzj+fb8JW7x8tVuWefaxLbOf+7t95b46vAYLAE0GAzNgiWAhjmJsgkgBSBrN2x1a9Zv9hu/86fipgtLAFsHRRJArvauWL3BrVq3yXWu3Zjc+ByfHxgcnepBhiWABoOhWbAE0DAnUTYBPHr0uL+tt7V7p68K5vejx+QHbGOwW8CtgyIJIK/74RUvZ98/V3zLPg8vBksADQZDs6AmgDxQKD1UCNivPZwJ6uRqbYB+m8XV0Ipc9tfFpS3G1drAbGpR9RYw3cXGkwIJ4Jkz8kPMoKqOVbga6uKyv1lctiIJYF2QEsDLzQa0xbhaG2gmV0NdXPZX4WptwHS8iDq5WhtoRR07pAoeCJRna6XSlCNTsixV8FBtQkmyVipNGTRly1IVDhUytGmvcqFP+pYqaeiPMWnl6syFUmupkoZ5UAYvlasDyrsp+5cqaajAgUvlUB5oB48SfckIVOcwZs0GjJeydMkGzBOuVAnFHNFJK/tH35QNtHJ1xqPpyFgYk1SuDtABv5J0RAN0RBMJ6IgdNB3hYos80E7y5WY/A7izf8CNjMivXqjqy3Bn2pdBygYpX64jnhTx5Vg82ZvNCT8gEWsG8glgKp7gy82IJ+ioxRP2azYIvtxq8QQ/nsl4EsB5V9aXq6yN2KCutRFuXfGkDl8O8SS2NlaJJ5ovh/xktn0ZHdkkHdFe82XQIU2UjhgQE9WcnANKXCaAU+BsmnFolxwV4RBBczaMw7gkgRkLXM3ZOEFwGElgjANXEwkexpUEhoMW0gnP/Dm5OLZmHI4rOSqfR6eYDTQdmSNjQmuJi23gSjrSX8oGzEnSMWUDNNRsgH6aDZhDFRvgM4y7UYtmJ4C9A4NuPAtiH0RsoJ3w+JNmgyK+zCbpSKCpy5erxpO6fPnQoYNudHyipRLAqjbQYnoz44nmy7F4kvLlVDxJ6TiT8SSAeWo2CL5cdm1kTJovY1dtbaw7nmg61hlPUr7McTVfhltXPMEGko5V10bmI9mAOcRsEPNloN4CljoL4KCpdg0pbqrfWN+XGzfWBqqMqexxq8ynlbjNTgCHRrNvt8pJCS43G6T6TbVrSHGT/Wb/8W6/w1ngbwaOZgvRbN0CjrWBsv1WtUGV47YbN9VvFW4z5tMsbqrfVLuGFLeu+TSLa0UghjkJvpGRAErf9OoGfzKOZwDtbwG3BvZk39r3Z9+gmwGOu3f/5F8TMRgMhtmEJYCGOYkPs29MY7v3uIOH5ec56sSBQ4fdeHbs2Lc2w+zhxKlT/svAh//UvynXAezPn6E7qdxeMxgMhjphCaBhzoKFlz/Jdlx5LqMOHDtxwvVnxzx56qMPNxuaB27DcitYeganDnAcjsmXEIPBYGgGLAE0zGmQ/HEVZu/+A+7QkaP+mayL23H/Z71I2i7df8z/2a9Tp0/7PwHG5/LtF7jHJ7mHjhxxe/bt98kfHENrgatxYxO7/a15rgrzWphG++U3fMJvWTt+cIkPHA+2/6hf0C8bhSccb7avOhoMBkNAh/QMFMGQShetYoXKHKplNC4VNlrVENUocKVv2jysSJtU+g3YT9/SQ430B1erdmE8Gpd5UFEkVRwBqqfQQ7plR2UQXKnqK+gIX+LCSemYsoGmI9yYjikblNEx2EDTkbloOgYbSDoCNIzpCFeq+go20HSEQxXVxN69bjfPgh046P+yBxtJYf/goBseHb2wL2zbdvS6NRs2ucHhYbd7776PtO/Zv9/1DQy6kSyh4N++74OHLti6Tl+O2aCsL4O6fVniBl+erXhCco49uTrXNzDgRsfGP2JbtqGRUTc4NOzbV63fmNl3/4U2riT29g/4BK+Rw7Y38zUqwCdyhR8BzYonVXXUuFV8OXDbKZ7EfDnYYLZ8OaCKDZhHzAatHE80HavaoBV9WePGfBl0SEIwAd4dQ/mw1CnlzsPZwic5IxOljRJviUu58sjIiCgigxwaGvKfkUCJNeOShKA/uExWAnPhHT6SQ6HBYLbQYzwJvHOI9/tIToHwHBcj5IGOvPuH8m/JKXAIuJIjcyx0oiRd0pHyec0GzJE2EhuJy376lpwRbRkT/UtgPMxJcqiUDdBBswEaaDZgDuiPHSQd4cRsEPNlxopW74sn5j/9eCV/7BsYdguXLHd7sjlJ8wm217Tg/NB8GbswH84zCcxFswH+ABffkhDzZfSDi0/ngXZlfTnYQPPlWDwJvqzFkyK+XCaeoC1tx4/LMWF/xt2XzefQocNu6YrVl4yNscDVFijePYgN64onUkwvGk+kuJyKJ9hGs0HKl2PxJOXLqXgCV/NleHXFk5QNyq6N2EDz5ZmIJ5KOzCNmg2bEk5Qv1x1PtLUxxJM61ka4qbVxuvEEdEgiAAwvORNggrRLXPbRJokA6BPDxLiSCACjSEYFOFGKK51YAOHgSgICeJJDAI4HV3JiwHhT3JgWMRukdCxjgyI6ziUbwJVsMDw65jrXbohyY1oEG0ioYoMiOqZsMNM6Ak1HUFc8qduX33//rL9a2LlmwyWataov0xazgaZjs2yQ0hFunb5chw3gltEx2EDTMXAlFLFBSscyvjwTNpC0ALTFfFnjBh1bMZ40wwb2DKDBUAK79+53yzrXZgFDDiSGuYGd/YNu7YbNU/8yGAyG9oElgAZDCfBNb8GSFe7IUfkWoWFuoHPtRrd9Z9/UvwwGg6F9YAmgwVASS1ascbvGd0/9yzDXwG2VRUtX+upug8FgaDdYAmgwlMS27TtdV7YZ5iYOHznmHwOwFzkbDIZ2hJoA8u1We3CQByR5uFB7QJO2FFdDjMv+FFcbU4ybmg/c1Hzq4NKW4mqIcdmf4sbmUwc3pQVcbT51cmnTuLzWZdGyTrU9xmU/7RpS89G4dWpRhUtbnVwNMS77U1xtTOzv6e13azdu+chnwpg0Lsctq0UVLm0proa6uOxPcWNaaNyUFnBT86mDS1uKqyHGZX+KG5uPxk3NB25qPnVwaUtxNVTlxuZTBzeMKcZNzUfjdkhVK3RGaTFlzRKREm3KnSUuB6O8m3JqCZRo0y5VrVCZQ79amTV9UiotVfDQH+XbWpk1c2FOUhUO86A0XHsNDGXylGlLBqJEm+NKZdZoR3k25eqSgSjRhkuVTh58nrlq5erME62kyiHmiMbaKwPQN2UD7ZUBjEcrVw820F4ZgA5auToaYAPplQEA/bGDpCPac1zplQFoF/NlbA435svMWcLBTMc33pnvdu/ZN7XnItAn5svYRvNlKtEYUxlfxh/gzrQvA2yn2aCIL5eJJ8GXtXhSxJfriifzFixxg8OjU3sugnnAjfkym6RjKp5g92bEE9q0eMJ+zQbBl2PxJOXLZeNJygbNiid1rI11xZPgy3XFkzK+zLFivhziSWxtrBJPmrE2wi0TT2K+DDokh0FUJsNgJYHpFKeRuAwCrjZY9tMuicTk6VcbLOPBcJJIjAWu5DAAo2FcSSSMgwEkhwHw4EtcThCOKzkM2jFeTjxJR8YKVypnDzpy4mk2oF2yQdBRswF9ajZgX8wGzIVgU5cNpMAJgg0kLYrYQPNl5lnEBhJOnTrpOtesc+s3d03tuYhgAy34VfVlzQbMA25MR80G+L+mIyjry8EGMV+GWyaeVPHlKjYYG59w7y5Y7E6d/mjMQD+4KV+WbJDyZexeZzyJxeUqNtB0jMWTlC+n4ommI+CYzYonVdbGOuNJTMcyvlxnPEn5MlwpnqBPzAbNiidFfHmm4wlQbwFLwjYi1l4nN4ZW5Kb6nWvcGFqRm+qXvxZCNbAUbFLcKsetwo2hWWNqFjeGGLe3f9CtWrtx6l8fRV3HTfU717gx1DWmFOo6bl1jSqEubqrfduTG0IpcKwIxGCqAb3vLVq0VbwUaLk/wTXvRspXirX+DwWBoF1gCaDBUBH8XduXq9eKlf8PlB179s6xzjfuwwrdyg8FgaDYsATQYKuKDDz50i5evcgcOyA9oGy4vkOwPj+ya+pfBYDC0JywBNBhmAL0DQ26DUAxiuLyw/8BBt2LVOvHhdIPBYGgnqFXAVLRolTJU91B5onGpSNGqlaiCoV26XcY+2rRKGapvYlzGpFXKMB4qjqRKGeZBFZRWBUxlkFb1xUIAV6sYg6dVK8GJ6ch4NR2ZJ1ypWok5opNWrVTFBoyHdklHxhKzAf6k6RhsoFUroWFMR7haxVhdvsw8g47wl65Yk9lssmI42KAZvgx3pn0ZVPXlMjYIOmo2qCueSL7MPEjy+waH3Jlsv1bByDxSvlzGBny+qg2aEU/oNxZPNF+ea/GkLl8ONrjc4ommY7BBzJfrsAF90t4MX9a4MV8GHdJkmADvwuG1HFKnTJJ3tkmTQSTeO0MptcRlMLRLk2Gi9ItQEihnZlzSZDA6XBxDAu8r0t7RgwZDQ0NeSAm8n0d7Rw+Ggys5FDpyTO19UxiNMUs24Fi8c4g5SzqiETpKJyZzpI2SdInLfs0GaBuzAT6BDaQTM2UD3lWkvW+KAKbZgDnA0951BCdmg5gvM1bGrPkyNtB8Odgg6Ng/NOLWrN/kf0cf2vB3iUuf9C35Mv0xJs4zCcGXJRswD7j4loSYL6OfpiNzKOvLwQaaL8fiSZ2+PN14cvDQYbdkxWr3QTYfuGXjSfDlyyWe4MspG2i+zHlZ1peLxBMpUWMOrRhPUmsjbXxGAn1qvlw0nmi+HLNBM+JJypdDPJnttTHEk2atjdONJ0C9BcyApYkABkm7JCD7aJMmAuhTMgwIXGkiAK5kGJDiYjzp5AA4IFzJEUGMy/HgSloAxqvpGOOG+aRsICFwzQaTqGoDTce8Dc5kx1m+ap3bt3/yJaO0xXRs5DaiiI6aDerWsSyXtpSOZWwwm768Zv1mNzT17F9Mx1b2ZY2b9+VGBO5s26CKjoEb07FZNmgFX25EER1byZcBbRq3FX25VW1gzwAaDDOIgaERt3bDZvVkNbQn9u4/6JZ3rnXnlQBuMBgM7QZLAA2GGQSJH0UC9o64ywfYlMrfsfHdU3sMBoOh/WEJoMEww6BSdPmqteptBkN7oW9gyK3buEW9jWIwGAztCEsADYYasHVbj+ve0Tv1L0O74sTJk/4dj8dPyBWwBoPB0K7o0L7VcvVCe2CRWyI88FiWS7vEZV+My37tqgpcxqQ9e9Usbmw+VXWswwaAtjq0qJtbVos6dDx1+oxbumK1014O3a46atyqOtZhAxDjprSgbe3Gza5vYHhq70UU0bEO+8Xm04o2qFOLurnSfEBKi7p0jHHr1qLddKzDBoC2ZulYhavNR30NDCXaVUvdJVBCTbtULcNAKcHWyqyLlLprZdbhdQOSUMxDK7MGlFiXKXVHR0q0tVJ3jseYpfdrcSzmWrbUHY0paZfAqwQ0G6BtzAZVSt3RQSt1T706A/211zYUeXWG5svhdQMxX2bOEmKvzuBY67PkYfGyTrFwANuUfW1D1VdnaL4ce3UGSL06g+NKvsznmWuZeBJ8WYsnVXw5Fk/Qx9tvead/7UsesVdnpOJJ2VdnBF9OxRPt1RlV4gk6avGE/TEb0K/my4xH8+UQTzRfLhJPNF9uZjypsjZqr4GZiXii+XLMBlXjSR1rY4gnsbWxznjSjLVRs0HMl4H6ImiEgCwJjFFwOGmwGBOudkD20y4Nln30KwUwgACIL3GZB1zpxAM4MOJLzoZhMZ5kdABP42JYjiudeGjHeBm3pCNjhSvZIOgYswHtkg2CjmVsQH8pGxBIJC2K2EDjpmwAD76kRRUbMM+UDTQdgw0kHT/M9jHm1es2up7egam9F4FdUzaI6cicNB3hSsEPxHwZ7TUdAcfUbBDzZT7PXKvEE2khAFV9WYsnhw8fce/MX5zx5QU3FU84bsqXJW6z44mkBfvoVzsPqvhysEFMR82X0TAWTzQdQSvGk5gvBxto5wE20Hy5SDxJ6VhXPCnjy3w+5ctwpXiCPnDrjCeSFswDbhUbzHQ8AfYMoMFQI86efd+/G3DPXvkbp6H1wN92XrV2oxscGZ3aYzAYDJcfLAE0GGrGgYOH3JKVq93JU/K3P0NrYfuOPvu7zgaD4bKHJYAGwyygd2DIX1U6f/6jtxYMrYNd47t9ss6VW4PBYLicYQmgwTAL4FmVdZu63Jau7VN7DK2GQ4ePuIVLVvgrtgaDwXC5wxJAg2GWcO7cebdy9TrXN/jR14oYmovTZ864pStX+yuABoPBMBfQEat0orJEQpFKJyp0JKQqdGgrW21GFWnZCh24WoUOVU5ahQ6VOXClKil0hAdfqlaCA1eyAccKVVISqtgAfVM2iFWb0XdMR80G+JNmAzTQdASh2iymo1QllfJlbB6zAXPVbBB8WbOB5MunsuMtXbnG9fUPumPZmGK+rNmgGb4MyvpyygbNjCfM6Ww25lVrN7idfYNTLdV8OXBjvsxxJR1T8YRjlrEB44RbxZfLxJOUL9NnSsfLLZ7U5cv0PRfiCceK+XLd8STmy/Qd07EuX9biScyXQYdkWAbBe4Fi79nR3n+GSLxHB6EkLpPkXTnSgBCJfpmMBCYSe2cUXO3E5F1HvCtHMixG4R09mlPwriM26eTihOS4klOgI+/24diSYXFguJJTcCx0Ys6SjmiEzpINmCNtOKPEZb/2zij2xWyQem9XzAa866iMDZgDPO2dUXBiNoj5MmOFK50HwQYxX9beGYU+tPGZPPfgocPunfmLXE/PTnE+9MeYOM8k4E/4lWQD5gFXC45FfFlaZJhD6r1dcCVfDjbQfDkWT+r0Zbi7d0+4Nes3uS3beqb2TqJqPIGrxZPgy3XFk5gvp+KJ5MspG3B+pGyg+TLnZVlfTsUTuJovt2o8oT0VTyTQpxaXi8aTmI51xZMyayOfj/lys+JJlfykiC+n1sbpxhOg3gJmslKHgP2SkwIGFOMyQUncAPqVHALEuBw3xsUokmEAHLiSQwB4kmFAist4NW4VHdmf0rGMDVI61mWDwNV0bFcbaFqMT+zxf2LsyFH5pE7pqB03pUXMBnXpCFI6luVW8Uf2U+3Llu+/iA3K6givHX25DhvEuEV01GwQjltGx2bZIKYFKKtj0ELjtpsvg5iOVbhVdKzLBoFbhw3sGUCDoUnwFacrVrujx+QrRYZ6wd9qXrN+sxp4DQaD4XKGJYAGQxMxNLLLLe1c404ItzoM9aFnZ79buWaD+o3dYDAYLndYAmgwNBkDQyP+SuDxE/JzGoaZBcnf8s617vRp+aFqg8FgmAuwBNBgaAHwoujFK3gmUH7Y2jAz2Naz0y2z5M9gMBhch/ZwILdGtGdjwkOW2gONcGMPd9IuHZd9MW54yFLjMqbUw51luLEHNMNDlmUe7kxxUzrC1eZTRUfa6tIRroS6ddS4MR1BihvTgrbp2GBwZJdbvKzTHTjI6xzOl7JB0CJmg7I6VuGmdNS4KR2L2ICf9L1pa7frXLshO9akD9bly4Eb01HjVtGxCDemI1xNixi3iI5VuGVsELSIcavoqHFjOoKYjnBjWsS4VXSsaoOyOla1QUxHzQbsS3FjWtBWl45wJRTRsSy3I1ZmTWmxNBnKoHllh1bqTtmxViZPmTXtUok2E6FfPiOBPinhliZLf0NDQ2qJNnNhTpLh0WBwcFAt0abMmpJ1yXiUWcOVSt3RkbJwyuQlA3A8xiyVaHMs5kqZ/HRtwBzRWCuT55UBtOMYeaAt/WqvG2A8jEs6cYMNtNcNoAN6SDZAA3SUXjfAHNAfO0g6wonZIObLjJUxS+dBypfRCK1ivqy98gHbSL48sXuvm79khduytcsdP66//oI5STbAH5hPFV/WXjdQ1pf5fF2+HOKJ5sscFxv4at9NXe5cg+/VHU+0V2egf9l4wjFTNtB8OWaDmC8zR9o0G7A/ZgPGFIsnKV+eK/GkyNqIL0vQ4gnALlV8GW4rxZOUL9cZT+hX8+UQT5qxNmo2QHvNl0GHdEA6RUQOLImEsIggcTEmXOkEAOynXRosXPqVDAeYBAJKDsNY4EqGAwiBgNJ8MBhc6eQB8DQux4MrGZ3PM17GLXFxipSOmg2K6KjZgD7hSjrSH9yYDTg5YzaQAhjABhoX7eFqNoAHv1k2kBCzQREdNV/et/+Am7dgiRsaGZ3acyliOgZf1s6DmC8HG0g6Asar2SCmY7BBHfEk5stgXxbol65Y7d/zl//MTMSTmA1a1Zclbt3xRIsJsXiS8uXYeZDy5WbaQNOxiA2qrI2aDYKO0nxSNqgaT8royOdjvhziiaZjzAZFfLlOG0jcoONMxxNgzwAaDC0IngXsXLPB/mxcBZw4cdJ1rtvodvRe/AsfBoPBYJiEJYAGQ4vi1Okzbs2GTW5rd4/4bdagY+++A25Z5xo3OjY+tcdgMBgMjbAE0GBoYXDrYHNXt1u1dqM7eUq+9WC4FP2DI27pytVu/wH5WR2DwWAwWAJoaAHw7IJt8hbAa2K4orVfKZACEv9y3DRQ4LF523Z/6zy8U1Hi2za5GQyGuQ1LAA1NgbYgSfvZAvL7eWg2tOfbwqa1tSJXagvYs2+/W7ZyjRscptrv3OQLjVetdavXbfKFI40I3PwWkN9fdD4gv3+2dOSz4Oz777vtO/q8Fms3bHYHDh5yx4+fcKvWbnBbsgQwPDjeyNU2qb3ImNik9nbQkS18vrHNYDDMLXRI1T0EBMrNqYaRQKUMJdhSVQqBhXJoKlMkUK1Cu1SVQuCmjc9IoE/Kt6XKIPpjTFTiSKA6B670LBXzoBReqwyiiobycOaWB1U9cKXKIHSEB18KshyPMUs24FiMl3FLiNmAOaIj1VkS2F/VBpKOwQaMTQL+hF8FLpoETdGRUvhTp8KVGxaoqUUq+ww8tg/hsm+qHaDj7omJzAaZ/RrbpvpnPtjAHyvHxV84rq/OynEZJ/M5fDizX8b1Y2ngHs90xPbefjkuOtKGXh/lTlYS0re3Qa4NmzIm+vdtU3xw+tRp/1csXntrvv87tiO7xt2O3gH37oKlbmxitzuf9QfXnwcN/YYNf7xgv0uOO1k9h47+PLiEOzkGeJoNsLnXkfOgsS37nc/v27f3gg3yOp7IfA3uWcEG6IhOR6ZiEVf5mP/KNevd8OjY1NyXuHkLl7rRsQn/GY+Mi7bBBo39hr6jNshs6m3AeSBwD2U64lcfEIsu4U75cqajPw9yXDbvy9O0Ab/7mJAd08eiUjbY53Wc1H+yP39OZGCeaFFHPKHfOuNJmEMjOCe1uAzwRS0uw4ErVWzyeY6prY0hpte1NsZsgI58Lo9gg7JrI1zvjwLQsMzaCJq5NlaxQbN8WbMBOrJN15dBh2QcBsF7ZZiM1CkT5b1BUqdMnvfZaANiorRLxkEk+tUMi0CMSzIOIvEOHu0EwXAER+kEQQO42gmCgGySYeHAlYzD/HlPEseWDMtY4Uo2CDoyZ0lHNEIr6QRhjrRpJxf7NRuwL2YDfII5STqmbICGgcu40ITEgn/vyU6Ordu2udFdY+5QduyDmZ+wHTqc/X7osOvZudPt7O3zL0lubD985Gi28I+5rm3dblfmG5dws9+5OrS9Z4fr7et3B7J557kjo7s8dzzzjTx3f6Z99/btrn9gcHIfY2ngDg4Pu23d293uPXs/wt27b79vGxga8uPPcwcGB7O+e9yezDfyY9qdacGYhkZGLuwP2/HM31at2+AWLF15iW13jU+4Rcs7vQYcdwT7N/Qbtp29vW5HpiVzyx93LOvD6ziW0zHYYMcO3QbZ8eCOZfa9hJv9zm1rbNDXPzBpg5wWw9k8t3V3u4ndez7C3ZeNk/n0Z3odPX7MdWWarVi97pL3+ZEIvpMlgXye6unQ795M266sX+wU+mzsu39gIBtX3AbDI6OX8Nj47M6+Prc904Mrr3nueJaIw/2oL0/+xJd3ZHZAl0u4xNXMfoxZ9OVMO2zgfTnz6zwXm8MVfTk7Vnc2V+aM/qeymMO5F+ISMYFzt0w8IdbH4gn9agtuLJ6wvsDVFlwWVC2mE4/hSgsuc4AHX4rLRWK6tjaGmF7X2qglnvSZWhs1G7A+aTYIa6Nmg9jaiPYxG3DMMmsjn4+tjSE/0XwZbh1rY8hPJB1Ta2MRX5byE+YQfHm6+QlQbwHjSJJhAPslRwuIcRlkFa4kEEAIuJJRQRUuPElcELgaYtwqOtZlgzCfmbYB++CFvvlLFyxAR7KTtS9LktiGspOLhY/KzUu2bN9ItpiOZCfmaJakfKQ924azdj73kbbCXKEt49I24n//aDt9qsfNtovcj7axf3JMH21j8/0K+0n0eBZwZ9+lrzZB0zffXej6BocmP6v0yzG14zImdT7Zvqo2mPw9pmPcBrv37nPzFy933Tt6p2Y9CRbbRctWue1ZcjqWBcNGvqYjm9dCG3O2leZOjfmSNv/7ZH+TWox5W15ob9hoj50Haa6sI23B9sPZuTaRfXFhUQuxhEVKOndBKibQLiEWE0DZeAKKcDXE4nIVbtBSA21ldAQpbp06atxW1LEuG4T5XE42sGcADbMCHDFs3mHPf+CviPTzZvXsG9X7OCkO3vC5xm2qF7GNzbcK+9kmIbex+VZhP1usjS3WHmtji7XH2vqHRtzqdRv9ZwJ47cnCpZ0XroxJPLasxW9SG1uc61vFNjbfKuxni7WxxdpDG+jtH/R/zq0R+/YfdEtWrM4SmMlv7RJX2rKWRPvMcVk0TmbfxrndzbdyNq6q+H/nt/A5aavMPe65B7nSMTHhdmUbiR8LCGNkC+M3GAyXNywBNMwKwiIYvumcPHnKDQyPuJPCJX5DHFy1Wb5qndvctd3t2bvfDY3u8s8AUhxyueNMlqyQ7K3dsMXPnef+Fi9f7YYzDVoZ+D+JF7enWmHjVhQbSeAEt/Cyc5LzMiSAlgQaDJc/LAE01I588kcCw3NXo+O7pz5hmC5IoDdu7nIrV6/PtnVuaKS1E6CZxIls7us2bp2a+3o3uquh+KNFgf+3UgLIRgLIs6ADQ5N/f5ZbRZyjIQG0JNBguLxhCaChdrCQhFtM/GSx4Rmn2DvtDMVAMj1XF+rw/Fo7oCUTwGyjqIBnCo9myWB4loixWgJoMFz+6NACKM+FEGAlECiozpG4BA0WeI3Lt0zapeASuNpDiykuY2JsEhiPxmUeKa72gDQBEy4/JcBjkxC4ZXQsYoOyOpblajryWeZKJRJXHfjpqxwPy9VUBsPlBs6NVksA2Q4fOeJ27Z7wFdNUNxKrGCvnbDjHq8QE9hETZjKeBISYLiFwq8TlGLdKXNa4KR1pq2KDlI4St4gN0EPiFtExZYMyOlaxAdyYjrRdTr7cIZVoc0BKhynvlibDt8ahoSHfcR4caHh42Jd3S1zK1WmXJosI9MtnJNDnyMiIaDz6GxwcVMvkmQsl3JIBSEgGBgZ8QJRAuTrl3ZKIBHWOy8880JFjUqYtOSPHgyvZgGMxV8q7JR0pV9dswBzRWHtVAeXqtEtOk7IB48E3pJNAsgHHZ2M+8Pr7+/28qUi0BNAwV8D534oJIEkfldN9fX1ux44dfh9jZQuxIxVP2K/FE/YRE4hXEmLxhNgGV3vtBnFVi+nEVLjSazeYA6/6IK5LcRkOXIpm8uDzsbWRscKVXrsRYnrZtZE2YreE2NqYsgFzYU7a2ggXv5AQWxvRD660NjL/utbGWH5S99rIuIqujY2o6sup/ETyZdAhkegUA2B8SSQmg6NLXIwJVxIfsD8EmTzYF76FSkAIRJC4jAWudAIABEAMaT4YDK5kOAAPvsTleHAlwwHGy7glLvPUdCxig5SOZWwQdJSCEAg2kMYk2YDPcRzaCECceOg5NPV+NYNhLoBzAL/nvGuljfPVv3ImW3xIBIgNnKuMN5zjqXhCjKKvWDxJxXQpnhBT4WpxuUhMj8Xl2Y7p6INOZeJysIEWl7EB4ypjgyI6autqq66NcDUdy9og6JiygTSmwNV0LGKDOvITewbQUCtwSk4mHBBn5ATDYS0BNMwlcA7g9ywurbSxOPBuwH3ZFzMWMBY3FivGKy0oBoPh8oElgIZa0ZgA8q0uXC0YHB6xW8CGOYNWTwD5SzxcjeEctQTQYJgbsATQUCvyCSCLDAuPJYCGuYR2SAC5jWRXAA2GuQNLAA21IiSAPL9gCeClGJ+YcCs7V7mTp+S/03g5gL/ju2nzljmfTLRTAsiXNUsADYbLH5YAGmrFbCSAp06fyfo62nYL1iuvvub+7T//yw0ND0/taS9s3rLF/eOZZ/1tfQ3f+f4P3c1f/Zr3gbmMmUoAecicfsKfdJM+M53NEkCDYe6ig0U5D058ysq1snECBWXLEpfAQTWZVu5MAKNdqmgh8NAvgUkCwQoun8uD/uASFCUwF8q0ub2RB/OgnJ3kRAKl4VSvSosYRQ1wpUUQHeFRNi4FU47HmKWqIo7FeDUbME+4UlURc0Qn9JKAvikbYCcJ2FXTkbHAxT8CmDdzCf1SYs+cSACrFoEwhvHde92qdZvc4uVr3Lae3kzT9rma9uZbb7vPfOFKNzI6/T/hNjg45L72jbsyPUem9sw+XnrlVXflNdepr0UAd9/zC/eNb31XPHfmEph/lYSNWHHu3Pv+J+cg5xD9vf/+2QuVi2U2YsTo+Lh/PVP/wIA/7/O3gPk3526ZeBLi8kzFk0bgd6xTkm8RU7W4DIjpbFJchgNXqhTl83NtbYQ702sjqGttDDYoszYWsUHMl+HW5ctlbBDzZdChCcxgNePghLx3RnJyJk8bYkhchGdAknEQmHfaaE7OeBiXZBzGAldzcgTSnBxxeAePJjCGYZO4cDiulgDiEBhIMg5jhavZAJ3K2AAdYzZgP31LOrIvZgPmogUayQYcn7kE2/IeJZ8AjlRLALl6uGnrdrdwaaebv2SlW5Bt8xevcMtXrXfDo+OZf310bjONDRs3uRdfesWtWbvOofJwNqcVKzvd+9lCDTZv2eq2dm3zv3Mr9MWXX3WLlyy9cDKSAH72iqvcUJbEbdy8JftMt9+P9kuWLfN/pgsMZMneK6+97t6Z954PPvzVhj/e/2f33/+v/9f98YEH/R/2Bzt29rqXX3nNLVq8JPOpj/oF/a7o7PTjfvPtd9yy5St8f4z/5Vdfc31ZEhBwJPvsu9nxXn3tDTfa8Hd2T5067RYuWuzefW++e+Sxv7hbbrvjQjAdGBj043xvwcIL54MlgJNg/pwX2GA6G/Y5ywKQxb2ly1a4Z59/0T348GPuTw887J586hk3772F3m5nMp8q0z+2IwHc2dvr+rKN4xHnGG+IHal4wvmsxRPiPOe9tmjG4glxEa62aKZiOtxYXNYWTY4X47IGMW5JC+YJV4rpjBOdyq6N2EBLXLCBtjambIAOWuISdNRsEFsb0S9lg8tpbQz5ieTLVfMTuFJ+whzglclPgHoLmM4kwwD2S5MMgCuJC+BKAw2g39nmwknNR9Oimdw6tAAzyeV3OJw8ODInAIFoYGi4VALI83I7egfckhWrfcK3cNkqt6hhIxF8L9u/bmOX27tffmnqTODV199wV17zRXfnN7/tvnDVtT7xWrhwsfv4Jz7t+rNEiLledd317rG//s0tWbrcfenGm933fvhjd1XG+f0f7vd6vDNvnvv8Vdf4z9/29W+4H/7kbt93V5Y0/n//+u+uc9Vq17Njh7vhplvdt777ffflG29x3//Rj32i+O3v/sD971kCeOdd3/av8Fizbp279vovu69/81vuymu/6H7z2z98ZCHZtr3H/d//8q/Z525wd9x5l/uXf/0Pd8vtX/O3aT/x6c+5K66+zgcwAty3vvN9/+8bbrrFXX3t9a57+3Zv9z/86YFsbP/hj/vZK652N97yVR+kt2ztctffcJO/KnnNdV9yv7jv137RuOfe+ywBzMD8p5ug8XkC96rVazLf+Lm74povuc9ccW3mM1/Mtusz/a91n7vyukzzb7vX3njLn1doLvWlbSQU3AImweTfLFScw4y38TxuRjyBA1dDFS48+BLq5pbRApTVEZTl1q1FHVz2p7izrSMoy61TR3sG0FArcECck4SHhIQFjYVmugkgfQwO73LLOte69xatcAuWdl6S+OU3nxxmn9mybUeWNMqXv8uCK3Of/cJV7he//JXbtHmz+/l9v/RJYG9vn7vlq3f45JArfuzjqtzBAwf9lcGtXV3u93+8P0u2Pp99+93rFixadCEB/HaWhNEf2J4laiRkq9ascSdOnnArOle5LVu2uqeffc79j3//mE8Au7Zt85/ZsnWr+zALALfdcae7/Wt3uo2bNrm/Pf6k+9f/+Hj2+2Z/9bA7629iYrf/+b8+/dlsfG/6pO3un9+bJalfcgcPHXY9O3e6//zEp9yixUvdSy+/6q7Ixj42Nu4T2bu+8z2fJHJF85Of+bx75915fv/Dj/7FJ4AHskT7ez/4sU9Uubr43PMvuP+ZHX/9hg3uvl/9xn3j25YAMv/pJIAkc2i8ZOkyd8PNt7vPfOFad831N7prv3TTRzYSQpLDfzz9nD/GdI4TEkCuxnC1AL9gwWC82mJlMBguD1gCaKgVjQkgVxdYZFh4ppsAnjt33vUNDPsrfySAJHdS4hc2EsD5i1e6jVu6s0VOvvVRFtzq/Y+Pf8Ldcec3fdL2k5/d4/780CN+0X7w4Ufdj+/+mXskS464asdium79Rvf1b3zLX+G78eavus98/kpfAdyYAH7rez9w9/7q177/HT073Sc+8zl/a3ZkdJdPvr6bbVzd+9f/+C9/NY6NZIwrhPw916uuvd596Ss3+WSU8fwhSzRJOr/3gx/5K5F/e+JJt3lrl/vcFVf7K4vgzw8/4r7/o5/437nt8dkvXOnmvTff317+4Y8nr0aC5154wV33pa+419940x9nbNeY3//WO++4279+p7/1e+Mtt7lrvvhl9/N7f+lv+96bJX48U/aL+35lCWCG6SaAJH/r129wN956h0/wpMSvcbvquhvcldd+2b3y2hvudPYlC1+U+s1vjQkgVw8tATQY5g4sATTUiplIAN/PuGExOn7ipOvu6XWLl03dAs4lgv5ZwGxbs36z272Xv/foaf74M5WE8AzJf33y0+6tt9+Z2uPc2anbrVyBu+Lqa7Pk7HPu5Vdf9/u+ctOtWfL3U/87z86RAHLLLSSAA4OD/irbPb+4z3+GK3xc3SNRu+/Xv3VfvukWP3auKv7XJz/jurJ2riZyu5mrhSQLJGgPPPiQ5wOutp7LFvIjR4/4ZwR5dq8r43/6c1f4Z//An/78kPtuliAC/hYo41qwcJF74smn/JW906cnn7/5ze/+4G772jd8QgmfK4uA59Fu/urt/krhV2//urtvKoEFJBH//OeH9gzgFJh/0QSQc4SE/Ps/+qn77BXXiQmftHEV8Kavfs37xKmp8yy1WQJoMMxdWAJoqBWNCSBJCckKC890EsCxiT1uS1ePO3zk4sO3Bw8dcRu3dk8WgWSJ4IIlnf7K4IrV693gyC6f/ACO2ds36Hp29kefz5gOWCD/9MCD7r8+9Vn32z/80T/bd/8DD12Y4xezZOz/+H/+5ULxBIkRydUDDz7sE7X/8W8fcyMjo/4ZwH/7+P/yVcD/ePoZf1Xxd3+4393+9W+4//a//Z/+2S8qbT/2vz7l/nj/A/75uv/23/9Pt27DRrdr11iWAH7GXxUkeeOVMv+ZJYQ/v/dXPpG8+2e/8FcGG7ElSxr/x7//py/iAL/87e/d7Xd+0/9OdTZtFJrwd2Gv+9IN7q5vf8+PnSuNJKs8f8mzgdzapviEOZHsUnnNlcOPZ8np3ff83N37y1+7H939M7d3315/hfGmW2+3BLBgAngs2zhHuBX/hWuuz74gXO8+84Vr/BW+6758s0/0uCLI839Xf/Er2b6b/K1h/s1G29+eeMonclL/+S0kgDxIzuMZlgAaDHMHHdqiSBAiGEhgoeNbqsQlaBBIpAocwAIJV1oQ2Ecbn5FAn/QtBaYqXOYBl3lJQAf0iHEJmhJiOsKBW0bHYANJxyo2gEtbFRs06sjn2M8+bktR9cWiM50EcHTXhE/yFi9f7ZM5rmYFTOzZ66/2LVmxxid54Xk/jkniuGrtJvfugmVuc5ZAar5eBlTZPvfCS+7HP73HPfDQw76KPGDBwoX+/XjBJ/YfOOgefuwv7le/+Z174cWX/LNzFFtw+5b9R48e85r+9fEn/K3TZ59/wT348CNuOEvsuPr59DPPuZ/f9yt/xe2hRx5z23t6fL8ka9zy7e3r8/+eN3+B++k9v3C//f0f/dXCvI3Gs2M+nPH7+iarfRctWeqrdgFVhPS9bft2/2+qQn+dJYg/+/m9btnylX4fGB+fcL/74/3u9396wD+T+OxzL1zw78VLl7uf/eJeP0/eEcjx33r7XffCS6+I/jKXgD8WSgCnbt3iIzz39+3v/zhLth9yt97xDX+Fj2TvJz+71/36939y1994q08Cv3jDLe5Xv/2j+1mW/HPF8Ed3/9xXJBY5XkgA8V8qCfHDfALIT87rMvGEfTMZTxpRNS6zSYjFZRCL6SEul4npzdIxxg061mWDubw2NqJZvtxBYx4MlqsK3BaQBkSpNK/zkA7KgbiaQDCRuCQAtEuGR1j6JXhJoM+RkRHRAPQ3ODjoxyaBBZcgJ4mI0QYGBnxAlMAtP0qpJREJshyXn3mgI8fk2JJDcTy4kg04FnPlm7mkIwu2ZgOcDI0pLZe47KddOglSNmA8+IbkyJINOD5zR3eO2ZslFvQ9NI3XwIyO7b5we/e9RcvdytUb3PDI2IWrfGfPvu+OHLuo/74s4dqweZu/Fey3LHncum2HehIYDHWDc6BIQsZnDmXnxd333Oere7f3TPrtewsW+at/P7nn3uz8PeBjxj+eed59+vPXuCf+/vQkL4sJP/35L90dd37b9fUP+LgmHaNxIwHcNTHherIvFd3dPC97xB+P8YbYwblOTCgTT9hHTGBsEmLxhNgGlzFJ4Da5FtPRBy4JdR7MgXhOXJfiMhy40qtP+HxsbWSscNE+D3RFpyprI5+REFsbUzZgfWJO2toYs0FsbUQ/uNLayPzrWhtj+UlqbQw2KLs2Mq6ia2MjZsKXJRugPVzJl0GHJD6dQpQcESAO7TGuJCCgT43LPiYpOTHAoExEMhyThyuJD3BkhJS4iA5XEh/Agy9xOR5cSXzAeBm3xGWeGjfoWMYGQceUDWI6zpQN+BzjQVucnxOPk3sgO8mmmwCG5/0o7iAZXLth8jm/AJ4P7Nq+0y1efrEKePLzlgAamgvOAc65xuRL2vgMC/UPfnyPv5IXFt6eLBH88s23ufv//Ij/N1i2YqX75Gd5bnPylj549C+Pu1tv/4bb1j35bKh0jMaN/rkCyGMIe7LFGA7nKuMN53iVeBK4WlyOxZNUXC4S02NxuWpMlxBiOvPOg2OhUzuujRq3yNqo2S/oKHFjayNAp7JrYxEbxHRslg00HavkJ/YMoKFW4JScdDgiJw6OysIzrVvAuQQw/M4zf0tXrsn6m/xmxFU/rhA2fo7NJ4DdWQIoBASDYTYQFp58Apbf+MyR7Lz4ze/v91f8XnjxFbdx42b/4mfe+Xfb1+7yVwM7V6/xVwl5RvAHP/6Zf1UQzw3eevud7ut3fdcNDg0VKgQJCSBXL1hIWABZaBivtKAYDIbLB5YAGmpFYwLIty4WGRaeqgkgG4UfvBfw8NRrXtZv6vJXBhs/w2ZXAA3NRtEEkG/rXEV4Pkv8SPhC8ceV197gE8KrrvvKhef+eO2L35f95DPs/9Tnr3Y/v+83vp/j2SYdo3ELCaBVARsMcw+WABpqxWwmgFwBtATQ0IoomgCynTlz2v8Jwetv/Kov/CCxa3wJ9NVfvNHvC/+e3PcVd2WWLF6RJYNvvPl2dq5NrwrYEkCDYe7BEkBDrZiJBHBk14T/yx9lE0BuC2/eOrNVwNPFqdNnXPeOvuyn/OyQ4fLGdBJAPscVvL/87Un/ahftL4DkN64Y/ujuX7i9+/b5ZE7qO79ZAmgwzF2UTgCrBIe6uKl+q3BjMO5F5Nv4d2MCGBam6SSAhw4fdZ1rNvoreY0JXioBJGGEw+9Dw2OV5lwG//zwn27pitXu2PET2VyPuAceedIdOFRszjEczvR45Y133aOPP+MWZ3M8f/7SxHb3nn3umRded3958jm3rad3aq+hmZhOAsjGs7JUBt7Dq12yxC7c7pU2rv6R/PHsX9e2bv+XQKQ+pa0xAWR8WgKYOndi7XVyY7jcuKl+m8WNwbgXUeeYyh63gxM+D05+AgIl0RKZb6eUHWtcApdWck7QoV2qpCHw0C9BSQJ9wiWZyIP+KIdmbBIo3WZO0lUg5kEJNsmJBCpXeUha4hKoOS4/80A7ePDRJQ+OB1eqKOPzlMgz7pgNpGomxolOWsk5+mo2QFv6xU4SGA/jwlZ5MBbmw0ISwNiZC5/nmKGMfnC4+GtgAH+Vord/yC1bOfm3gEnuYgkgid/Cpavcpq7tPvmS9C8LXj+zbz+vstnltu/ocydOTr6jae/+A+7DKVvty37v6t7p7vnN/W7l6vVuIkvK/vbUC27Lth7PaXypNe8y7Nq+wx04OHnO8GJl+P2Dw1miPOLtyfh3je/OtD3hXs6Sv3fmL3Gju8bdX//+vFu9bpPnAa4wPvH0i74Seks29wcf+3vGm5hqNTQL2G86CSDb6dOnsnNxwv35oUfdtV++2V8NJBHkucCw8d4/bhPf84tf+b/1fCazP7FB6k/aiAWj2fnOuyTZ2Bf8LcQd/k1M0OIJ+2PxhJhAvxKmG08awfqkxXRiKlzuOEjgtSlsUlyAA1eL6bG1kbHCne21Mdig7NqIDSQdmUfMBkXWRs0GzVwbNRtUWRtDflKXL2v5SVlfBh2SSHTEYJiQJjAGkERiArQhpMRFPPqWHDUkCZqjMh6cRhKYscDVRMJZEElzcgyriYSTao4Kh+NKjsr8GS/H1pwcrhYs0IkTu6wN0FriYhvNBuybSRtwfOYSbMt7kpjT4DTeA9iII0ePuW3be92iLLmbt3C5rwJuTABJDkn+1m7Y6pOukJDNJPYdOOTu/d2D7slnXnKPPPGMe/wfL2bJ4Kh75G9P+2MePXY8S7yeci+88rb7/s9+7Z576U3/10n+9NDjPgl87Inn3KNPPJv5zmm3rWen+3P22cezpI0reiR5yzvXuXt/++eM/5b73f2PueWr1mYB5H335rsLs8R51Cee778/absXX3vHaxAwPrHHPfTXp/wrcQDJ4opV6/zvhuaBc2C6CSAb8YUq96XLVrhf/+5P7qtf+6b/+8Bst9x2p/tZlvjxsm3iEwkj563Uj7Y1JoAD/f1+jMQPxhtiRyqecD6n4om28MXiCWsTXC2BYNHUYjrxGK4Wl+HBl+Iyx4txGa+2NjJPuFrygU5l10ZsoMVlbJCKy5oNUmtjzAa2Nl5ElfykiC9L+QlziPlyzAZAvQVMZ5JAgP3SwQKqcjU0i0ubNh9QlltkTM3iapguN3yek4eTmROAE2g6t4DzoM/9WRK2buNW/xdAuEUM1mb/XpYlT8Oj2bc/4eSfKezZu9898OiT7nAWRABX3Nas3+TeeHuB61y7wXV173DPvfymH8NTz72SjfWwvw18/8NPZIvt5NU4EsENm7vcX5963m3umvzrG9wufj5L+t5btMw9/cJrfh9XDEkOSfg++OCitvzVkz8+/DefSB5reAk2id9j2T7+Osreffvd/Y884RYuvfiXPAzNAedAmQSQjfPl/SyhYMHjxdD8HWg2/mb03r37Mt+4+GjFdDcWPG4Bh+SCxIUFjPE2xo/8vxsx3ZjQiGZxadPmA8pyi4ypCldDs7i0VZlPO3I1NItLmzYfEONaEYihVgTHJgHkW9DkFY3pPQOo4dy58/72KUkPx9k1scedOClfxZ1JTOze66/+hYKOt+YtdMtWrXPd23vdMy++7l589W2f3HHVjkRvfGKvv+X7t78/7w5lCy547uU33LKVa3wCuDtbxEHfwLD//JvzFrl5C5f5fduzRI8ksvGKAnNkziO7xt2zL77hrxg2ondgyD3y+DN+LL974DG3aUv3VIuhWeAcKJsAhu1ExqdC+Gz2RYqNL1QnSyZ+YQsJIFc9uMpDn1ICaDAYLj9YAmioFY0JIEkMiwwLz0wkgM3C3n0H3J8eftz/PJPNiWSLv0BCpS9XBrk9fCRL+EgAH3n8aTc2vsffuuYW7/6p5/xI6jZs6vKJZOeaDX7fuwuWuhdfedtXLb/x7kK/j36ffPZldzpbmP2WHYOrizt2Dvh2bgu/9Pq7XmOeHWxctHt6+7NjPuvHaWguZiIBrGNrTAC5imgJoMEwd2AJoKFWXI4JIM8A/ub+x3wBBokgt23D8yYvvf6OvwULmDfJ2uP/eMFf3Xvq+VcvVAFzda5/cMSN7BpzD//taV+sQTJIIQhFI+8sWOI/xxVAngU8eOiIe+2t+f6qH5W9f3707/6ZQxLJQ4ePuOHRMff6Owv84s0VQq5Cknxu39nn+zE0F5YAGgyGVoMlgIZa0ZgAsvEwKgtPOyeAvGblL39/ziddVAOzYAa8kSVhq6au6AGeAyRBI0E8c+as1wKw0IYHfqki5rlCrvCB932yPJlQ8ooXrjLy/B/FJWgI+L2Rw3F4zhC9+SyJ5ImpQhBD89HqCSAPr/N4hvYMoMFguPzQIVWdAK7USFUngMWMYCZxCRp8k9SqTggwcMNC2IgQJFkcJbA/xW18VqoRjIdxSUGNefgHraeu4uSBDughcQmWcMPCnEdMRziMuTGBCEjpWMQGdelIu6YjbY068jn6ZK4sNlQs8bOdE0CeAeSqHa9kCWDOb81b5CuCQ1WywRAQzispCWvmFhLA0dFRXwhCvMongPxk7M2Iy/l40gjiqsZNxeUQ0yXAgSvFZTDX1ka4MRu049pYxQYztTY2ooovo2NZX+6QiEyUgMBtAWlAVKPxPjdJRA40PDzsF3qJS7ky7ZIjI054T5wE+uQ1IpKI9Dc4OOjHJoHgxrv+JCEQf2BgwAdECbwihk1yKIzKcfmZBzpyTI4tORTHgyvZgGMxV76ZSzpScq7ZAKOjMeX5Epf9tEuOnLIB48E3JGcMNmBRCeD4zD34RW9vr+97qORrYFoBXJ0b373nEl/i9+6eXnveziAiLB6NyVcrbJyruyYmXE9Pj+vu7vb/JvYw3hA7ONeJCWXiCfuICcQrCbF4QmzLx5NG8HoL3nEmxXRiKlwWvzyYAzz4UlyGA5cFOQ8+H1sbGStcKbFhnMT0Kmsjn5EQWxtTNmB9Yk6SjswDLr4iIbY2oh9caW1k/nWtjbH8JLU2BhuUXRsZV9G1sRFVfTmVn0i+DDokEQAHlUQACEGHkuHoD67kiIA+aZeOyz76lQQEiIhDSlzGAlcSEMDFISQuwsGVBATwpJMScLwYl/FqXOaZ0jFmg5SOZWwQdJwpG/A59rOPk5qTh58D2UnWrgmgwTBdcA60agLorwBmi/G+bAEj1nGuMt5wjs9EPInFZS2eFInLZWN6LC7XHdPrWBvhTicuN4K5pHTUuM1YGwE6xdZGuJqOZW0QdJyptbERVXw52EDipmxgzwAaagVOifNz0nDScYKw8LTzLWCDYbrgHGjlBJCrFyx8LCQsGoxXWlAMBsPlA0sADbWiMQEM365YePhTcBRHGAxzAa2eAO7JEkCuFFgCaDDMFTj3/wM32f7uXZdimQAAAABJRU5ErkJggg==;" vertex="1" parent="1">
                    <mxGeometry x="420" y="580" width="309.68" height="270" as="geometry"/>
                </mxCell>
                <mxCell id="25" value="DASHBOARD" style="rounded=1;whiteSpace=wrap;html=1;" vertex="1" parent="1">
                    <mxGeometry x="270" y="600" width="120" height="60" as="geometry"/>
                </mxCell>
                <mxCell id="31" value="" style="edgeStyle=none;html=1;" edge="1" parent="1" source="29" target="24">
                    <mxGeometry relative="1" as="geometry"/>
                </mxCell>
                <mxCell id="33" value="" style="edgeStyle=none;html=1;" edge="1" parent="1" source="29" target="32">
                    <mxGeometry relative="1" as="geometry"/>
                </mxCell>
                <mxCell id="29" value="VERTEX AI ML PIPELINE" style="shape=step;perimeter=stepPerimeter;whiteSpace=wrap;html=1;fixedSize=1;rounded=1;" vertex="1" parent="1">
                    <mxGeometry x="514.84" y="424.78" width="120" height="80" as="geometry"/>
                </mxCell>
                <mxCell id="32" value="MODEL DEPLOYMENT" style="whiteSpace=wrap;html=1;rounded=1;" vertex="1" parent="1">
                    <mxGeometry x="714.84" y="434.78" width="120" height="60" as="geometry"/>
                </mxCell>
            </root>
        </mxGraphModel>
    </diagram>
</mxfile>